{"glyphs":{"":{"ha":1215,"x_min":0,"x_max":1215,"o":"m 1085 1128 q 1177 1090 1139 1128 q 1215 998 1215 1053 l 1215 43 q 1177 -49 1215 -11 q 1085 -87 1139 -87 l 130 -87 q 38 -49 76 -87 q 0 43 0 -11 l 0 998 q 38 1090 0 1053 q 130 1128 76 1128 l 1085 1128 m 952 697 q 1042 789 1004 735 q 939 762 990 768 q 1017 860 996 798 q 903 817 963 827 q 776 873 852 873 q 637 808 692 873 q 602 654 583 743 q 233 841 377 667 q 209 751 209 800 q 220 696 209 724 q 250 643 231 667 q 290 602 269 618 q 209 627 247 605 l 209 624 q 250 510 209 559 q 353 448 290 461 q 271 445 315 439 q 334 357 288 391 q 437 323 380 323 q 217 247 339 247 q 174 250 193 247 q 448 168 298 168 q 722 247 602 168 q 897 439 841 326 q 952 675 952 553 q 952 697 952 689 z "},"":{"ha":1215,"x_min":0,"x_max":1215,"o":"m 1085 1128 q 1177 1090 1139 1128 q 1215 998 1215 1053 l 1215 43 q 1177 -49 1215 -11 q 1085 -87 1139 -87 l 713 -87 l 713 326 l 871 326 l 901 521 l 713 521 l 713 648 q 822 751 713 751 l 906 751 l 906 917 q 757 930 830 930 q 623 901 678 930 q 534 811 567 871 q 502 670 502 751 l 502 521 l 331 521 l 331 326 l 502 326 l 502 -87 l 130 -87 q 38 -49 76 -87 q 0 43 0 -11 l 0 998 q 38 1090 0 1053 q 130 1128 76 1128 l 1085 1128 z "},"":{"ha":1215,"x_min":0,"x_max":1215,"o":"m 1128 1128 q 1190 1103 1164 1128 q 1215 1042 1215 1077 l 1215 0 q 1190 -61 1215 -35 q 1128 -87 1164 -87 l 87 -87 q 26 -61 52 -87 q 0 0 0 -35 l 0 1042 q 26 1103 0 1077 q 87 1128 52 1128 l 1128 1128 m 366 87 l 369 87 l 369 667 l 187 667 l 187 87 l 366 87 m 203 777 q 218 762 203 777 q 277 746 233 746 q 351 777 320 746 q 382 850 382 808 q 351 924 382 892 q 277 955 320 955 q 203 924 233 955 q 174 850 174 892 q 203 777 174 808 m 1042 87 l 1042 404 q 1034 515 1042 469 q 1004 601 1025 562 q 937 661 982 640 q 827 681 892 681 q 720 654 765 681 q 656 589 675 627 l 654 589 l 654 667 l 480 667 l 480 87 l 662 87 l 662 374 q 684 483 662 442 q 768 524 705 524 q 822 510 800 524 q 850 469 844 496 q 860 422 857 442 q 863 369 863 401 l 863 87 l 1042 87 z "},"":{"ha":1215,"x_min":0,"x_max":1215,"o":"m 1085 1128 q 1177 1090 1139 1128 q 1215 998 1215 1053 l 1215 43 q 1177 -49 1215 -11 q 1085 -87 1139 -87 l 130 -87 q 38 -49 76 -87 q 0 43 0 -11 l 0 998 q 38 1090 0 1053 q 130 1128 76 1128 l 1085 1128 m 751 87 q 970 251 887 133 q 1053 518 1053 369 q 921 829 1053 703 q 602 955 789 955 q 289 829 415 955 q 163 518 163 703 q 247 251 163 369 q 467 87 331 133 q 499 109 499 81 q 498 155 499 111 q 496 220 496 198 q 483 216 491 217 q 452 214 475 214 q 410 218 429 214 q 372 236 391 222 q 345 274 353 250 q 296 339 326 326 q 277 358 296 339 q 298 366 277 366 q 366 320 342 363 q 499 282 412 241 q 526 342 505 323 q 450 354 477 347 q 389 380 423 361 q 340 439 355 399 q 326 540 326 480 q 369 646 326 600 q 372 768 345 700 q 419 761 388 773 q 475 735 450 749 l 496 722 q 609 735 551 735 q 722 722 667 735 q 747 736 732 727 q 796 760 762 746 q 846 768 830 773 q 852 646 873 703 q 898 540 898 597 q 882 439 898 480 q 830 380 865 399 q 768 354 795 361 q 692 342 741 347 q 722 260 722 317 q 722 167 722 222 q 722 109 722 111 q 751 87 722 81 m 495 262 q 496 258 495 262 q 487 254 496 255 q 476 259 477 252 q 483 266 475 266 q 495 262 494 269 m 461 255 q 450 263 461 263 q 439 255 439 263 q 450 250 439 250 q 461 255 461 250 m 415 269 q 423 259 426 266 q 412 255 420 252 q 404 264 401 258 q 415 269 407 271 m 391 274 q 387 285 393 277 q 374 288 380 293 q 377 274 372 282 q 391 274 385 269 m 366 298 q 366 309 372 301 q 355 312 361 317 q 355 302 350 309 q 366 298 361 296 m 339 326 q 349 324 345 320 q 347 334 353 328 q 338 335 342 339 q 339 326 334 331 m 328 345 q 326 353 331 347 q 317 350 320 353 q 323 345 315 347 q 328 345 328 339 z "},"":{"ha":1389,"x_min":0,"x_max":1389,"o":"m 1245 803 q 1248 768 1248 792 q 1194 481 1248 624 q 1040 221 1139 339 q 784 30 941 103 q 437 -43 627 -43 q 0 84 198 -43 q 68 81 30 81 q 423 203 266 81 q 256 259 328 203 q 157 399 184 315 q 209 396 184 396 q 285 404 247 396 q 168 458 220 418 q 87 557 117 499 q 57 684 57 616 l 57 689 q 184 651 117 654 q 57 890 57 738 q 98 1034 57 966 q 357 822 203 901 q 684 735 510 743 q 678 800 678 768 q 761 1001 678 917 q 960 1085 844 1085 q 1169 996 1085 1085 q 1351 1063 1267 1015 q 1226 906 1318 963 q 1389 952 1308 917 q 1245 803 1329 865 z "},"":{"ha":1389,"x_min":22,"x_max":1367,"o":"m 1367 521 q 1204 83 1367 271 q 800 -144 1042 -106 l 800 326 l 958 326 l 987 521 l 800 521 l 800 648 q 909 751 800 751 l 993 751 l 993 917 q 844 930 917 930 q 709 901 765 930 q 621 811 654 871 q 589 670 589 751 l 589 521 l 418 521 l 418 326 l 589 326 l 589 -144 q 184 83 347 -106 q 22 521 22 271 q 218 997 22 800 q 694 1194 415 1194 q 1171 997 974 1194 q 1367 521 1367 800 z "},"":{"ha":1345,"x_min":0,"x_max":1345,"o":"m 450 138 q 437 127 450 127 q 420 138 420 125 q 434 146 420 146 q 450 138 450 149 m 377 136 q 365 149 361 138 q 382 155 369 160 q 393 141 396 152 q 377 136 391 130 m 486 155 q 500 146 499 155 q 488 133 502 138 q 473 141 475 130 q 486 155 472 152 m 665 1194 q 1006 1107 849 1194 q 1255 868 1164 1020 q 1345 532 1345 716 q 1219 129 1345 307 q 890 -117 1093 -49 q 856 -111 868 -122 q 844 -84 844 -100 q 844 4 844 -81 q 844 144 844 90 q 798 269 844 231 q 890 282 857 277 q 971 307 922 288 q 1046 355 1020 326 q 1090 439 1072 385 q 1109 570 1109 494 q 1093 654 1109 621 q 1039 727 1077 686 q 1034 911 1072 811 q 960 902 1006 920 q 879 863 914 884 l 846 838 q 674 863 762 863 q 505 838 586 863 q 467 864 491 849 q 392 899 442 879 q 317 911 342 920 q 309 727 277 811 q 247 570 247 659 q 266 439 247 494 q 309 355 285 385 q 380 307 334 326 q 460 281 426 288 q 551 269 494 274 q 507 176 515 236 q 452 160 480 165 q 380 171 423 155 q 309 233 336 187 q 267 281 293 263 q 222 301 241 298 l 206 304 q 201 263 146 304 q 239 228 220 252 q 266 184 258 203 l 277 163 q 315 109 288 130 q 374 81 342 87 q 437 76 407 76 q 486 79 467 76 l 505 81 q 506 -16 505 49 q 507 -84 507 -81 q 495 -111 507 -100 q 461 -117 483 -122 q 127 129 255 -49 q 0 532 0 307 q 191 1004 0 814 q 665 1194 382 1194 m 263 258 q 277 255 269 263 q 279 241 285 247 q 266 244 274 236 q 263 258 258 252 m 233 279 q 247 282 239 285 q 252 271 255 277 q 241 269 250 263 q 233 279 231 274 m 323 184 q 339 182 328 193 q 345 163 350 171 q 326 165 336 155 q 323 184 315 176 m 290 222 q 307 217 298 231 q 307 201 315 206 q 292 208 298 195 q 290 222 285 220 z "},"":{"ha":1345,"x_min":0,"x_max":1345,"o":"m 1149 997 q 1247 899 1149 997 q 1345 521 1345 800 q 1149 45 1345 241 q 673 -152 952 -152 q 475 -122 570 -152 q 556 54 540 -14 l 600 214 q 659 160 616 182 q 754 138 703 138 q 1002 259 903 138 q 1101 556 1101 380 q 982 833 1101 722 q 686 944 863 944 q 362 825 480 944 q 244 537 244 705 q 282 381 244 458 q 380 277 320 304 q 401 285 399 269 q 411 321 404 290 q 420 361 418 353 q 415 380 423 372 q 366 534 366 442 q 449 739 366 651 q 670 827 532 827 q 873 750 795 827 q 952 553 952 673 q 924 393 952 464 q 846 283 895 323 q 741 244 798 244 q 659 281 689 244 q 640 366 629 317 q 662 442 646 393 q 686 528 678 491 q 694 591 694 564 q 686 637 694 616 q 658 671 678 659 q 610 684 637 684 q 524 637 559 684 q 488 521 488 591 q 490 498 488 510 q 492 476 491 486 q 496 457 494 467 q 500 442 499 448 q 505 431 502 437 q 507 423 507 426 l 510 420 q 429 87 442 141 q 429 -106 415 19 q 118 138 236 -33 q 0 521 0 309 q 197 997 0 800 q 673 1194 393 1194 q 1149 997 952 1194 z "},"":{"ha":1215,"x_min":0,"x_max":1215,"o":"m 1215 998 l 1215 43 q 1177 -49 1215 -11 q 1085 -87 1139 -87 l 418 -87 q 494 73 477 11 l 534 233 q 594 179 551 201 q 686 157 637 157 q 865 212 787 157 q 989 361 944 266 q 1034 570 1034 456 q 916 845 1034 735 q 621 955 798 955 q 300 837 418 955 q 182 551 182 719 q 220 399 182 475 q 317 293 258 323 q 339 304 336 285 q 347 336 339 307 q 358 377 355 366 q 353 396 361 388 q 304 548 304 458 q 387 751 304 665 q 605 838 469 838 q 806 762 727 838 q 884 567 884 686 q 856 410 884 480 q 780 301 827 339 q 673 263 732 263 q 594 298 624 263 q 575 382 564 334 q 595 460 581 412 q 620 544 610 507 q 629 605 629 581 q 562 697 629 686 q 448 632 488 708 q 426 537 426 591 q 427 505 426 521 q 431 476 429 488 q 437 456 434 464 q 442 442 439 448 l 445 437 q 414 305 431 380 q 389 203 396 231 q 373 133 382 176 q 362 73 363 90 q 359 27 361 57 q 359 -26 358 -3 q 363 -84 361 -49 l 372 -87 l 130 -87 q 38 -49 76 -87 q 0 43 0 -11 l 0 998 q 38 1090 0 1053 q 130 1128 76 1128 l 1085 1128 q 1177 1090 1139 1128 q 1215 998 1215 1053 z "},"":{"ha":1215,"x_min":0,"x_max":1215,"o":"m 1085 1128 q 1177 1090 1139 1128 q 1215 998 1215 1053 l 1215 43 q 1177 -49 1215 -11 q 1085 -87 1139 -87 l 130 -87 q 38 -49 76 -87 q 0 43 0 -11 l 0 998 q 38 1090 0 1053 q 130 1128 76 1128 l 1085 1128 m 445 250 q 633 323 562 250 q 705 515 705 396 q 700 559 705 537 l 445 559 l 445 467 l 600 467 q 553 388 591 426 q 445 350 515 350 q 361 373 399 350 q 300 435 323 396 q 277 521 277 475 q 326 642 277 591 q 445 692 374 692 q 553 651 510 692 l 627 722 q 445 792 551 792 q 254 712 334 792 q 174 521 174 632 q 254 330 174 410 q 445 250 334 250 m 1042 472 l 1042 551 l 963 551 l 963 629 l 884 629 l 884 551 l 806 551 l 806 472 l 884 472 l 884 393 l 963 393 l 963 472 l 1042 472 z "},"":{"ha":1736,"x_min":33,"x_max":1704,"o":"m 1047 597 q 1055 510 1055 551 q 917 142 1055 285 q 556 0 779 0 q 187 152 339 0 q 35 521 35 304 q 187 890 35 738 q 556 1042 339 1042 q 903 906 760 1042 l 762 770 q 556 849 681 849 q 395 806 469 849 q 277 686 320 762 q 233 521 233 610 q 328 289 233 385 q 556 193 423 193 q 765 266 692 193 q 852 415 838 339 l 556 415 l 556 597 l 1047 597 m 1549 578 l 1701 578 l 1701 426 l 1549 426 l 1549 274 l 1397 274 l 1397 426 l 1248 426 l 1248 578 l 1397 578 l 1397 730 l 1549 730 l 1549 578 z "},"":{"ha":1215,"x_min":0,"x_max":1215,"o":"m 271 0 l 19 0 l 19 811 l 271 811 l 271 0 m 146 922 q 43 966 87 922 q 0 1069 0 1009 q 43 1172 0 1128 q 146 1215 87 1215 q 218 1196 184 1215 q 273 1143 252 1177 q 293 1070 293 1109 q 273 997 293 1031 q 218 943 252 963 q 146 922 184 922 m 1215 0 l 963 0 l 963 396 q 960 471 963 442 q 947 536 958 499 q 907 591 936 572 q 833 610 879 610 q 712 553 743 610 q 681 401 681 496 l 681 0 l 429 0 l 429 811 l 673 811 l 673 700 l 675 700 q 765 793 703 754 q 914 833 827 833 q 1067 804 1006 833 q 1160 720 1128 776 q 1203 600 1191 665 q 1215 445 1215 534 l 1215 0 z "},"":{"ha":1302,"x_min":0,"x_max":1302,"o":"m 479 423 q 492 399 479 423 q 505 323 505 374 q 479 222 505 271 q 404 174 453 174 q 349 201 372 174 q 316 260 326 228 q 307 323 307 293 q 332 423 307 374 q 406 472 358 472 q 479 423 453 472 m 1302 461 q 1253 203 1302 301 q 1192 115 1229 152 q 1100 57 1156 79 q 1001 23 1044 35 q 883 7 958 11 q 776 1 808 3 q 667 0 743 0 q 571 0 591 0 q 477 4 551 0 q 372 14 404 8 q 278 34 339 19 q 184 71 217 49 q 114 126 152 92 q 54 203 76 160 q 0 461 0 312 q 114 768 0 637 q 92 901 92 833 q 130 1042 92 963 q 292 1020 225 1042 q 426 944 358 998 q 667 971 540 971 q 884 947 781 971 q 1019 1021 952 1001 q 1177 1042 1085 1042 q 1218 901 1218 963 q 1196 770 1218 833 q 1302 461 1302 646 m 1128 323 q 1074 483 1128 418 q 928 548 1020 548 q 776 532 895 548 q 654 524 719 524 q 532 532 589 524 q 380 548 415 548 q 233 483 288 548 q 179 323 179 418 q 205 203 179 255 q 269 123 231 152 q 363 77 307 95 q 472 54 420 60 q 589 49 524 49 l 719 49 q 865 58 800 49 q 994 95 930 68 q 1093 180 1058 122 q 1128 323 1128 239 m 830 423 q 844 448 830 423 q 905 472 857 472 q 978 423 952 472 q 1004 323 1004 374 q 978 222 1004 271 q 905 174 952 174 q 830 222 857 174 q 803 323 803 271 q 830 423 803 374 z "},"":{"ha":1389,"x_min":0,"x_max":1416,"o":"m 1251 14 l 987 14 l 1128 673 q 1115 742 1137 716 q 1050 768 1093 768 l 917 768 l 754 14 l 491 14 l 651 768 l 426 768 l 263 14 l 0 14 l 163 768 l 41 1028 l 1050 1028 q 1316 906 1218 1028 q 1381 618 1416 784 l 1251 14 z "},"":{"ha":1042,"x_min":0,"x_max":1042,"o":"m 0 1128 l 1042 1128 l 947 54 l 521 -87 l 95 54 l 0 1128 m 836 781 l 849 911 l 195 911 l 228 515 l 681 515 l 665 347 l 521 309 l 374 347 l 363 450 l 236 450 l 252 244 l 521 171 l 524 171 l 787 244 l 825 648 l 347 648 l 336 781 l 836 781 z "},"":{"ha":1389,"x_min":0,"x_max":1302,"o":"m 1302 1128 l 1128 130 l 524 -87 l 0 130 l 54 388 l 277 388 l 255 277 l 570 157 l 933 277 l 985 540 l 81 540 l 125 762 l 1028 762 l 1058 906 l 152 906 l 198 1128 l 1302 1128 z "},"":{"ha":1042,"x_min":8,"x_max":1053,"o":"m 841 556 q 1031 285 1050 507 q 918 81 1015 141 q 643 11 822 22 l 643 -174 l 510 -174 l 510 8 q 407 8 442 8 l 407 -174 l 274 -174 l 274 11 q 11 11 250 11 l 38 168 q 65 168 46 168 q 129 167 111 165 q 163 179 146 168 q 182 212 179 190 l 182 800 q 142 853 174 844 q 33 860 111 863 q 11 860 19 860 l 11 1001 q 274 1001 239 998 l 274 1215 l 407 1215 l 407 1004 q 510 1006 475 1006 l 510 1215 l 643 1215 l 643 1001 q 738 986 694 996 q 821 960 781 977 q 887 920 860 944 q 932 859 914 895 q 952 779 949 822 q 841 556 968 621 m 410 849 l 410 589 q 438 587 412 589 q 477 587 464 586 q 519 589 491 589 q 567 593 548 589 q 612 602 586 597 q 654 618 637 608 q 685 643 670 629 q 708 675 700 656 q 716 719 716 694 q 704 774 716 751 q 667 812 692 798 q 620 836 643 827 q 560 846 597 844 q 503 850 524 849 q 448 850 483 852 q 410 849 412 849 m 410 168 q 444 167 412 168 q 491 167 475 165 q 541 170 507 168 q 597 175 575 171 q 648 184 618 179 q 697 202 678 190 q 734 228 716 214 q 761 263 751 241 q 770 312 770 285 q 755 373 770 347 q 712 414 741 399 q 658 439 684 429 q 587 453 632 450 q 521 457 543 456 q 456 457 499 458 q 410 456 412 456 l 410 168 z "},"":{"ha":1563,"x_min":38,"x_max":1525,"o":"m 1492 879 q 1507 798 1500 846 q 1516 701 1514 749 q 1520 613 1519 654 q 1522 545 1522 572 l 1522 521 q 1492 160 1522 277 q 1443 79 1478 114 q 1359 30 1408 43 q 1164 9 1308 16 q 901 0 1020 3 l 781 0 q 203 30 317 0 q 71 160 98 60 q 50 302 57 212 q 41 456 43 393 l 41 521 q 71 879 41 762 q 119 963 84 928 q 203 1012 155 998 q 399 1032 255 1025 q 662 1042 543 1039 l 781 1042 q 1359 1012 1245 1042 q 1443 963 1408 998 q 1492 879 1478 928 m 629 298 l 1017 521 l 629 741 l 629 298 z "},"":{"ha":1042,"x_min":-5,"x_max":1047,"o":"m 442 646 q 252 309 442 646 q 203 277 231 277 l 27 277 q 4 289 11 277 q 3 315 -3 301 l 190 646 l 71 852 q 71 878 62 865 q 95 890 79 890 l 271 890 q 320 857 301 890 l 442 646 m 1039 1090 l 648 404 l 895 -49 q 897 -75 903 -62 q 873 -87 890 -87 l 694 -87 q 646 -54 665 -87 l 396 404 q 441 483 399 410 q 581 728 483 556 q 789 1096 678 901 q 836 1128 808 1128 l 1015 1128 q 1038 1116 1031 1128 q 1039 1090 1044 1104 z "},"":{"ha":1215,"x_min":0,"x_max":1215,"o":"m 1085 1128 q 1177 1090 1139 1128 q 1215 998 1215 1053 l 1215 43 q 1177 -49 1215 -11 q 1085 -87 1139 -87 l 130 -87 q 38 -49 76 -87 q 0 43 0 -11 l 0 998 q 38 1090 0 1053 q 130 1128 76 1128 l 1085 1128 m 380 347 q 415 372 401 347 q 551 610 545 602 l 464 760 q 429 784 450 784 l 304 784 q 286 776 290 784 q 288 757 282 768 l 372 610 l 239 374 q 239 355 233 363 q 255 347 244 347 l 380 347 m 977 928 q 977 947 982 939 q 960 955 971 955 l 833 955 q 800 930 814 955 q 518 437 524 445 l 697 111 q 732 87 711 87 l 860 87 q 876 95 871 87 q 876 114 882 103 l 697 437 l 977 928 z "},"":{"ha":1432,"x_min":0,"x_max":1432,"o":"m 716 901 l 358 670 l 716 442 l 358 214 l 0 445 l 358 673 l 0 901 l 358 1128 l 716 901 m 358 141 l 716 372 l 1074 141 l 716 -87 l 358 141 m 716 445 l 1074 673 l 716 901 l 1074 1128 l 1432 901 l 1074 670 l 1432 442 l 1074 214 l 716 445 z "},"":{"ha":1042,"x_min":5,"x_max":1036,"o":"m 789 372 l 765 266 l 236 377 l 258 483 l 789 372 m 928 608 l 857 524 l 442 873 l 510 955 l 928 608 m 841 499 l 798 401 l 304 629 l 350 730 l 841 499 m 711 1128 l 1034 694 l 947 629 l 624 1063 l 711 1128 m 765 239 l 765 130 l 222 130 l 222 239 l 765 239 m 873 22 l 873 347 l 982 347 l 982 -87 l 8 -87 l 8 347 l 117 347 l 117 22 l 873 22 z "},"":{"ha":1215,"x_min":-3,"x_max":1218,"o":"m 387 742 q 432 787 387 742 q 608 833 477 833 q 829 742 738 833 q 920 521 920 651 q 829 300 920 391 q 608 209 738 209 q 387 300 477 209 q 296 521 296 391 q 387 742 296 651 m 464 377 q 494 347 464 377 q 608 317 524 317 q 751 377 692 317 q 811 521 811 437 q 751 665 811 605 q 608 724 692 724 q 464 665 524 724 q 404 521 404 605 q 464 377 404 437 m 983 897 q 994 886 983 897 q 1004 846 1004 876 q 983 795 1004 817 q 933 773 963 773 q 882 795 903 773 q 860 846 860 817 q 882 897 860 876 q 933 917 903 917 q 983 897 963 917 m 1213 770 q 1215 521 1215 697 q 1213 271 1215 345 q 1114 15 1204 106 q 857 -81 1023 -76 q 608 -87 784 -87 q 358 -81 431 -87 q 103 16 193 -73 q 46 92 68 49 q 15 176 24 136 q 5 271 5 217 q 0 521 0 345 q 5 773 0 697 q 103 1025 14 936 q 358 1126 193 1118 q 608 1128 431 1128 q 857 1126 784 1128 q 1114 1027 1023 1118 q 1213 770 1204 936 m 1082 163 q 1096 218 1090 184 q 1104 300 1101 252 q 1107 377 1107 347 q 1107 461 1107 407 q 1107 522 1107 515 q 1107 582 1107 529 q 1107 665 1107 635 q 1104 742 1107 694 q 1096 823 1101 789 q 1082 879 1090 857 q 966 996 1050 963 q 910 1009 944 1004 q 829 1017 876 1015 q 753 1020 781 1020 q 669 1020 724 1020 q 608 1020 613 1020 q 548 1020 602 1020 q 464 1020 494 1020 q 387 1017 434 1020 q 305 1009 339 1015 q 250 996 271 1004 q 133 879 165 963 q 119 823 125 857 q 111 742 114 789 q 109 666 109 694 q 109 582 109 637 q 109 521 109 526 q 109 471 109 510 q 109 406 109 431 q 110 339 109 380 q 114 270 111 298 q 122 212 117 241 q 133 163 127 182 q 250 46 168 79 q 305 33 271 38 q 387 24 339 27 q 463 22 434 22 q 547 22 491 22 q 608 22 602 22 q 669 22 616 22 q 751 22 722 22 q 829 24 781 22 q 910 33 876 27 q 966 46 944 38 q 1082 163 1050 81 z "},"":{"ha":1215,"x_min":0,"x_max":1215,"o":"m 1085 1128 q 1177 1090 1139 1128 q 1215 998 1215 1053 l 1215 43 q 1177 -49 1215 -11 q 1085 -87 1139 -87 l 130 -87 q 38 -49 76 -87 q 0 43 0 -11 l 0 998 q 38 1090 0 1053 q 130 1128 76 1128 l 1085 1128 m 270 400 q 295 375 270 400 q 392 350 320 350 q 514 400 464 350 q 564 522 564 450 q 514 644 564 594 q 392 694 464 694 q 270 644 320 694 q 220 522 220 594 q 270 400 220 450 m 701 400 q 726 375 701 400 q 823 350 751 350 q 945 400 895 350 q 996 522 996 450 q 945 644 996 594 q 823 694 895 694 q 701 644 751 694 q 651 522 651 594 q 701 400 651 450 z "},"":{"ha":1345,"x_min":0,"x_max":1345,"o":"m 673 760 l 849 494 l 496 494 l 673 760 m 1149 997 q 1247 899 1149 997 q 1345 521 1345 800 q 1149 45 1345 241 q 673 -152 952 -152 q 197 45 393 -152 q 0 521 0 241 q 197 997 0 800 q 673 1194 393 1194 q 1149 997 952 1194 m 1074 296 l 673 901 l 271 296 l 353 296 l 445 437 l 901 437 l 993 296 l 1074 296 z "},"":{"ha":1389,"x_min":16,"x_max":1373,"o":"m 60 1128 l 1326 1128 q 1335 1128 1329 1128 q 1348 1122 1343 1126 q 1359 1112 1354 1118 q 1367 1100 1364 1107 q 1370 1085 1370 1093 q 1370 1077 1370 1082 l 1185 -54 q 1171 -79 1183 -68 q 1142 -90 1158 -90 l 258 -90 q 221 -75 239 -90 q 201 -41 203 -60 l 16 1077 q 16 1085 16 1082 q 28 1116 16 1104 q 60 1128 41 1128 m 836 320 l 903 719 l 477 719 l 553 320 l 836 320 z "},"":{"ha":868,"x_min":19,"x_max":852,"o":"m 841 -87 q 736 -148 808 -122 q 575 -174 665 -174 q 377 -136 461 -174 q 252 -35 293 -98 q 194 87 212 27 q 176 209 176 146 l 176 600 l 49 600 q 22 627 22 600 l 22 811 q 52 854 22 844 q 220 982 165 892 q 282 1172 274 1072 q 326 1215 285 1215 l 515 1215 q 543 1188 543 1215 l 543 876 l 770 876 q 798 849 798 876 l 798 627 q 770 600 798 600 l 543 600 l 543 239 q 590 137 543 165 q 727 141 637 109 q 762 146 751 152 q 781 125 776 144 l 841 -49 q 841 -87 852 -76 z "},"":{"ha":1215,"x_min":0,"x_max":1215,"o":"m 1085 1128 q 1177 1090 1139 1128 q 1215 998 1215 1053 l 1215 43 q 1177 -49 1215 -11 q 1085 -87 1139 -87 l 130 -87 q 38 -49 76 -87 q 0 43 0 -11 l 0 998 q 38 1090 0 1053 q 130 1128 76 1128 l 1085 1128 m 863 141 q 863 165 868 146 l 825 274 q 814 288 822 285 q 792 285 806 290 q 705 281 735 263 q 675 345 675 298 l 675 570 l 817 570 q 833 586 833 570 l 833 727 q 817 743 833 743 l 675 743 l 675 939 q 659 955 675 955 l 540 955 q 513 928 515 955 q 369 730 502 776 q 350 703 350 722 l 350 586 q 366 570 350 570 l 448 570 l 448 326 q 458 250 448 288 q 495 174 469 212 q 572 111 521 136 q 697 87 624 87 q 863 141 811 87 z "},"":{"ha":1042,"x_min":8,"x_max":1034,"o":"m 865 486 q 1031 236 865 315 q 920 24 998 133 q 754 -87 841 -84 q 654 -62 716 -87 q 545 -38 591 -38 q 435 -62 499 -38 q 342 -87 372 -87 q 216 -22 282 -90 q 110 119 149 46 q 49 252 71 193 q 11 472 11 366 q 104 738 11 643 q 323 836 198 833 q 439 808 363 836 q 532 781 515 781 q 571 791 543 781 q 629 812 600 800 q 699 833 659 825 q 770 838 738 841 q 1001 716 925 825 q 865 486 863 635 m 711 933 q 524 838 624 830 q 591 1034 513 947 q 675 1099 624 1072 q 776 1128 727 1126 q 711 933 784 1020 z "},"":{"ha":1215,"x_min":0,"x_max":1215,"o":"m 0 960 l 499 1031 l 499 548 l 0 548 l 0 960 m 0 81 l 0 488 l 499 488 l 499 11 l 0 81 m 553 5 l 553 488 l 1215 488 l 1215 -87 l 553 5 m 553 1036 l 1215 1128 l 1215 548 l 553 548 l 553 1036 z "},"":{"ha":1563,"x_min":0,"x_max":1563,"o":"m 1187 415 q 1177 406 1187 415 q 1141 396 1166 396 q 1096 415 1115 396 q 1077 461 1077 434 q 1096 507 1077 488 q 1141 526 1115 526 q 1187 507 1166 526 q 1207 461 1207 488 q 1187 415 1207 434 m 467 415 q 457 406 467 415 q 422 396 448 396 q 376 415 396 396 q 355 461 355 434 q 376 507 355 488 q 422 526 396 526 q 467 507 448 526 q 486 461 486 488 q 467 415 486 434 m 1164 789 l 1294 1015 q 1299 1028 1299 1020 q 1272 1055 1299 1055 q 1248 1042 1256 1055 l 1115 811 q 1012 849 1072 833 q 891 875 952 865 q 781 884 830 884 q 610 863 708 884 q 448 811 513 841 l 315 1042 q 290 1055 307 1055 q 263 1028 263 1055 q 269 1015 263 1020 l 399 789 q 122 534 228 697 q 0 174 16 372 l 1563 174 q 1440 534 1546 372 q 1164 789 1335 697 z "},"":{"ha":1215,"x_min":24,"x_max":1185,"o":"m 600 882 l 594 882 l 589 884 q 591 890 589 887 q 608 887 597 892 q 616 880 616 884 q 608 876 616 876 q 602 879 605 876 q 600 882 600 882 m 540 876 q 532 879 532 876 q 540 887 532 884 q 556 887 551 892 q 557 886 559 887 q 551 882 556 884 q 548 882 548 882 q 545 879 548 882 q 540 876 543 876 m 1139 119 q 1183 38 1183 71 q 1145 -11 1180 11 q 1100 -31 1131 -16 q 1046 -62 1069 -46 q 1006 -98 1023 -79 q 873 -174 947 -168 q 765 -111 800 -179 q 760 -92 762 -103 q 677 -87 727 -95 q 608 -81 627 -79 q 568 -85 589 -81 q 534 -92 548 -90 q 505 -98 521 -95 q 477 -100 488 -100 q 407 -155 458 -144 q 255 -125 339 -171 q 205 -109 233 -114 q 144 -99 176 -103 q 95 -92 111 -95 q 41 -60 54 -84 q 46 27 27 -30 q 43 84 52 41 q 41 117 41 106 q 49 149 41 136 q 98 190 62 176 q 146 212 136 203 q 164 237 149 217 q 190 266 179 258 q 206 410 179 331 q 363 673 247 534 q 426 849 418 749 q 423 906 426 863 q 419 983 420 949 q 429 1063 418 1017 q 460 1141 439 1109 q 525 1194 480 1172 q 637 1215 570 1215 q 743 1190 700 1215 q 804 1124 787 1164 q 833 1038 822 1085 q 842 944 844 990 q 844 860 841 898 q 857 784 841 822 q 887 724 873 746 q 933 665 901 703 q 1058 461 1023 556 q 1069 247 1104 347 q 1080 241 1074 244 q 1090 233 1085 239 q 1120 174 1109 220 q 1139 119 1131 130 m 608 979 q 600 920 594 949 q 635 906 621 914 q 640 951 629 930 q 667 971 651 971 q 692 944 684 968 q 692 895 700 920 q 681 884 689 895 q 713 871 705 876 q 727 979 754 917 q 666 1023 705 1023 q 608 979 627 1023 m 496 1009 q 450 954 458 1009 q 475 868 442 898 q 491 882 491 882 q 488 884 491 882 q 476 928 475 898 q 494 960 477 958 q 509 952 502 960 q 518 932 515 944 q 521 906 521 920 q 548 920 532 914 q 534 983 551 958 q 496 1009 518 1009 m 458 846 q 448 811 442 833 q 488 770 456 789 q 514 750 496 765 q 543 730 532 735 q 570 724 553 724 q 632 742 597 722 q 673 765 667 762 q 732 814 722 779 q 705 863 746 846 q 674 875 694 868 q 643 887 654 882 q 572 911 605 911 q 499 873 540 911 q 458 846 496 873 m 469 -60 q 418 42 472 -30 q 358 125 363 114 l 304 222 q 244 266 277 260 q 195 247 217 271 q 178 224 190 241 q 157 198 165 206 q 106 171 141 184 q 65 141 76 160 q 62 87 57 125 q 65 22 71 38 q 57 -52 46 -30 q 99 -73 65 -68 q 182 -85 133 -79 q 263 -109 231 -92 q 396 -138 328 -149 q 469 -60 464 -127 m 464 8 q 625 -30 548 -38 q 776 30 703 -22 q 792 109 792 87 q 806 217 798 184 q 863 290 819 274 q 966 323 871 366 q 1028 252 1042 290 l 1042 252 q 958 347 1058 307 q 955 445 968 393 q 860 605 933 540 q 868 586 849 605 q 929 487 903 553 q 930 355 955 420 q 901 361 914 361 q 838 534 887 445 q 735 795 770 659 q 675 754 716 768 q 663 749 670 751 q 647 739 656 746 q 632 730 637 732 q 518 732 567 692 q 503 746 515 735 q 483 760 491 757 q 467 773 477 765 q 457 709 464 743 q 435 640 450 675 q 410 578 420 605 q 382 514 399 551 q 361 467 366 477 q 323 298 326 382 q 331 524 258 385 q 353 581 363 583 q 279 418 293 483 q 279 323 266 366 q 347 241 296 274 q 450 155 415 203 q 472 87 480 114 q 426 62 461 62 q 464 8 453 30 m 1164 41 q 1126 109 1164 65 q 1108 144 1115 119 q 1096 190 1101 168 q 1080 220 1090 212 q 1017 233 1061 236 q 970 199 1001 214 q 914 190 939 184 q 863 269 868 201 q 860 269 860 269 q 822 212 833 255 q 811 106 817 182 q 784 -5 811 98 q 781 -103 768 -68 q 873 -155 811 -160 q 993 -87 939 -149 q 1061 -34 1017 -57 q 1133 5 1104 -11 q 1164 41 1161 22 m 469 811 q 467 830 458 822 q 473 823 469 830 q 477 817 477 817 q 499 798 491 803 q 564 770 532 770 q 646 798 597 770 q 684 825 651 803 q 693 834 689 827 q 700 838 697 841 q 692 822 711 838 q 651 792 673 803 q 567 765 597 765 q 491 792 529 765 q 469 811 483 800 z "},"":{"ha":1389,"x_min":22,"x_max":1367,"o":"m 218 997 q 317 1095 218 997 q 694 1194 415 1194 q 1171 997 974 1194 q 1367 521 1367 800 q 1171 45 1367 241 q 694 -152 974 -152 q 218 45 415 -152 q 22 521 22 241 q 218 997 22 800 m 1139 884 q 1097 836 1123 863 q 993 751 1072 808 q 819 656 914 694 q 868 543 844 602 q 1270 526 1066 570 q 1139 884 1267 727 m 1074 949 q 833 1078 968 1044 q 559 1080 697 1112 q 773 743 675 925 q 940 827 865 776 q 1038 905 1015 879 q 1074 949 1061 930 m 450 1039 q 304 941 369 1001 q 194 804 239 882 q 133 637 149 727 q 662 708 388 635 q 450 1039 564 884 m 119 521 q 269 136 119 298 q 388 293 315 217 q 559 431 461 369 q 757 521 656 494 q 711 618 738 570 q 119 537 418 532 q 119 521 119 529 m 342 68 q 624 -52 467 -33 q 920 -8 781 -71 q 798 426 884 201 q 511 270 632 372 q 342 68 391 168 m 1015 43 q 1261 429 1223 184 q 903 453 1090 483 q 1015 43 982 236 z "},"":{"ha":1215,"x_min":0,"x_max":1218,"o":"m 1153 401 q 1215 217 1215 320 q 1126 3 1215 92 q 911 -87 1036 -87 q 727 -24 808 -87 q 608 -35 667 -35 q 214 127 377 -35 q 52 521 52 290 q 62 640 52 578 q 0 825 0 722 q 90 1039 0 949 q 304 1128 179 1128 q 488 1066 407 1128 q 608 1077 548 1077 q 1001 914 838 1077 q 1164 521 1164 751 q 1153 401 1164 464 m 624 155 q 837 216 746 155 q 928 388 928 277 q 681 600 928 543 q 637 608 667 602 q 572 624 591 618 q 530 639 553 629 q 500 659 507 648 q 494 689 494 670 q 608 749 494 749 q 696 727 662 749 q 755 682 730 705 q 811 659 781 659 q 846 666 830 659 q 872 685 863 673 q 888 712 882 697 q 895 746 895 727 q 803 853 895 811 q 593 895 711 895 q 387 841 475 895 q 298 675 298 787 q 302 621 298 646 q 319 578 307 597 q 342 545 331 559 q 377 518 353 532 q 414 496 401 505 q 460 479 426 488 q 507 465 494 469 q 563 452 521 461 q 618 439 605 442 q 681 422 665 426 q 715 403 697 418 q 732 363 732 388 q 700 311 732 331 q 616 290 667 290 q 529 309 567 290 q 473 351 491 328 q 430 393 456 374 q 377 412 404 412 q 319 389 339 412 q 298 331 298 366 q 395 206 298 258 q 624 155 491 155 z "},"":{"ha":998,"x_min":0,"x_max":1009,"o":"m 876 1207 q 982 1164 955 1207 q 990 1031 1009 1120 l 860 372 q 849 336 854 347 q 831 304 844 326 q 796 273 819 282 q 738 263 773 263 l 513 263 q 494 255 502 263 q 138 -157 488 247 q 49 -176 103 -198 q 0 -95 0 -157 l 0 1082 q 34 1168 0 1128 q 136 1207 68 1207 l 876 1207 m 833 1006 q 825 1040 836 1025 q 795 1055 814 1055 l 201 1055 q 170 1040 182 1055 q 157 1009 157 1025 l 157 90 q 163 90 157 84 l 404 382 q 435 411 423 404 q 477 418 448 418 l 675 418 q 699 425 689 418 q 713 439 708 431 q 722 453 719 448 q 751 613 732 513 q 743 647 757 632 q 711 662 730 662 l 467 662 q 427 678 442 662 q 412 719 412 694 l 412 754 q 416 776 412 765 q 427 793 420 787 q 445 804 434 800 q 467 808 456 808 l 754 808 q 770 812 762 808 q 785 821 779 817 q 796 831 792 825 q 800 846 800 838 l 833 1006 z "},"":{"ha":1215,"x_min":-3,"x_max":1215,"o":"m 1063 1128 q 1171 1084 1126 1128 q 1215 977 1215 1039 l 1215 65 q 1195 -11 1215 24 q 1139 -66 1175 -46 q 1063 -87 1104 -87 l 152 -87 q 45 -42 90 -87 q 0 65 0 3 q 0 868 0 529 l 0 977 q 45 1084 0 1039 q 152 1128 90 1128 l 1063 1128 m 534 209 l 534 898 q 513 949 534 928 q 461 971 491 971 l 236 971 q 184 949 206 971 q 163 898 163 928 l 163 209 q 174 171 163 187 q 201 145 184 155 q 236 136 217 136 l 461 136 q 513 157 491 136 q 534 209 534 179 m 1058 513 l 1058 898 q 1036 949 1058 928 q 985 971 1015 971 l 765 971 q 728 960 746 971 q 701 933 711 949 q 692 898 692 917 l 692 513 q 703 475 692 491 q 730 449 713 458 q 765 439 746 439 l 985 439 q 1036 461 1015 439 q 1058 513 1058 483 z "},"":{"ha":1345,"x_min":0,"x_max":1345,"o":"m 197 997 q 295 1095 197 997 q 673 1194 393 1194 q 1149 997 952 1194 q 1345 521 1345 800 q 1149 45 1345 241 q 673 -152 952 -152 q 197 45 393 -152 q 0 521 0 241 q 197 997 0 800 m 985 581 q 1000 616 993 594 q 1008 666 1006 637 q 993 724 1009 694 q 947 776 977 754 q 840 793 884 806 q 762 743 795 781 q 678 707 730 708 q 594 743 627 705 q 515 793 562 781 q 407 776 469 806 q 355 705 369 749 q 350 631 342 662 q 372 581 358 600 l 678 165 l 985 581 z "},"":{"ha":1563,"x_min":49,"x_max":1530,"o":"m 1478 895 q 1415 762 1470 854 q 1313 601 1359 670 q 1264 529 1267 532 q 1248 494 1248 505 q 1264 456 1248 483 q 1282 437 1264 456 q 1324 393 1299 418 q 1378 336 1348 369 q 1434 273 1408 304 q 1480 209 1459 241 q 1508 155 1500 176 q 1454 87 1527 87 l 1294 87 q 1261 92 1275 87 q 1232 111 1248 98 q 1202 141 1215 125 q 1161 187 1188 157 q 1107 244 1134 217 q 947 347 998 347 q 909 328 914 347 q 903 220 903 309 q 906 149 906 176 q 884 102 906 117 q 789 87 863 87 q 532 163 662 87 q 304 380 401 239 q 151 628 212 505 q 71 817 90 751 q 52 909 52 882 q 106 955 52 955 l 266 955 q 311 941 296 955 q 336 892 326 928 q 476 597 393 727 q 602 467 559 467 q 625 479 618 467 q 632 526 632 491 l 632 762 q 618 827 629 800 q 597 867 608 854 q 576 892 586 879 q 567 917 567 906 q 572 936 567 928 q 587 949 578 944 q 608 955 597 955 l 860 955 q 903 895 903 955 l 903 581 q 929 534 903 534 q 1004 583 955 534 q 1104 722 1055 640 q 1177 857 1153 803 l 1202 909 q 1270 955 1221 955 l 1430 955 q 1478 895 1495 955 z "},"":{"ha":1389,"x_min":0,"x_max":1413,"o":"m 1104 732 q 1086 819 1120 781 q 1004 846 1053 857 q 958 860 974 841 q 948 905 941 879 q 982 936 955 930 q 1154 880 1085 958 q 1191 705 1223 803 q 1157 674 1183 678 q 1114 688 1131 670 q 1104 732 1096 705 m 583 3 q 176 106 353 3 q 0 374 0 209 q 206 762 0 556 q 564 968 401 958 q 692 871 684 977 q 678 779 694 833 q 711 762 670 749 q 972 796 873 836 q 1020 624 1072 757 q 1020 600 1015 605 q 1042 586 1025 594 q 1210 388 1221 532 q 1028 127 1202 244 q 583 3 844 3 m 871 195 q 928 241 871 195 q 972 400 985 288 q 831 582 960 513 q 529 632 703 651 q 243 524 355 616 q 141 319 130 431 q 281 137 152 206 q 583 87 410 68 q 871 195 757 103 m 944 1120 q 1195 1085 1080 1147 q 1362 901 1310 1023 q 1370 648 1413 779 q 1303 613 1354 597 q 1270 681 1253 629 q 1215 936 1316 825 q 966 1017 1115 1047 q 914 1032 933 1009 q 903 1084 895 1055 q 944 1120 911 1112 m 730 277 q 609 160 697 198 q 434 152 521 122 q 321 248 353 176 q 326 393 290 320 q 442 502 361 467 q 605 515 524 537 q 728 425 692 494 q 730 277 765 355 m 496 358 q 439 358 469 369 q 393 323 410 347 q 384 270 377 296 q 418 231 391 244 q 476 228 445 217 q 524 266 507 239 q 532 320 540 293 q 496 358 524 347 m 586 393 q 545 380 562 401 q 556 345 532 355 q 597 358 583 334 q 586 393 610 385 z "},"":{"ha":1389,"x_min":22,"x_max":1367,"o":"m 581 757 q 469 354 581 534 q 179 87 358 174 q 22 518 22 274 q 95 826 22 684 q 296 1062 168 968 q 581 1183 423 1156 l 581 757 m 692 -152 q 369 -71 521 -152 q 576 115 491 5 q 692 350 662 225 q 807 115 722 225 q 1015 -71 892 5 q 692 -152 865 -152 m 1210 87 q 1047 197 1120 127 q 921 351 974 266 q 838 541 868 437 q 808 757 808 646 l 808 1183 q 1207 955 1047 1142 q 1367 518 1367 768 q 1210 87 1367 274 z "},"":{"ha":1042,"x_min":-3,"x_max":1042,"o":"m 1042 366 q 933 210 1001 263 q 799 155 865 157 q 671 165 732 152 q 572 201 610 179 l 534 220 q 319 -46 450 52 q 33 -144 187 -144 q 0 -111 0 -144 q 33 -79 0 -79 q 273 1 163 -79 q 461 220 382 81 q 359 195 410 201 q 245 202 309 190 q 122 275 182 214 q 22 442 62 336 q 180 486 106 477 q 305 480 255 494 q 397 438 355 467 q 463 381 439 410 q 505 320 486 353 q 564 537 545 418 q 551 533 559 534 q 517 532 543 532 q 465 533 491 532 q 404 540 439 534 q 338 556 369 545 q 275 589 307 567 q 220 637 244 610 q 179 707 195 665 q 157 803 163 749 q 326 830 255 838 q 444 784 396 822 q 519 704 491 746 q 559 627 548 662 l 572 594 q 581 738 581 686 q 551 761 570 746 q 492 825 532 776 q 433 922 453 873 q 419 1044 412 971 q 477 1188 426 1118 q 624 1096 572 1153 q 682 981 675 1039 q 682 868 689 922 q 659 781 675 814 l 646 746 q 646 709 646 743 q 646 656 646 675 q 651 670 646 662 q 674 701 656 678 q 712 745 692 724 q 765 787 732 765 q 833 819 798 808 q 916 830 868 830 q 1015 811 963 830 q 971 643 1012 711 q 873 552 930 575 q 761 521 817 529 q 667 518 705 513 l 629 524 q 575 312 610 412 q 601 339 583 323 q 670 387 618 355 q 773 433 722 418 q 899 434 825 448 q 1042 366 974 420 z "},"":{"ha":1215,"x_min":46,"x_max":1169,"o":"m 49 315 l 1166 315 l 1166 255 q 1115 123 1166 176 q 990 71 1063 71 l 939 71 l 703 -174 l 703 71 l 225 71 q 100 123 152 71 q 49 255 49 176 l 49 315 m 49 377 l 49 608 l 1166 608 l 1166 377 l 49 377 m 49 675 l 49 906 l 1166 906 l 1166 675 l 49 675 m 990 1215 q 1115 1161 1063 1215 q 1166 1031 1166 1107 l 1166 971 l 49 971 l 49 1031 q 100 1161 49 1107 q 225 1215 152 1215 l 990 1215 z "},"":{"ha":1215,"x_min":0,"x_max":1215,"o":"m 1085 1128 q 1177 1090 1139 1128 q 1215 998 1215 1053 l 1215 43 q 1177 -49 1215 -11 q 1085 -87 1139 -87 l 130 -87 q 38 -49 76 -87 q 0 43 0 -11 l 0 998 q 38 1090 0 1053 q 130 1128 76 1128 l 1085 1128 m 1042 722 q 914 895 1050 892 q 670 692 735 903 q 755 704 711 716 q 792 632 800 692 q 735 502 789 589 q 629 429 662 388 q 553 746 597 469 q 511 856 543 822 q 429 884 480 890 q 391 873 412 884 q 340 840 369 863 q 292 799 312 817 q 232 746 271 781 q 174 694 193 711 l 214 643 q 282 684 271 684 q 315 667 301 684 q 345 604 328 651 q 373 518 361 556 q 407 391 385 480 q 437 285 426 323 q 564 146 488 146 q 863 374 686 146 q 1042 722 1036 597 z "},"":{"ha":1215,"x_min":0,"x_max":1215,"o":"m 255 361 q 217 270 255 307 q 127 233 179 233 q 38 270 76 233 q 0 359 0 307 q 38 450 0 412 q 127 488 76 488 l 255 488 l 255 361 m 320 361 q 357 450 320 412 q 446 488 393 488 q 537 450 499 488 q 575 361 575 412 l 575 41 q 537 -49 575 -11 q 446 -87 499 -87 q 357 -49 393 -87 q 320 41 320 -11 l 320 361 m 448 873 q 357 911 393 873 q 320 1001 320 949 q 357 1090 320 1053 q 446 1128 393 1128 q 537 1090 499 1128 q 575 1001 575 1053 l 575 873 l 448 873 m 448 808 q 537 772 499 808 q 575 682 575 735 q 537 591 575 629 q 448 553 499 553 l 127 553 q 38 591 76 553 q 0 681 0 629 q 18 746 0 716 q 64 792 35 776 q 127 808 92 808 l 448 808 m 960 681 q 998 772 960 735 q 1088 808 1036 808 q 1177 772 1139 808 q 1215 682 1215 735 q 1177 591 1215 629 q 1088 553 1139 553 l 960 553 l 960 681 m 895 681 q 859 591 895 629 q 769 553 822 553 q 678 591 716 553 q 640 681 640 629 l 640 1001 q 678 1090 640 1053 q 768 1128 716 1128 q 833 1111 803 1128 q 879 1065 863 1093 q 895 1001 895 1036 l 895 681 m 768 168 q 859 130 822 168 q 895 41 895 92 q 859 -49 895 -11 q 769 -87 822 -87 q 678 -49 716 -87 q 640 41 640 -11 l 640 168 l 768 168 m 768 233 q 678 270 716 233 q 640 359 640 307 q 678 450 640 412 q 768 488 716 488 l 1088 488 q 1177 450 1139 488 q 1215 359 1215 412 q 1177 270 1215 307 q 1088 233 1139 233 l 768 233 z "},"":{"ha":1389,"x_min":22,"x_max":1367,"o":"m 168 757 l 442 3 q 206 213 296 73 q 117 521 117 353 q 168 757 117 643 m 1085 551 q 1042 363 1085 505 l 982 171 l 776 792 l 841 798 q 861 823 863 800 q 836 844 860 846 q 684 838 743 838 l 532 844 q 509 834 515 846 q 507 810 502 822 q 526 798 513 798 q 589 792 556 792 l 678 545 l 551 165 l 342 792 l 407 798 q 429 823 431 800 q 404 844 426 846 q 250 838 309 838 q 212 838 233 838 q 418 1028 290 958 q 694 1099 545 1099 q 1085 947 920 1099 q 1077 947 1080 947 q 1008 916 1036 947 q 979 844 979 884 q 1036 708 979 800 q 1085 551 1085 627 m 705 469 l 882 -16 q 887 -24 884 -19 q 694 -57 792 -57 q 532 -33 613 -57 l 705 469 m 1202 798 q 1272 521 1272 670 q 1194 231 1272 363 q 985 22 1115 98 l 1161 532 q 1204 738 1204 640 q 1202 798 1204 770 m 1171 997 q 1269 899 1171 997 q 1367 521 1367 800 q 1171 45 1367 241 q 694 -152 974 -152 q 218 45 415 -152 q 22 521 22 241 q 218 997 22 800 q 694 1194 415 1194 q 1171 997 974 1194 m 1149 66 q 1243 161 1149 66 q 1337 521 1337 255 q 1149 975 1337 787 q 694 1164 960 1164 q 240 975 429 1164 q 52 521 52 787 q 240 66 52 255 q 694 -122 429 -122 q 1149 66 960 -122 z "},"":{"ha":1215,"x_min":0,"x_max":1215,"o":"m 738 43 l 553 -43 q 159 90 317 -22 q 0 353 0 201 q 148 606 0 496 q 521 743 296 716 l 521 627 q 278 526 372 602 q 184 353 184 450 q 289 171 184 250 q 551 73 393 92 l 551 996 l 735 1085 l 735 43 l 738 43 m 1215 426 l 860 505 l 960 559 q 770 627 879 608 l 770 743 q 1096 637 958 722 l 1191 689 l 1215 426 z "},"":{"ha":1215,"x_min":57,"x_max":1158,"o":"m 684 423 l 694 -174 q 608 -163 632 -163 q 518 -174 583 -163 l 529 423 q 456 552 499 475 q 380 686 412 629 q 304 818 347 743 q 224 954 260 892 q 144 1084 187 1015 q 57 1215 100 1153 q 149 1204 98 1204 q 241 1215 193 1204 q 608 602 328 1061 q 712 773 632 643 q 856 1010 792 903 q 974 1215 920 1118 q 1063 1204 1015 1204 q 1156 1215 1115 1204 q 684 423 1055 1074 z "},"":{"ha":1324,"x_min":0,"x_max":1324,"o":"m 1324 505 q 1143 33 1324 217 q 673 -152 963 -152 q 197 45 393 -152 q 0 521 0 241 q 197 997 0 800 q 673 1194 393 1194 q 1123 1017 936 1194 l 941 841 q 734 940 854 925 q 509 910 613 955 q 330 761 404 865 q 255 521 255 656 q 377 220 255 345 q 673 95 499 95 q 842 126 768 95 q 959 205 917 157 q 1024 298 1001 252 q 1055 385 1047 345 l 673 385 l 673 618 l 1313 618 q 1324 505 1324 559 z "},"":{"ha":1389,"x_min":22,"x_max":1367,"o":"m 594 406 q 585 395 594 406 q 547 385 575 385 q 499 406 518 385 q 480 453 480 426 q 499 500 480 480 q 547 521 518 521 q 594 500 575 521 q 613 453 613 480 q 594 406 613 426 m 1171 997 q 1269 899 1171 997 q 1367 521 1367 800 q 1171 45 1367 241 q 694 -152 974 -152 q 218 45 415 -152 q 22 521 22 241 q 218 997 22 800 q 694 1194 415 1194 q 1171 997 974 1194 m 1009 632 q 944 605 971 632 q 711 678 846 673 l 757 890 l 909 857 q 928 808 909 827 q 975 789 947 789 q 1023 810 1004 789 q 1042 857 1042 830 q 1023 905 1042 884 q 974 925 1004 925 q 914 887 933 925 l 749 925 q 730 911 735 928 l 678 678 q 445 605 543 673 q 380 632 420 632 q 311 600 336 632 q 293 525 285 567 q 342 461 301 483 q 336 420 336 442 q 442 237 336 312 q 694 163 548 163 q 834 183 768 163 q 949 237 901 203 q 1025 320 998 271 q 1053 420 1053 369 q 1050 464 1053 442 q 1097 525 1090 483 q 1078 600 1104 567 q 1009 632 1053 632 m 822 317 q 844 317 833 328 q 844 293 857 304 q 694 247 798 247 q 545 293 591 247 q 545 317 532 304 q 567 317 556 328 q 693 281 602 282 q 822 317 784 279 m 841 521 q 890 500 871 521 q 909 453 909 480 q 890 406 909 426 q 842 385 871 385 q 795 406 814 385 q 776 453 776 426 q 784 487 776 472 q 808 511 792 502 q 841 521 825 521 z "},"":{"ha":1215,"x_min":0,"x_max":1215,"o":"m 768 277 q 768 252 781 266 q 608 203 719 203 q 448 252 496 203 q 448 277 434 266 q 472 277 458 290 q 608 239 510 239 q 743 277 705 239 q 768 277 757 290 m 521 423 q 499 373 521 393 q 448 353 477 353 q 397 373 418 353 q 377 423 377 393 q 397 475 377 453 q 448 496 418 496 q 499 475 477 496 q 521 423 521 453 m 768 496 q 818 475 798 496 q 838 423 838 453 q 818 373 838 393 q 768 353 798 353 q 716 373 738 353 q 694 423 694 393 q 716 475 694 453 q 768 496 738 496 m 1215 998 l 1215 43 q 1177 -49 1215 -11 q 1085 -87 1139 -87 l 130 -87 q 38 -49 76 -87 q 0 43 0 -11 l 0 998 q 38 1090 0 1053 q 130 1128 76 1128 l 1085 1128 q 1177 1090 1139 1128 q 1215 998 1215 1053 m 944 616 q 876 589 906 616 q 624 665 770 662 l 675 895 l 836 857 q 846 822 836 838 q 873 796 857 806 q 909 787 890 787 q 960 807 939 787 q 982 857 982 827 q 960 909 982 887 q 909 930 939 930 q 844 890 865 930 l 665 930 q 646 917 651 933 l 591 665 q 342 586 445 659 q 271 616 312 616 q 194 581 222 616 q 175 500 165 545 q 228 434 184 456 q 222 388 222 412 q 336 193 222 274 q 608 111 450 111 q 880 193 768 111 q 993 388 993 274 q 987 434 993 415 q 1040 500 1031 456 q 1021 581 1050 545 q 944 616 993 616 z "},"":{"ha":1345,"x_min":22,"x_max":1367,"o":"m 218 997 q 317 1095 218 997 q 694 1194 415 1194 q 1171 997 974 1194 q 1367 521 1367 800 q 1171 45 1367 241 q 694 -152 974 -152 q 218 45 415 -152 q 22 521 22 241 q 218 997 22 800 m 661 697 q 668 704 661 697 q 694 711 675 711 q 728 697 713 711 q 743 665 743 684 l 743 608 l 806 581 l 898 608 l 898 670 q 838 810 898 751 q 694 868 779 868 q 551 811 610 868 q 491 673 491 754 l 491 380 q 477 345 491 358 q 444 331 464 331 q 410 345 423 331 q 396 380 396 358 l 396 502 l 239 502 l 239 377 q 298 233 239 293 q 442 174 358 174 q 586 232 526 174 q 646 374 646 290 l 646 665 q 661 697 646 684 m 1150 377 q 1150 502 1150 377 l 993 502 l 993 372 q 979 339 993 353 q 945 326 966 326 q 911 339 925 326 q 898 372 898 353 l 898 499 l 806 472 l 743 502 l 743 374 q 803 232 743 290 q 947 174 863 174 q 1048 201 1001 174 q 1123 275 1096 228 q 1150 377 1150 323 z "},"":{"ha":1389,"x_min":0,"x_max":1364,"o":"m 1364 494 l 1364 304 q 1275 90 1364 179 q 1059 0 1185 0 q 844 88 933 0 q 754 301 754 176 l 754 491 l 846 448 l 987 491 l 987 298 q 1008 248 987 269 q 1058 228 1028 228 q 1109 248 1088 228 q 1131 298 1131 269 l 1131 494 l 1364 494 m 754 651 l 754 735 q 734 787 754 765 q 682 808 713 808 q 631 787 651 808 q 610 735 610 765 l 610 301 q 521 88 610 176 q 304 0 431 0 q 90 90 179 0 q 0 304 0 179 l 0 494 l 233 494 l 233 307 q 255 256 233 277 q 307 236 277 236 q 334 241 320 236 q 357 256 347 247 q 372 279 366 266 q 377 307 377 293 l 377 749 q 468 956 377 871 q 682 1042 559 1042 q 897 955 806 1042 q 987 746 987 868 l 987 648 l 846 608 l 754 651 z "},"":{"ha":1215,"x_min":0,"x_max":1218,"o":"m 1210 1031 q 1215 998 1215 1017 l 1215 43 q 1177 -49 1215 -11 q 1085 -87 1139 -87 l 130 -87 q 98 -84 114 -87 q 43 -54 68 -76 q 33 -43 38 -49 q 16 -19 24 -33 q 4 11 8 -5 q 0 43 0 27 l 0 998 q 38 1090 0 1053 q 130 1128 76 1128 l 1085 1128 q 1118 1123 1101 1128 q 1133 1120 1126 1123 q 1147 1112 1139 1118 q 1158 1105 1153 1109 q 1166 1099 1164 1101 q 1185 1080 1177 1090 q 1199 1063 1194 1074 q 1207 1042 1204 1053 q 1210 1031 1210 1034 m 1128 43 l 1128 521 l 608 521 l 608 1042 l 130 1042 q 99 1029 111 1042 q 87 998 87 1017 l 87 521 l 608 521 l 608 0 l 1085 0 q 1116 12 1104 0 q 1128 43 1128 24 z "},"":{"ha":1389,"x_min":0,"x_max":1389,"o":"m 222 749 l 222 955 l 361 955 l 361 274 l 0 274 l 0 749 l 222 749 m 222 385 l 222 637 l 138 637 l 138 385 l 222 385 m 1028 749 l 1389 749 l 1389 87 l 1028 87 l 1028 198 l 1251 198 l 1251 274 l 1028 274 l 1028 749 m 1251 385 l 1251 637 l 1166 637 l 1166 385 l 1251 385 m 610 274 l 610 749 l 971 749 l 971 87 l 610 87 l 610 198 l 833 198 l 833 274 l 610 274 m 749 637 l 749 385 l 833 385 l 833 637 l 749 637 m 415 955 l 556 955 l 556 817 l 415 817 l 415 955 m 415 749 l 556 749 l 556 274 l 415 274 l 415 749 z "},"":{"ha":1215,"x_min":0,"x_max":1215,"o":"m 532 814 q 544 799 532 814 q 556 742 556 784 q 532 669 556 700 q 472 637 507 637 q 423 648 442 637 l 423 833 q 472 844 442 844 q 532 814 507 844 m 700 559 q 761 529 735 559 q 787 457 787 499 q 761 384 787 415 q 700 353 735 353 q 654 363 670 353 l 654 548 q 700 559 673 559 m 1215 998 l 1215 43 q 1177 -49 1215 -11 q 1085 -87 1139 -87 l 130 -87 q 38 -49 76 -87 q 0 43 0 -11 l 0 998 q 38 1090 0 1053 q 130 1128 76 1128 l 1085 1128 q 1177 1090 1139 1128 q 1215 998 1215 1053 m 502 524 q 644 587 586 524 q 703 738 703 651 q 675 848 703 798 q 602 926 648 898 q 502 955 556 955 q 407 930 453 955 l 285 930 l 285 372 l 423 399 l 423 537 q 502 524 461 524 m 872 302 q 901 334 872 302 q 930 456 930 366 q 872 608 930 545 q 732 670 814 670 q 705 667 716 670 q 654 578 689 616 q 513 510 594 515 l 513 87 l 654 114 l 654 252 q 730 239 686 239 q 872 302 814 239 z "},"":{"ha":1563,"x_min":19,"x_max":1544,"o":"m 662 548 l 586 532 l 583 545 q 608 551 591 545 q 635 556 624 556 q 662 548 648 556 m 1031 11 q 1048 -1 1039 11 q 1070 -35 1058 -14 q 1090 -73 1082 -57 q 1108 -113 1099 -90 q 1120 -138 1118 -136 q 833 -165 982 -190 l 814 -43 q 917 -5 844 -22 q 1031 11 990 11 m 925 735 q 818 742 917 746 q 656 708 719 738 q 727 768 678 749 q 779 795 754 776 q 814 825 803 814 q 852 867 825 836 q 887 906 879 898 q 910 880 898 898 q 936 852 922 863 q 971 844 949 841 l 971 784 l 990 784 q 1278 930 1183 857 q 1317 963 1299 949 q 1351 991 1335 977 q 1377 1016 1367 1006 q 1400 1043 1386 1025 q 1419 1066 1413 1061 q 1438 1095 1424 1072 q 1455 1124 1451 1118 q 1476 1161 1459 1131 q 1500 1202 1492 1191 l 1506 1210 q 1470 1101 1503 1166 q 1072 784 1351 852 q 1053 781 1063 784 q 1031 777 1042 779 q 1009 774 1020 776 q 989 769 998 773 q 971 760 979 765 q 990 726 974 746 q 1006 700 1006 705 q 987 675 1006 689 q 925 735 939 730 m 1508 1215 l 1506 1213 l 1506 1210 l 1506 1213 l 1508 1215 m 1345 179 q 1408 94 1373 136 q 1466 31 1443 52 q 1544 -38 1489 11 q 1458 -84 1506 -62 q 1351 -129 1411 -106 q 1264 -165 1291 -152 q 1187 -16 1215 -125 q 1146 194 1158 92 q 1088 377 1134 296 q 960 458 1042 458 q 947 453 952 456 q 958 442 952 450 q 975 427 963 437 q 993 414 987 418 q 1006 401 998 410 q 1019 389 1015 393 q 1028 377 1023 385 q 1036 363 1034 369 q 1043 349 1039 358 q 1048 330 1047 339 q 1051 309 1050 320 q 1053 282 1053 298 l 1053 258 q 1025 84 1055 222 q 921 75 1006 87 q 814 76 836 62 q 814 129 814 92 q 817 190 814 165 q 861 243 817 198 q 906 307 906 288 q 871 288 887 309 q 784 210 844 247 q 678 174 724 174 q 633 206 662 174 q 578 277 605 239 q 519 355 551 315 q 472 407 488 396 q 450 431 467 412 q 49 345 79 345 q 28 353 38 345 q 19 374 19 361 q 43 407 19 401 l 423 488 q 415 510 418 502 q 423 525 412 518 q 441 534 434 532 q 463 540 448 537 q 480 543 477 543 q 492 548 483 543 q 505 553 502 553 q 543 515 529 553 q 678 543 673 543 q 711 515 708 543 q 686 483 713 488 l 543 450 l 543 439 q 606 347 543 418 q 686 277 670 277 q 780 339 724 277 q 836 439 836 401 q 818 480 836 467 q 779 495 800 494 q 739 503 757 496 q 722 529 722 510 q 727 556 722 543 l 675 572 q 705 708 719 616 q 817 722 768 722 q 890 719 865 722 q 932 703 914 716 q 954 680 949 689 q 971 633 958 670 q 996 572 985 597 l 1034 591 q 1006 540 1031 553 q 960 524 982 526 q 939 507 939 521 l 939 491 q 1051 476 998 494 q 1143 431 1104 458 q 1222 357 1183 404 q 1287 273 1261 309 q 1345 179 1313 236 m 814 54 l 838 54 l 846 -11 l 814 -19 l 814 54 m 627 461 l 665 472 l 749 334 l 694 296 l 627 461 m 857 41 q 906 49 876 43 q 960 57 936 54 q 1017 60 985 60 q 1020 46 1020 46 q 1006 35 1020 41 q 971 26 993 30 q 929 18 949 22 q 887 11 909 14 q 863 8 865 8 l 857 41 z "},"":{"ha":1215,"x_min":87,"x_max":1128,"o":"m 868 903 q 925 860 892 890 q 1009 770 958 830 q 1095 617 1061 711 q 1128 418 1128 524 q 977 54 1128 195 q 613 -87 825 -87 q 244 61 401 -87 q 87 429 87 209 q 122 621 87 529 q 209 770 157 713 q 298 859 260 827 q 361 903 336 890 q 505 993 469 963 q 564 1126 556 1031 q 692 996 651 1023 q 780 949 722 977 q 868 903 838 922 m 873 22 q 876 46 887 35 q 863 43 871 49 q 713 5 811 5 q 637 15 673 5 q 589 33 602 24 l 575 43 q 555 31 562 43 q 556 11 548 19 q 722 -30 613 -38 q 873 22 830 -22 m 727 163 q 680 133 705 155 q 665 95 654 111 q 697 109 673 87 q 770 138 735 138 q 808 130 795 138 q 825 113 822 122 q 831 98 827 103 q 841 95 836 92 q 848 130 857 109 q 825 160 838 152 q 777 171 811 171 q 727 163 743 171 m 977 117 q 1074 212 1039 111 q 1072 382 1115 326 q 1020 404 1053 404 q 910 347 993 404 q 798 290 827 290 q 724 323 770 290 q 620 389 678 355 q 505 423 562 423 q 392 388 439 423 q 326 307 345 353 q 316 212 307 260 q 363 136 326 163 q 484 111 415 98 q 608 156 553 125 q 719 220 662 187 q 800 250 776 252 q 892 183 827 250 q 977 117 958 117 z "},"":{"ha":1215,"x_min":0,"x_max":1215,"o":"m 3 966 q 50 1081 3 1034 q 163 1128 98 1128 q 270 1089 225 1128 q 326 993 315 1050 q 586 911 472 1025 l 467 792 q 382 830 420 830 q 316 800 345 830 q 288 730 288 770 q 315 659 288 689 l 586 388 l 467 269 q 283 450 328 404 q 195 540 239 496 q 123 665 141 591 q 127 808 106 738 q 38 864 73 819 q 3 966 3 909 m 353 651 q 624 920 586 882 q 749 991 675 974 q 890 987 822 1009 q 944 1088 898 1047 q 1053 1128 990 1128 q 1165 1081 1118 1128 q 1213 966 1213 1034 q 1172 859 1213 903 q 1072 803 1131 814 q 993 529 1115 651 l 873 651 q 914 732 914 694 q 884 800 914 770 q 814 830 854 830 q 743 800 773 830 q 472 529 716 773 l 353 651 m 1074 236 q 1175 183 1134 228 q 1215 76 1215 138 q 1168 -39 1215 8 q 1053 -87 1120 -87 q 981 -69 1015 -87 q 924 -22 947 -52 q 892 43 901 8 q 747 41 825 22 q 616 119 670 60 l 735 239 q 817 201 779 201 q 884 231 854 201 q 914 301 914 260 q 884 372 914 342 l 613 643 l 735 762 q 1004 491 982 515 q 1074 236 1112 382 m 846 380 q 663 197 716 250 q 578 111 610 144 q 320 41 469 3 q 290 -26 312 3 q 235 -71 269 -54 q 163 -87 201 -87 q 47 -39 95 -87 q 0 76 0 8 q 35 178 0 133 q 125 233 71 222 q 206 502 87 382 l 326 380 q 288 298 288 336 q 315 231 288 260 q 387 201 345 201 q 456 231 429 201 q 727 502 697 469 l 846 380 z "},"":{"ha":1563,"x_min":0,"x_max":1563,"o":"m 629 572 q 806 328 806 524 q 708 119 806 190 q 467 49 610 49 l 0 49 l 0 1012 l 453 1012 q 760 773 760 1012 q 629 572 760 635 m 212 846 l 212 621 l 426 621 q 553 738 553 621 q 410 846 553 846 l 212 846 m 437 212 q 594 339 594 212 q 442 477 594 477 l 212 477 l 212 212 l 437 212 m 1411 865 l 1020 865 l 1020 960 l 1411 960 l 1411 865 m 1563 388 q 1560 353 1563 374 l 1058 353 q 1103 220 1058 266 q 1229 174 1147 174 q 1290 184 1259 174 q 1347 216 1321 195 q 1381 266 1373 236 l 1549 266 q 1223 33 1473 33 q 964 133 1061 33 q 868 396 868 233 q 967 661 868 556 q 1223 765 1066 765 q 1472 656 1381 765 q 1563 388 1563 548 m 1058 472 l 1370 472 q 1218 621 1356 621 q 1107 581 1150 621 q 1058 472 1063 540 z "},"":{"ha":1215,"x_min":0,"x_max":1215,"o":"m 505 420 q 420 353 505 353 l 298 353 l 298 494 l 423 494 q 505 420 505 494 m 486 643 q 415 581 486 581 l 298 581 l 298 703 l 407 703 q 486 643 486 703 m 844 581 q 928 499 920 581 l 757 499 q 783 559 760 537 q 844 581 806 581 m 1215 998 l 1215 43 q 1177 -49 1215 -11 q 1085 -87 1139 -87 l 130 -87 q 38 -49 76 -87 q 0 43 0 -11 l 0 998 q 38 1090 0 1053 q 130 1128 76 1128 l 1085 1128 q 1177 1090 1139 1128 q 1215 998 1215 1053 m 738 713 l 949 713 l 949 765 l 738 765 l 738 713 m 621 415 q 526 553 621 526 q 597 654 597 589 q 429 784 597 784 l 184 784 l 184 263 l 437 263 q 568 301 515 263 q 621 415 621 339 m 1031 456 q 982 601 1031 543 q 848 659 933 659 q 708 602 762 659 q 654 458 654 545 q 667 378 654 415 q 705 316 681 342 q 766 275 730 290 q 846 260 803 260 q 1025 388 982 260 l 933 388 q 901 353 925 366 q 852 339 876 339 q 760 434 760 339 l 1031 434 q 1031 456 1031 453 z "},"":{"ha":1345,"x_min":0,"x_max":1345,"o":"m 1345 521 q 1256 183 1345 339 q 1010 -62 1166 27 q 673 -152 854 -152 q 263 -15 442 -152 q 24 336 84 122 l 282 231 q 347 122 296 165 q 469 79 399 79 q 605 137 548 79 q 659 277 662 195 l 887 439 q 1072 513 996 437 q 1147 694 1147 589 q 1073 873 1147 800 q 894 947 998 947 q 715 873 789 947 q 640 694 640 800 l 640 692 l 480 458 q 361 426 415 461 l 0 575 q 214 1015 22 836 q 673 1194 407 1194 q 1149 997 952 1194 q 1345 521 1345 800 m 423 174 q 503 174 464 157 q 560 231 543 190 q 560 311 578 271 q 505 366 543 350 l 418 401 q 524 401 472 423 q 602 323 578 377 q 601 214 624 269 q 524 137 578 160 q 412 136 469 114 q 339 206 363 157 l 423 174 m 1013 575 q 988 551 1013 575 q 894 526 963 526 q 774 575 825 526 q 724 694 724 624 q 774 814 724 765 q 894 863 825 863 q 1013 814 963 863 q 1063 694 1063 765 q 1013 575 1063 624 m 804 605 q 823 586 804 605 q 894 567 841 567 q 983 605 947 567 q 1020 694 1020 643 q 983 784 1020 746 q 894 822 947 822 q 804 784 841 822 q 768 694 768 746 q 804 605 768 643 z "},"":{"ha":1215,"x_min":0,"x_max":1215,"o":"m 449 195 q 467 203 449 195 q 502 248 486 212 q 503 323 518 285 q 450 377 488 361 l 369 410 q 467 410 418 429 q 540 336 518 388 q 540 233 562 285 q 467 161 518 182 q 363 163 415 141 q 296 228 317 182 l 374 195 q 449 195 412 179 m 1085 1128 q 1177 1090 1139 1128 q 1215 998 1215 1053 l 1215 43 q 1177 -49 1215 -11 q 1085 -87 1139 -87 l 130 -87 q 38 -49 76 -87 q 0 43 0 -11 l 0 350 l 241 250 q 274 176 250 209 q 336 125 298 144 q 418 106 374 106 q 544 160 491 106 q 594 293 597 214 l 808 445 q 981 513 909 442 q 1053 684 1053 583 q 983 850 1053 781 q 815 920 914 920 q 647 850 716 920 q 578 684 578 781 l 578 681 l 426 461 q 317 431 366 467 l 0 562 l 0 998 q 38 1090 0 1053 q 130 1128 76 1128 l 1085 1128 m 926 572 q 903 549 926 572 q 814 526 879 526 q 703 572 749 526 q 656 684 656 618 q 703 795 656 749 q 814 841 749 841 q 926 795 879 841 q 974 684 974 749 q 926 572 974 618 m 814 564 q 899 600 865 564 q 933 684 933 635 q 899 768 933 732 q 815 803 865 803 q 730 768 765 803 q 694 684 694 732 q 711 624 694 651 q 754 581 727 597 q 814 564 781 564 z "},"":{"ha":1345,"x_min":0,"x_max":1345,"o":"m 197 997 q 295 1095 197 997 q 673 1194 393 1194 q 1149 997 952 1194 q 1345 521 1345 800 q 1149 45 1345 241 q 673 -152 952 -152 q 197 45 393 -152 q 0 521 0 241 q 197 997 0 800 m 947 203 q 975 216 963 203 q 987 244 987 228 q 960 290 987 274 q 317 361 700 445 q 282 315 282 353 q 293 286 282 298 q 323 274 304 274 q 355 279 328 274 q 917 214 692 350 q 947 203 933 203 m 1020 382 q 1057 397 1042 382 q 1072 434 1072 412 q 1042 488 1072 469 q 562 610 833 610 q 296 575 426 610 q 252 518 252 562 q 269 481 252 496 q 307 467 285 467 q 339 472 312 467 q 682 492 510 515 q 985 393 854 469 q 1020 382 1006 382 m 1104 589 q 1147 606 1128 589 q 1166 651 1166 624 q 1131 713 1166 692 q 575 844 909 844 q 255 800 396 844 q 209 738 209 787 q 227 692 209 711 q 271 673 244 673 q 307 678 279 673 q 697 705 469 727 q 1069 600 925 684 q 1104 589 1085 589 z "},"":{"ha":868,"x_min":0,"x_max":868,"o":"m 868 963 l 602 477 l 621 450 l 868 450 l 868 103 l 431 103 l 396 79 l 277 -149 q 252 -174 277 -149 l 0 -174 l 0 79 l 252 567 l 233 591 l 0 591 l 0 939 l 423 939 l 461 963 l 578 1191 l 602 1215 l 868 1215 l 868 963 z "},"":{"ha":1736,"x_min":0,"x_max":1736,"o":"m 301 521 l 317 345 l 301 157 q 290 146 301 146 q 279 157 279 146 l 263 345 l 279 521 q 290 532 279 532 q 301 521 301 532 m 361 643 q 374 629 374 643 l 388 345 l 374 157 q 361 144 374 144 q 347 157 347 144 l 334 345 l 347 629 q 361 643 347 643 m 429 708 q 445 694 445 708 l 458 342 l 445 157 q 429 144 445 144 q 415 157 415 144 l 401 342 l 415 694 q 429 708 415 708 m 14 439 q 19 448 14 448 q 27 439 24 448 l 41 345 l 27 250 q 19 241 24 241 q 14 250 14 241 l 0 345 l 14 439 m 84 507 q 92 499 90 507 l 111 345 l 92 190 q 84 184 90 184 q 76 193 76 184 l 60 345 l 76 499 q 84 507 76 507 m 144 529 q 152 537 144 537 q 160 529 160 537 l 179 345 l 160 165 q 152 157 160 157 q 144 165 144 157 l 127 345 l 144 529 m 212 534 q 221 543 212 543 q 231 534 231 543 l 250 345 l 231 160 q 221 149 231 149 q 212 160 212 149 l 195 345 l 212 534 m 876 844 q 887 825 887 838 l 898 342 l 887 168 q 865 146 887 146 q 841 168 841 146 l 836 255 l 830 342 l 841 822 l 841 825 q 849 844 841 836 q 865 849 854 849 q 876 844 871 849 m 803 803 q 814 784 814 798 l 822 342 l 814 184 l 814 165 q 806 152 814 157 q 792 144 800 144 q 773 152 781 144 q 770 165 770 157 l 762 345 l 768 781 l 770 784 q 779 803 770 798 q 792 806 787 806 q 803 803 798 806 m 486 724 q 500 741 486 741 q 518 724 515 741 l 532 345 l 518 163 q 502 146 515 146 q 486 163 486 146 l 472 345 l 486 724 m 1522 572 q 1674 509 1611 572 q 1736 358 1736 445 q 1674 206 1736 269 q 1522 144 1611 144 l 930 144 q 906 171 906 146 l 906 846 q 928 873 906 865 q 1063 898 993 898 q 1320 799 1213 898 q 1440 553 1427 700 q 1522 572 1481 572 m 719 735 q 738 713 738 735 l 749 342 l 738 165 q 719 144 738 144 q 697 165 697 144 l 689 342 l 697 713 q 719 735 697 735 m 572 757 q 591 738 589 757 l 602 345 l 591 163 q 572 144 589 144 q 556 163 556 144 l 545 345 l 556 738 q 572 757 556 757 m 627 727 q 646 746 627 746 q 665 727 665 746 l 675 345 l 665 163 q 646 144 665 144 q 627 163 627 144 l 616 345 l 627 727 z "},"":{"ha":1042,"x_min":0,"x_max":1047,"o":"m 1042 524 l 1042 382 q 901 366 968 366 q 726 100 833 225 q 562 -57 618 -24 q 445 -54 505 -90 q 378 -5 415 -38 q 283 107 342 27 q 175 289 225 187 q 76 562 125 391 q 0 936 27 732 l 201 936 q 316 452 236 640 q 513 119 396 263 q 719 407 635 239 q 560 564 618 458 q 502 803 502 670 q 576 1027 502 939 q 779 1115 651 1115 q 952 1059 887 1115 q 1031 922 1017 1004 q 1036 762 1044 841 q 1001 624 1028 684 q 963 618 985 621 q 895 629 941 616 q 827 678 849 643 q 849 811 849 751 q 773 936 849 936 q 712 901 735 936 q 689 800 689 865 q 792 566 689 643 q 1042 524 895 488 z "},"":{"ha":1389,"x_min":0,"x_max":1392,"o":"m 1362 781 q 1389 732 1389 765 l 1389 309 q 1362 260 1389 277 l 727 -163 q 662 -163 694 -184 l 27 260 q 0 309 0 277 l 0 732 q 27 781 0 765 l 662 1204 q 727 1204 694 1226 l 1362 781 m 754 1044 l 754 765 l 1012 594 l 1221 732 l 754 1044 m 635 1044 l 168 732 l 377 594 l 635 765 l 635 1044 m 119 621 l 119 420 l 269 521 l 119 621 m 635 -3 l 635 277 l 377 448 l 168 309 l 635 -3 m 694 380 l 906 521 l 694 662 l 483 521 l 694 380 m 754 -3 l 1221 309 l 1012 448 l 754 277 l 754 -3 m 1270 420 l 1270 621 l 1120 521 l 1270 420 z "},"":{"ha":1563,"x_min":-3,"x_max":1565,"o":"m 1386 572 q 1520 429 1478 521 q 1538 239 1563 336 q 1500 144 1527 187 q 1435 69 1473 100 q 1348 20 1397 38 q 1245 3 1299 3 q 562 0 1150 0 q 315 3 361 0 q 137 68 217 5 q 30 222 57 130 q 31 408 0 317 q 141 562 62 499 q 155 586 157 572 q 244 795 138 719 q 475 819 347 871 q 496 808 475 819 q 673 982 564 920 q 869 1040 765 1034 q 1066 1013 974 1047 q 1233 906 1158 979 q 1343 732 1308 833 q 1367 600 1354 708 q 1386 572 1370 578 m 1443 146 q 1493 363 1522 244 q 1348 537 1465 483 q 1321 581 1321 551 q 1290 735 1318 662 q 1215 859 1261 808 q 1105 943 1169 909 q 974 989 1042 977 q 833 989 906 1001 q 697 941 760 977 q 532 773 589 882 q 521 757 526 762 q 509 751 515 751 q 499 751 502 751 q 486 758 496 751 q 472 768 475 765 q 277 760 369 822 q 203 589 182 694 q 176 526 212 548 q 72 385 98 475 q 84 212 46 296 q 342 49 157 49 q 787 49 787 43 q 1248 49 1204 49 q 1443 146 1364 52 m 1204 363 q 1141 258 1194 301 q 1023 214 1088 214 q 903 263 955 214 q 783 385 882 282 q 643 515 684 488 q 480 505 562 578 q 434 427 442 472 q 446 346 426 382 q 499 283 467 309 q 576 259 532 258 q 662 296 621 260 q 678 313 667 301 q 697 331 689 326 q 730 335 713 345 q 732 301 746 326 q 637 227 697 250 q 518 222 578 203 q 422 293 458 241 q 385 412 385 345 q 483 564 393 515 q 665 559 583 621 q 825 407 735 505 q 955 285 914 309 q 1059 266 1006 252 q 1142 331 1112 279 q 1158 430 1169 380 q 1109 509 1147 480 q 1023 543 1072 537 q 928 502 974 548 q 914 487 925 499 q 898 472 903 475 q 864 472 876 458 q 863 499 852 486 q 1088 575 955 627 q 1185 494 1153 553 q 1204 363 1218 434 z "},"":{"ha":1389,"x_min":27,"x_max":1359,"o":"m 694 -152 q 221 52 415 -152 q 35 537 27 255 q 122 842 41 700 q 353 1080 203 985 q 355 1080 355 1080 q 319 1035 345 1069 q 259 932 293 1001 q 210 789 225 863 q 218 627 195 716 q 317 464 241 537 q 373 422 345 437 q 425 404 401 407 q 469 406 448 401 q 507 418 491 410 q 536 435 524 426 q 553 450 548 445 l 562 458 q 594 519 583 486 q 606 585 605 553 q 604 648 608 616 q 593 708 600 681 q 578 755 586 735 q 564 787 570 776 l 559 800 q 517 857 548 830 q 461 895 486 884 l 434 909 l 513 996 q 551 974 532 987 q 583 945 570 960 q 608 918 597 930 q 624 898 618 906 l 629 890 q 617 967 632 925 q 586 1034 602 1009 l 570 1055 l 692 1194 l 811 1058 q 772 981 787 1023 q 754 914 757 939 l 754 887 q 770 913 760 901 q 792 936 781 925 q 815 956 803 947 q 837 972 827 966 q 854 985 846 979 q 865 993 863 990 l 871 996 l 949 909 q 884 871 914 898 q 838 822 854 844 l 825 800 q 789 699 803 757 q 784 571 776 640 q 827 456 792 502 q 867 416 844 429 q 911 403 890 404 q 956 407 933 401 q 998 422 979 412 q 1032 439 1017 431 q 1055 456 1047 448 l 1063 461 q 1168 620 1142 532 q 1175 785 1194 708 q 1126 929 1156 863 q 1066 1034 1096 996 l 1036 1072 q 1039 1080 1039 1077 q 1147 994 1107 1031 q 1242 891 1188 958 q 1324 732 1297 825 q 1354 524 1351 640 q 1172 38 1356 228 q 694 -152 987 -152 z "},"":{"ha":1345,"x_min":0,"x_max":1345,"o":"m 781 1069 q 689 1077 738 1077 l 689 1128 q 978 1046 846 1123 q 1191 838 1109 968 l 1147 814 q 1093 887 1120 857 l 1044 846 q 768 1004 933 971 l 781 1069 m 144 342 q 182 255 163 296 l 138 231 q 65 521 65 366 q 138 808 65 675 l 182 784 q 144 700 160 743 l 206 681 q 179 521 179 605 q 206 361 179 439 l 144 342 m 578 38 l 564 -27 q 656 -35 616 -35 l 656 -87 q 366 -4 499 -81 q 155 203 233 73 l 198 228 q 252 155 220 193 l 301 198 q 578 38 412 71 m 252 887 q 198 814 225 857 l 155 838 q 368 1046 236 968 q 656 1128 499 1123 l 656 1077 q 564 1069 608 1077 l 578 1004 q 301 846 412 971 l 252 887 m 1093 155 q 1147 228 1126 193 l 1191 203 q 979 -4 1112 73 q 689 -87 846 -81 l 689 -35 q 781 -27 730 -35 l 768 38 q 1044 198 933 71 l 1093 155 m 1149 997 q 1247 899 1149 997 q 1345 521 1345 800 q 1149 45 1345 241 q 673 -152 952 -152 q 197 45 393 -152 q 0 521 0 241 q 197 997 0 800 q 673 1194 393 1194 q 1149 997 952 1194 m 1126 68 q 1219 161 1126 68 q 1313 521 1313 255 q 1126 974 1313 787 q 673 1161 939 1161 q 220 974 407 1161 q 33 521 33 787 q 220 68 33 255 q 673 -119 407 -119 q 1126 68 939 -119 m 1207 811 q 1280 521 1280 675 q 1207 233 1280 366 l 1164 258 q 1202 342 1185 296 l 1139 361 q 1166 521 1166 439 q 1139 681 1166 605 l 1202 700 q 1164 787 1185 743 l 1207 811 m 711 328 l 746 146 q 673 138 708 138 q 600 146 637 138 l 635 328 q 526 391 567 342 l 385 271 q 312 396 336 328 l 486 456 q 477 521 477 488 q 486 586 477 553 l 312 646 q 385 770 336 713 l 526 651 q 635 713 570 700 l 600 895 q 673 903 632 903 q 746 895 711 903 l 711 713 q 819 651 776 700 l 960 770 q 1034 646 1009 713 l 860 586 q 868 521 868 553 q 860 456 868 488 l 1034 396 q 960 271 1009 328 l 819 391 q 711 328 776 342 z "},"":{"ha":1215,"x_min":0,"x_max":1215,"o":"m 274 309 q 328 304 293 307 q 415 297 396 301 q 434 277 434 293 q 389 239 434 250 q 300 239 345 228 q 255 271 255 250 q 274 309 255 288 m 350 624 q 404 594 388 624 q 404 534 420 564 q 347 505 388 505 q 288 534 304 505 q 289 594 271 564 q 350 624 307 624 m 1215 998 l 1215 43 q 1177 -49 1215 -11 q 1085 -87 1139 -87 l 130 -87 q 38 -49 76 -87 q 0 43 0 -11 l 0 998 q 38 1090 0 1053 q 130 1128 76 1128 l 1085 1128 q 1177 1090 1139 1128 q 1215 998 1215 1053 m 600 811 q 662 749 600 749 q 724 811 724 749 q 662 871 724 871 q 600 811 600 871 m 540 686 l 407 686 q 317 693 366 692 q 227 659 269 694 q 184 559 184 624 q 244 456 184 486 q 182 372 182 399 q 212 328 182 339 q 174 258 174 290 q 347 171 174 171 q 449 186 407 171 q 513 228 491 201 q 534 296 534 255 q 491 374 534 358 q 317 399 448 391 q 279 401 293 401 l 301 439 q 373 434 328 437 q 460 463 418 431 q 502 553 502 494 q 477 624 502 591 l 540 627 l 540 686 m 770 388 l 735 393 q 722 407 722 393 l 722 692 l 581 692 l 572 637 q 591 632 581 635 q 614 621 610 624 q 618 610 618 618 l 618 407 q 614 395 618 396 q 572 388 610 393 l 572 334 l 768 334 l 770 388 m 1042 361 l 1023 420 q 963 410 985 412 q 932 422 941 407 q 921 445 922 437 q 920 464 920 453 q 920 467 920 467 l 920 632 l 1023 632 l 1023 700 l 925 700 q 920 743 920 700 q 920 806 920 779 l 854 806 q 829 723 849 749 q 762 692 808 697 l 762 632 q 789 632 773 632 q 817 627 817 632 l 817 624 l 817 445 q 842 359 817 385 q 930 334 868 334 q 1042 361 985 334 z "},"":{"ha":1389,"x_min":0,"x_max":1389,"o":"m 586 787 l 586 692 l 486 684 q 526 572 526 632 q 499 471 526 513 q 434 410 472 429 q 350 384 396 391 q 267 380 304 377 q 203 388 231 382 l 168 331 q 231 326 190 328 q 342 320 307 323 q 427 311 377 317 q 498 293 477 304 q 541 264 518 282 q 571 221 564 247 q 578 160 578 195 q 499 14 578 65 q 277 -38 420 -38 q 0 98 0 -38 q 60 212 0 155 q 14 285 14 231 q 34 338 14 312 q 114 418 54 363 q 19 583 19 464 q 58 713 19 662 q 153 779 98 765 q 270 796 209 792 q 372 787 331 800 l 586 787 m 415 130 q 385 161 415 155 q 247 176 355 168 q 220 178 231 176 q 191 179 209 179 q 160 182 174 179 q 130 122 130 146 q 201 69 130 84 q 343 72 271 54 q 415 130 415 90 m 277 494 q 370 543 345 494 q 370 639 396 591 q 279 686 345 686 q 186 639 214 686 q 183 543 157 591 q 277 494 209 494 m 637 222 l 637 309 q 667 312 651 309 q 689 316 684 315 q 701 319 694 317 q 709 323 708 320 q 712 328 711 326 q 713 339 713 331 l 713 662 q 707 682 713 678 q 637 708 700 686 l 651 798 l 879 798 l 879 339 q 882 321 879 326 q 898 317 884 317 l 952 309 l 952 222 l 637 222 m 781 884 q 727 897 749 884 q 693 930 705 909 q 681 985 681 952 q 781 1080 681 1080 q 882 985 882 1080 q 854 910 882 936 q 781 884 827 884 m 1389 266 q 1210 220 1299 220 q 1070 262 1112 220 q 1028 399 1028 304 l 1028 686 l 1028 689 q 1023 699 1028 697 q 985 697 1017 700 q 941 697 960 697 l 941 798 q 1005 812 979 800 q 1048 846 1031 825 q 1076 899 1066 868 q 1090 977 1085 930 l 1194 977 q 1204 808 1199 808 l 1359 808 l 1359 697 l 1194 697 l 1194 434 q 1194 431 1194 434 q 1195 407 1194 418 q 1204 377 1196 396 q 1227 350 1213 358 q 1276 343 1242 342 q 1359 361 1310 345 l 1389 266 z "},"":{"ha":1215,"x_min":0,"x_max":1215,"o":"m 0 1128 l 1215 1128 l 1215 -87 l 0 -87 l 0 1128 m 57 594 m 648 448 l 868 868 l 773 868 q 677 682 708 746 q 631 581 646 618 q 610 526 616 543 q 593 570 605 540 q 571 623 581 600 q 530 711 562 646 q 448 868 499 776 l 347 868 l 564 453 l 564 174 l 648 174 l 648 448 z "},"":{"ha":1042,"x_min":57,"x_max":974,"o":"m 195 -130 q 159 -174 198 -171 q 117 -138 119 -176 q 167 338 92 119 q 391 711 241 556 q 401 853 358 784 q 529 922 445 922 q 633 878 589 922 q 678 770 678 833 q 598 639 678 681 q 442 648 518 597 q 195 -130 152 336 m 521 1215 q 841 1082 708 1215 q 974 762 974 949 q 807 414 974 551 q 420 323 640 277 q 389 372 380 334 q 437 401 399 410 q 749 469 605 358 q 892 762 892 581 q 784 1025 892 917 q 521 1134 675 1134 q 336 1085 420 1134 q 206 959 252 1036 q 151 785 160 882 q 190 594 141 689 q 187 553 201 572 q 152 534 174 534 q 119 559 130 534 q 69 784 57 667 q 134 997 81 901 q 292 1154 187 1093 q 521 1215 396 1215 z "},"":{"ha":1215,"x_min":19,"x_max":1196,"o":"m 1191 102 q 1188 89 1191 102 q 1177 75 1185 76 q 1153 88 1169 73 q 1120 123 1137 103 q 1089 165 1104 144 q 1063 203 1074 187 l 1055 217 q 1020 75 1055 149 q 917 -57 985 0 q 959 -73 939 -65 q 1004 -94 979 -81 q 1039 -122 1028 -106 q 1042 -152 1050 -138 q 852 -174 1001 -174 q 608 -163 703 -174 q 365 -174 513 -174 q 174 -152 217 -174 q 201 -100 157 -125 q 298 -57 244 -76 q 195 75 231 0 q 160 217 160 149 q 155 209 157 214 q 142 189 152 203 q 122 160 133 174 q 99 130 111 146 q 76 102 87 114 q 56 81 65 90 q 38 76 46 73 q 24 102 30 76 q 28 193 19 127 q 65 345 38 258 q 174 632 84 412 q 275 1051 165 887 q 608 1215 385 1215 q 939 1053 827 1215 q 1042 632 1050 890 q 1150 345 1131 412 q 1187 193 1177 258 q 1191 102 1196 127 z "},"":{"ha":1563,"x_min":35,"x_max":1527,"o":"m 1044 760 q 727 637 857 760 q 597 342 597 515 q 613 233 597 288 q 564 231 586 231 q 380 255 513 231 l 195 163 l 247 323 q 35 681 35 472 q 190 998 35 868 q 564 1128 345 1128 q 910 1023 757 1128 q 1096 757 1063 917 q 1044 760 1072 760 m 762 903 q 705 886 730 903 q 681 838 681 868 q 705 791 681 808 q 762 773 730 773 q 810 791 792 773 q 827 838 827 808 q 810 886 827 868 q 762 903 792 903 m 391 773 q 439 791 420 773 q 458 838 458 808 q 439 886 458 868 q 391 903 420 903 q 336 886 361 903 q 312 838 312 868 q 336 791 312 808 q 391 773 361 773 m 1527 350 q 1343 43 1527 184 l 1383 -87 l 1237 -8 q 1080 -35 1128 -35 q 760 77 890 -35 q 629 349 629 190 q 760 620 629 507 q 1080 732 890 732 q 1393 618 1259 732 q 1527 350 1527 505 m 933 415 q 967 423 952 415 q 990 444 982 431 q 998 469 998 456 q 994 487 998 477 q 982 505 990 496 q 960 517 974 513 q 933 521 947 521 q 898 505 914 521 q 882 469 882 488 q 886 449 882 458 q 897 431 890 439 q 913 419 903 423 q 933 415 922 415 m 1223 415 q 1257 423 1242 415 q 1280 444 1272 431 q 1289 469 1289 456 q 1270 505 1289 488 q 1223 521 1251 521 q 1188 505 1204 521 q 1172 468 1172 488 q 1188 431 1172 448 q 1223 415 1204 415 z "},"":{"ha":1389,"x_min":3,"x_max":1386,"o":"m 391 753 q 415 775 391 753 q 509 798 439 798 q 627 753 578 798 q 675 643 675 708 q 627 532 675 578 q 509 486 578 486 q 391 532 439 486 q 342 643 342 578 q 391 753 342 708 m 780 753 q 805 775 780 753 q 899 798 830 798 q 1017 753 968 798 q 1066 643 1066 708 q 1017 532 1066 578 q 899 486 968 486 q 780 532 830 486 q 730 643 730 578 q 780 753 730 708 m 1324 553 q 1370 555 1354 575 q 1367 505 1386 534 q 1080 309 1272 391 q 1015 -109 1161 33 q 814 -168 922 -198 q 713 -27 711 -141 q 713 -16 713 -24 q 713 7 713 -8 q 713 41 713 22 q 713 83 713 60 q 713 130 713 106 q 713 180 713 155 q 713 228 713 206 q 693 232 705 228 q 675 236 681 236 q 675 189 675 214 q 675 138 675 163 q 675 90 675 114 q 675 45 675 65 q 675 8 675 24 q 675 -16 675 -8 q 675 -27 675 -24 q 575 -168 678 -138 q 374 -109 467 -198 q 312 312 228 33 q 22 507 117 391 q 19 555 3 534 q 65 553 35 575 q 75 549 68 553 q 84 543 81 545 l 84 1080 q 121 1176 84 1137 q 209 1215 157 1215 l 1183 1215 q 1244 1198 1215 1215 q 1290 1149 1272 1180 q 1308 1080 1308 1118 l 1308 543 l 1324 553 m 1240 502 l 1240 1020 q 1229 1090 1240 1063 q 1195 1130 1218 1118 q 1128 1142 1172 1142 l 269 1142 q 180 1116 203 1142 q 157 1020 157 1090 l 157 496 q 331 434 241 453 q 476 418 420 415 q 586 420 532 420 q 659 401 637 423 q 713 353 686 374 q 806 420 719 426 q 914 418 857 420 q 1063 435 971 415 q 1240 502 1156 456 z "},"":{"ha":1389,"x_min":65,"x_max":1324,"o":"m 1061 936 l 1061 637 l 958 637 l 958 936 l 1061 936 m 773 936 l 773 637 l 667 637 l 667 936 l 773 936 m 328 1215 l 1324 1215 l 1324 521 l 852 73 l 643 73 l 380 -174 l 380 73 l 65 73 l 65 968 l 328 1215 m 1218 570 l 1218 1115 l 380 1115 l 380 372 l 616 372 l 616 198 l 800 372 l 1009 372 l 1218 570 z "},"":{"ha":1042,"x_min":3,"x_max":1039,"o":"m 117 564 l 388 431 q 422 369 426 412 q 374 315 418 326 l 81 244 q 68 241 76 241 q 26 258 43 241 q 5 296 8 274 q 3 358 3 326 q 30 526 3 445 q 53 557 35 545 q 90 570 71 570 q 117 564 103 570 m 236 -87 q 209 -35 209 -68 q 225 8 209 -11 l 426 231 q 495 247 456 263 q 534 187 534 231 l 524 -114 q 505 -156 524 -138 q 461 -174 486 -174 q 450 -174 456 -174 q 236 -87 334 -152 m 629 212 q 635 283 608 250 q 703 304 662 317 l 987 212 q 1019 189 1006 206 q 1031 152 1031 171 q 1025 125 1031 138 q 962 27 1004 81 q 882 -57 920 -27 q 841 -71 865 -71 q 789 -43 808 -71 l 629 212 m 1034 572 q 1039 545 1039 559 q 1035 528 1039 537 q 1024 510 1031 518 q 1009 495 1017 502 q 993 486 1001 488 l 703 404 q 636 426 662 391 q 635 499 610 461 l 803 746 q 854 776 822 776 q 895 760 879 776 q 972 671 933 727 q 1034 572 1012 616 m 168 1134 q 472 1215 312 1202 q 477 1215 475 1215 q 522 1198 505 1215 q 540 1153 540 1180 l 540 589 q 494 528 540 540 q 423 556 448 515 l 141 1047 q 133 1077 133 1061 q 168 1134 133 1118 z "},"":{"ha":1042,"x_min":-3,"x_max":1069,"o":"m 301 412 q 296 373 301 401 q 285 311 290 345 q 274 237 279 277 q 263 163 269 198 q 252 96 258 127 q 244 49 247 65 q 236 43 241 43 l 33 43 q 8 54 19 43 q 0 81 -3 65 l 160 1088 q 178 1122 163 1109 q 214 1134 193 1134 q 388 1135 290 1134 q 519 1137 486 1137 q 602 1135 553 1137 q 671 1130 651 1134 q 716 1120 692 1126 q 768 1104 741 1115 q 909 951 882 1058 q 887 724 936 844 q 507 477 803 483 q 444 479 486 477 q 387 479 401 480 q 349 472 372 477 q 316 452 326 467 q 301 412 307 437 m 968 803 q 1034 551 1066 730 q 646 247 974 247 q 633 247 643 247 q 621 247 624 247 q 610 247 618 247 q 600 245 602 247 q 591 241 597 244 q 583 235 586 239 q 576 225 581 231 q 570 212 572 220 q 567 193 567 203 q 526 -54 529 -43 q 480 -95 518 -95 l 307 -95 q 285 -84 293 -95 q 279 -60 277 -73 q 353 401 290 22 q 382 426 355 426 q 429 426 385 426 q 487 426 472 426 q 545 429 502 426 q 610 437 589 431 q 673 452 632 442 q 738 476 713 461 q 796 511 762 491 q 852 560 830 532 q 897 625 873 589 q 936 708 920 662 q 960 800 952 757 q 968 803 963 808 z "},"":{"ha":1215,"x_min":16,"x_max":1194,"o":"m 426 871 q 654 431 570 640 q 570 163 621 296 q 418 567 502 431 q 426 643 423 602 q 427 716 429 684 q 426 795 426 749 q 426 871 426 841 m 296 673 q 331 656 317 673 q 556 130 480 450 l 274 130 q 27 637 190 429 q 24 661 19 648 q 43 673 30 673 l 296 673 m 426 911 l 722 911 q 1109 -87 1063 439 l 800 -87 q 426 911 773 363 m 1109 1096 q 1194 521 1194 798 q 1126 -30 1194 233 q 879 705 1080 345 q 808 1101 863 906 q 811 1120 806 1112 q 827 1128 817 1128 l 1069 1128 q 1109 1096 1101 1128 z "},"":{"ha":1563,"x_min":0,"x_max":1563,"o":"m 1275 589 q 1299 467 1297 486 l 1210 467 l 1253 583 q 1256 590 1253 583 q 1261 608 1259 597 q 1267 624 1264 618 l 1275 589 m 1563 998 l 1563 43 q 1525 -49 1563 -11 q 1432 -87 1487 -87 l 130 -87 q 38 -49 76 -87 q 0 43 0 -11 l 0 998 q 38 1090 0 1053 q 130 1128 76 1128 l 1432 1128 q 1525 1090 1487 1128 q 1563 998 1563 1053 m 412 317 l 586 738 l 469 738 l 363 450 l 353 510 l 315 703 q 263 738 307 735 l 90 738 l 87 730 q 201 684 149 713 l 298 317 l 412 317 m 670 317 l 738 738 l 629 738 l 562 317 l 670 317 m 1050 453 q 958 570 1050 524 q 895 621 895 600 q 960 656 898 656 q 1039 640 1001 659 l 1050 637 l 1063 727 q 966 746 1020 746 q 872 728 914 746 q 807 678 830 711 q 784 608 784 646 q 879 491 781 540 q 936 439 936 464 q 871 399 933 399 q 768 420 819 399 l 754 429 l 738 334 q 860 309 784 312 q 997 349 944 309 q 1050 453 1050 388 m 1432 317 l 1345 738 l 1259 738 q 1204 703 1218 738 l 1042 317 l 1156 317 q 1177 380 1175 369 l 1318 380 l 1332 317 l 1432 317 z "},"":{"ha":1563,"x_min":0,"x_max":1563,"o":"m 1279 133 q 1295 133 1279 133 q 1310 102 1310 133 q 1279 71 1310 71 q 1248 102 1248 71 q 1279 133 1248 133 m 467 133 q 496 102 496 133 q 467 71 496 71 q 437 102 437 71 q 467 133 437 133 m 760 111 q 785 136 762 136 q 811 111 808 136 l 760 111 m 1077 133 q 1109 102 1109 133 q 1077 71 1109 71 q 1047 102 1047 71 q 1077 133 1047 133 m 1364 62 q 1367 60 1367 62 q 1366 58 1367 60 q 1364 57 1364 57 q 1364 54 1364 54 q 1362 54 1362 54 q 1359 54 1359 54 q 1356 54 1356 54 q 1354 54 1354 54 q 1351 57 1351 57 q 1351 61 1351 60 q 1351 62 1351 62 q 1354 65 1351 65 q 1354 68 1354 68 l 1356 68 q 1359 68 1356 68 q 1362 68 1359 68 q 1364 65 1364 65 q 1364 62 1364 65 m 1359 60 q 1362 60 1359 60 q 1362 62 1362 60 q 1362 65 1362 65 q 1359 65 1362 65 l 1354 65 l 1354 57 l 1356 57 l 1356 60 l 1359 57 l 1362 57 l 1359 60 m 1563 996 l 1563 41 q 1525 -52 1563 -14 q 1432 -90 1487 -90 l 130 -90 q 38 -52 76 -90 q 0 41 0 -14 l 0 996 q 38 1088 0 1050 q 130 1126 76 1126 l 1432 1126 q 1525 1088 1487 1126 q 1563 996 1563 1050 m 283 883 q 229 828 283 883 q 174 617 174 773 q 283 351 174 461 q 548 241 393 241 q 757 304 662 241 q 609 617 608 426 q 757 928 610 808 q 548 993 662 993 q 283 883 393 993 m 781 323 q 925 617 925 434 q 781 911 925 800 q 637 617 637 800 q 781 323 637 434 m 396 114 q 355 155 396 155 q 320 136 331 155 q 288 155 309 155 q 258 141 269 155 l 258 152 l 236 152 l 236 52 l 258 52 q 258 72 258 60 q 258 91 258 84 q 258 106 258 98 q 260 118 258 114 q 266 126 263 122 q 273 133 269 130 q 282 136 277 136 q 302 122 298 136 q 307 76 307 109 q 307 52 307 60 l 326 52 q 326 72 326 60 q 326 91 326 84 q 327 106 326 98 q 330 118 328 114 q 334 126 331 122 q 340 133 336 130 q 353 136 345 136 q 370 122 366 136 q 374 76 374 109 q 374 52 374 60 l 396 52 l 396 114 m 518 152 l 496 152 l 496 141 q 464 155 483 155 q 429 140 442 155 q 415 102 415 125 q 429 64 415 79 q 464 49 442 49 q 496 65 486 49 l 496 52 l 518 52 l 518 152 m 627 81 q 595 111 627 106 q 564 125 564 117 q 583 136 564 136 q 616 127 602 136 l 624 144 q 574 155 605 160 q 543 122 543 149 q 574 94 543 100 q 605 81 605 87 q 583 68 605 68 q 548 79 562 68 l 537 62 q 594 52 562 46 q 627 81 627 57 m 722 57 l 716 76 q 684 87 684 57 l 684 133 l 719 133 l 719 152 l 684 152 l 684 182 l 662 182 l 662 152 l 640 152 l 640 133 l 662 133 l 662 87 q 688 50 662 54 q 722 57 713 46 m 760 92 l 833 92 q 787 155 833 155 q 751 140 765 155 q 738 103 738 125 q 772 52 738 62 q 830 65 806 41 l 819 81 q 783 69 803 65 q 760 92 762 73 m 920 152 q 879 141 892 163 l 879 152 l 857 152 l 857 52 l 879 52 l 879 109 q 892 134 879 130 q 911 130 906 138 l 920 152 m 967 72 q 958 75 967 72 q 949 102 949 79 q 967 132 949 125 q 1004 125 985 138 l 1015 144 q 958 151 990 163 q 925 103 925 138 q 959 53 925 65 q 1015 62 993 41 l 1004 79 q 967 72 985 65 m 1128 152 l 1107 152 l 1107 141 q 1058 151 1090 163 q 1025 103 1025 138 q 1058 53 1025 65 q 1107 65 1090 41 l 1107 52 l 1128 52 l 1128 152 m 1221 152 q 1180 141 1194 165 l 1180 152 l 1158 152 l 1158 52 l 1180 52 l 1180 109 q 1194 133 1180 127 q 1215 130 1207 138 l 1221 152 m 1329 193 l 1308 193 l 1308 141 q 1259 151 1291 163 q 1226 102 1226 138 q 1260 53 1226 65 q 1308 65 1294 41 l 1308 52 l 1329 52 l 1329 193 m 1351 396 l 1351 382 l 1354 382 l 1354 396 l 1356 396 l 1356 399 l 1345 399 l 1345 396 l 1351 396 m 1367 60 q 1367 65 1367 62 q 1364 68 1364 68 q 1362 71 1362 71 q 1359 71 1362 71 q 1356 71 1356 71 q 1354 71 1356 71 q 1351 68 1351 68 q 1348 65 1348 65 q 1348 60 1348 62 q 1348 57 1348 57 q 1351 54 1348 54 q 1355 52 1354 52 q 1359 52 1356 52 q 1362 52 1362 52 q 1363 53 1362 52 q 1364 54 1364 54 q 1366 56 1364 54 q 1367 57 1367 57 q 1367 60 1367 57 m 1378 399 l 1373 399 l 1370 388 l 1364 399 l 1362 399 l 1362 385 l 1362 396 l 1367 385 l 1370 385 l 1373 396 l 1373 385 l 1378 385 l 1378 399 m 1389 616 q 1279 883 1389 773 q 1015 993 1169 993 q 806 930 901 993 q 954 617 952 808 q 806 304 955 426 q 1015 241 901 241 q 1279 351 1169 241 q 1389 616 1389 461 z "},"":{"ha":1563,"x_min":0,"x_max":1563,"o":"m 1411 684 q 1370 648 1411 648 l 1356 648 l 1356 716 l 1370 716 q 1411 684 1411 716 m 1432 1128 q 1525 1090 1487 1128 q 1563 998 1563 1053 l 1563 43 q 1525 -49 1563 -11 q 1432 -87 1487 -87 l 130 -87 q 38 -49 76 -87 q 0 43 0 -11 l 0 998 q 38 1090 0 1053 q 130 1128 76 1128 l 1432 1128 m 1313 751 l 1313 529 l 1356 529 l 1356 618 l 1362 618 l 1421 529 l 1476 529 l 1405 624 q 1457 686 1457 632 q 1453 713 1457 703 q 1438 732 1449 724 q 1419 745 1427 741 q 1393 750 1411 749 q 1369 751 1375 751 q 1340 751 1362 751 q 1313 751 1318 751 m 1161 751 l 1161 529 l 1283 529 l 1283 567 l 1204 567 l 1204 627 l 1280 627 l 1280 665 l 1204 665 l 1204 713 l 1283 713 l 1283 751 l 1161 751 m 974 751 l 928 751 l 1023 524 l 1044 524 l 1142 751 l 1093 751 l 1034 602 l 974 751 m 909 724 q 891 742 909 724 q 823 760 873 760 q 738 724 773 760 q 703 639 703 689 q 738 553 703 589 q 823 518 773 518 q 909 553 873 518 q 944 639 944 589 q 909 724 944 689 m 689 743 q 608 754 646 762 q 544 713 570 746 q 518 640 518 681 q 533 581 518 608 q 572 540 548 553 q 628 524 597 526 q 689 537 659 521 l 689 589 q 606 570 651 551 q 562 640 562 589 q 605 709 562 689 q 689 692 648 730 l 689 743 m 426 564 q 377 591 393 564 l 350 564 q 445 525 385 513 q 505 597 505 537 q 491 637 505 624 q 439 665 477 651 q 407 694 407 678 q 430 718 407 713 q 475 700 453 722 l 496 730 q 410 751 458 765 q 361 692 361 738 q 418 629 361 648 q 456 602 448 618 q 453 575 464 586 q 426 564 442 564 m 149 529 q 240 563 209 529 q 271 640 271 597 q 255 699 271 673 q 212 738 239 724 q 149 751 184 751 l 87 751 l 87 529 l 149 529 m 334 529 l 334 751 l 290 751 l 290 529 l 334 529 m 1476 41 l 1476 434 q 1008 205 1337 347 q 347 0 678 62 l 1435 0 q 1463 12 1451 0 q 1476 41 1476 24 m 201 694 q 225 640 225 675 q 201 583 225 605 q 141 567 182 567 l 130 567 l 130 713 l 141 713 q 201 694 182 713 z "},"":{"ha":1563,"x_min":-3,"x_max":1565,"o":"m 882 760 q 849 711 882 722 q 879 659 879 700 l 879 624 l 836 624 q 836 642 836 629 q 836 659 836 654 q 833 671 836 665 q 826 682 830 678 q 814 689 822 686 q 795 692 806 692 l 746 692 l 746 624 l 703 624 l 703 811 l 808 811 q 882 760 882 811 m 803 730 q 833 751 833 730 q 803 770 833 770 l 746 770 l 746 730 l 803 730 m 757 486 q 833 426 833 486 q 829 397 833 410 q 815 378 825 385 q 796 368 806 372 q 772 362 787 363 q 749 361 757 361 q 723 361 741 361 q 700 361 705 361 l 700 298 l 610 298 l 556 361 l 499 298 l 320 298 l 320 486 l 502 486 l 556 426 l 613 486 l 757 486 m 475 339 l 526 393 l 477 448 l 366 448 l 366 415 l 464 415 l 464 374 l 366 374 l 366 339 l 475 339 m 654 315 l 654 467 l 586 393 l 654 315 m 757 401 q 784 426 784 401 q 757 448 784 448 l 700 448 l 700 401 l 757 401 m 670 770 l 564 770 l 564 738 l 667 738 l 667 700 l 564 700 l 564 662 l 670 662 l 670 624 l 521 624 l 521 811 l 670 811 l 670 770 m 1563 524 m 1034 437 q 1004 385 1034 399 q 1031 336 1031 374 l 1031 298 l 987 298 l 987 331 q 983 353 987 345 q 971 363 979 361 q 947 366 963 366 l 901 366 l 898 298 l 854 298 l 854 486 l 960 486 q 1034 437 1034 486 m 955 407 q 985 429 985 407 q 955 448 985 448 l 901 448 l 901 407 l 955 407 m 486 624 l 442 624 l 442 770 l 377 624 l 336 624 l 271 770 l 271 624 l 179 624 l 163 665 l 68 665 l 52 624 l 3 624 l 84 811 l 149 811 l 225 632 l 225 811 l 298 811 l 358 684 l 412 811 l 486 811 l 486 624 m 84 703 l 146 703 l 114 779 l 84 703 m 1381 271 q 1430 271 1397 271 q 1476 271 1462 271 q 1510 273 1489 271 q 1541 278 1530 274 q 1563 288 1552 282 l 1563 43 q 1525 -49 1563 -11 q 1432 -87 1487 -87 l 130 -87 q 38 -49 76 -87 q 0 43 0 -11 l 0 597 l 73 597 q 90 637 79 613 l 141 637 q 160 597 152 613 l 304 597 l 304 627 q 317 597 307 621 l 396 597 q 401 606 399 602 q 406 616 404 610 q 410 627 407 621 l 410 597 l 779 597 l 779 665 q 803 665 800 665 q 806 597 803 635 l 985 597 l 985 621 q 1066 597 1015 597 l 1139 597 q 1156 637 1145 613 l 1207 637 q 1215 616 1215 618 q 1219 610 1218 616 q 1226 597 1221 605 l 1367 597 l 1367 656 q 1393 614 1386 624 q 1405 597 1400 605 l 1516 597 l 1516 846 l 1408 846 l 1408 795 q 1378 846 1394 819 l 1261 846 l 1261 789 q 1237 846 1253 811 l 1150 846 q 1142 846 1142 846 l 1069 846 q 985 822 1017 846 l 985 846 l 876 846 l 876 833 q 867 837 871 836 q 856 840 863 838 q 845 842 849 841 q 831 845 841 844 q 815 846 822 846 q 793 846 808 846 q 769 846 779 846 q 738 846 760 846 q 703 846 716 846 l 670 846 l 391 846 q 358 765 377 814 q 338 806 353 773 q 320 846 323 838 l 195 846 l 195 789 q 178 826 182 817 q 171 846 174 836 l 62 846 q 35 784 57 836 q 0 700 14 732 l 0 998 q 38 1090 0 1053 q 130 1128 76 1128 l 1432 1128 q 1525 1090 1487 1128 q 1563 998 1563 1053 l 1563 524 q 1535 524 1552 524 q 1416 510 1440 524 l 1416 524 q 1362 524 1392 524 q 1321 524 1332 524 q 1294 522 1310 524 q 1271 519 1278 521 q 1255 515 1264 518 q 1240 507 1245 513 l 1240 524 l 1025 524 l 1025 510 q 1015 514 1020 513 q 1002 518 1009 515 q 986 521 996 521 q 968 522 977 521 q 943 524 960 524 q 911 524 925 524 q 871 524 898 524 q 822 524 844 524 l 822 507 q 754 524 795 524 l 597 524 q 589 511 594 518 q 576 499 583 505 q 564 486 570 494 q 556 475 559 477 q 537 496 545 488 q 526 507 529 505 q 521 514 524 510 q 513 524 518 518 l 288 524 l 288 271 l 510 271 q 553 320 526 290 q 581 289 572 298 q 597 271 589 279 l 727 271 q 728 304 727 293 q 730 334 730 315 q 822 353 792 334 q 822 309 822 331 q 822 271 822 288 l 928 271 q 928 308 928 298 q 928 342 928 317 q 955 342 949 342 q 955 331 955 339 q 955 271 955 307 q 1370 279 1354 271 q 1381 285 1373 279 l 1381 271 m 1478 448 q 1454 429 1454 448 q 1474 414 1454 415 q 1522 411 1495 412 q 1560 393 1549 410 l 1560 323 q 1497 298 1544 298 l 1411 298 l 1413 339 l 1500 339 q 1522 355 1522 339 q 1504 372 1522 369 q 1465 374 1487 374 q 1424 388 1443 374 q 1405 431 1405 401 q 1470 486 1405 486 l 1560 486 l 1560 448 l 1478 448 m 1324 339 q 1348 355 1348 339 q 1329 373 1348 369 q 1289 376 1310 377 q 1249 388 1267 374 q 1232 431 1232 401 q 1297 488 1232 488 l 1386 488 l 1386 448 l 1302 448 q 1278 429 1278 448 q 1297 415 1278 418 q 1337 414 1316 412 q 1377 401 1359 415 q 1394 358 1394 388 q 1324 298 1394 298 l 1237 298 l 1237 339 l 1324 339 m 1210 448 l 1104 448 l 1104 415 l 1207 415 l 1207 374 l 1104 374 l 1104 339 l 1210 336 l 1210 298 l 1058 298 l 1058 486 l 1210 486 l 1210 448 m 1055 741 q 1077 743 1058 743 q 1080 743 1077 743 q 1085 743 1082 743 l 1063 697 q 1055 700 1058 697 q 1053 720 1053 703 q 1055 741 1053 738 m 1112 770 m 1069 811 l 1112 811 l 1112 770 q 1095 770 1107 770 q 1077 770 1082 770 q 1062 770 1072 770 q 1048 768 1053 770 q 1038 761 1044 765 q 1028 751 1031 757 q 1024 736 1025 746 q 1023 716 1023 727 q 1066 662 1023 662 l 1085 662 l 1150 811 l 1215 811 l 1291 632 l 1291 811 l 1362 811 l 1440 678 l 1440 811 l 1487 811 l 1487 624 l 1421 624 l 1337 765 l 1337 624 l 1245 624 l 1226 665 l 1134 665 l 1118 624 l 1066 624 q 977 716 977 624 q 1069 811 977 811 m 1183 779 l 1150 703 l 1213 703 l 1183 779 m 909 811 l 955 811 l 955 624 l 909 624 l 909 811 z "},"":{"ha":1563,"x_min":0,"x_max":1563,"o":"m 505 515 q 488 473 505 491 q 445 456 472 456 q 401 496 401 456 q 419 538 401 521 q 461 556 437 556 q 505 515 505 556 m 217 646 q 259 639 247 646 q 266 605 271 632 q 206 567 260 567 l 184 567 l 198 640 q 206 646 198 646 l 217 646 m 987 646 q 1039 616 1036 646 q 979 567 1039 567 l 958 567 l 968 640 q 977 646 968 646 l 987 646 m 1563 998 l 1563 43 q 1525 -49 1563 -11 q 1432 -87 1487 -87 l 130 -87 q 38 -49 76 -87 q 0 43 0 -11 l 0 998 q 38 1090 0 1053 q 130 1128 76 1128 l 1432 1128 q 1525 1090 1487 1128 q 1563 998 1563 1053 m 347 632 q 255 708 347 708 l 146 708 q 130 694 133 708 l 87 418 q 95 407 84 407 l 146 407 q 163 423 160 407 l 174 494 q 178 503 174 499 q 189 507 182 507 q 201 507 195 507 q 213 507 206 507 q 222 507 220 507 q 315 540 282 507 q 347 632 347 572 m 575 608 l 526 608 q 513 586 515 608 q 450 613 494 613 q 366 576 401 613 q 331 488 331 540 q 355 426 331 450 q 418 401 380 401 q 491 434 461 401 q 488 418 488 426 q 496 407 488 407 l 543 407 q 559 423 553 407 l 586 597 q 575 608 586 608 m 686 342 l 860 591 q 860 597 860 594 q 852 608 860 608 l 800 608 q 787 600 792 608 l 716 494 l 686 597 q 670 608 681 608 l 621 608 q 610 597 610 608 q 624 557 610 597 q 652 476 637 518 q 670 429 667 434 q 613 342 613 350 q 621 334 613 334 l 673 334 q 686 342 681 334 m 1118 632 q 1025 708 1118 708 l 917 708 q 901 694 903 708 l 857 418 q 865 407 857 407 l 922 407 q 933 415 930 407 l 944 494 q 951 503 947 499 q 960 507 955 507 q 971 507 966 507 q 985 507 977 507 q 993 507 993 507 q 1085 540 1053 507 q 1118 632 1118 572 m 1345 608 l 1297 608 q 1283 586 1286 608 q 1221 613 1267 613 q 1135 576 1169 613 q 1101 488 1101 540 q 1124 426 1101 450 q 1188 401 1147 401 q 1259 434 1232 401 q 1259 418 1259 420 q 1267 407 1259 407 l 1313 407 q 1329 423 1324 407 l 1356 597 q 1345 608 1356 608 m 1476 697 q 1468 708 1476 708 l 1416 708 q 1408 700 1408 708 l 1364 418 l 1364 415 q 1373 407 1364 407 l 1419 407 q 1432 423 1430 407 l 1476 697 m 1232 556 q 1275 515 1275 556 q 1259 473 1275 491 q 1215 456 1242 456 q 1172 496 1172 456 q 1190 540 1172 524 q 1232 556 1207 556 z "},"":{"ha":1563,"x_min":0,"x_max":1563,"o":"m 1335 616 q 1370 601 1356 616 q 1383 553 1383 586 l 1286 553 q 1293 590 1286 575 q 1312 610 1299 605 q 1335 616 1324 616 m 1017 610 q 1047 598 1034 610 q 1069 566 1061 586 q 1077 521 1077 545 q 1061 454 1077 480 q 1017 429 1044 429 q 971 448 990 429 l 971 591 q 1017 610 987 610 m 1432 1128 q 1525 1090 1487 1128 q 1563 998 1563 1053 l 1563 43 q 1525 -49 1563 -11 q 1432 -87 1487 -87 l 130 -87 q 38 -49 76 -87 q 0 43 0 -11 l 0 998 q 38 1090 0 1053 q 130 1128 76 1128 l 1432 1128 m 331 453 q 294 528 331 502 q 221 564 258 553 q 184 591 184 575 q 217 610 184 610 q 312 586 266 610 l 312 678 q 217 694 269 694 q 149 682 179 694 q 103 644 119 670 q 87 586 87 618 q 123 515 87 540 q 197 479 160 491 q 233 450 233 467 q 195 426 233 426 q 92 458 149 426 l 92 366 q 195 345 141 345 q 294 373 258 345 q 331 453 331 401 m 518 608 l 518 689 l 445 689 l 445 773 l 350 751 l 350 442 q 378 373 350 401 q 450 345 407 345 q 518 358 496 345 l 518 434 q 477 430 510 426 q 445 469 445 434 l 445 608 l 518 608 m 719 600 l 719 689 q 637 659 665 708 l 632 689 l 548 689 l 548 350 l 646 350 l 646 581 q 719 600 673 616 m 838 350 l 838 689 l 741 689 l 741 350 l 838 350 m 838 738 l 838 817 l 741 798 l 741 719 l 838 738 m 1039 345 q 1134 389 1096 345 q 1172 521 1172 434 q 1133 648 1172 602 q 1039 694 1093 694 q 966 665 998 694 l 960 689 l 873 689 l 873 239 l 971 260 l 971 369 q 1039 345 1006 345 m 1476 483 q 1476 518 1476 505 q 1439 646 1476 597 q 1337 694 1402 694 q 1275 681 1302 694 q 1229 644 1248 667 q 1199 589 1210 621 q 1188 518 1188 556 q 1210 422 1188 461 q 1267 363 1232 382 q 1348 345 1302 345 q 1457 369 1411 345 l 1457 448 q 1362 426 1413 426 q 1286 483 1291 426 l 1476 483 z "},"":{"ha":1389,"x_min":0,"x_max":1389,"o":"m 613 220 q 602 210 610 217 q 570 190 594 203 q 518 165 545 176 q 444 145 491 155 q 347 136 396 136 q 90 231 179 136 q 0 507 0 326 q 92 802 0 697 q 358 906 184 906 q 471 897 420 906 q 556 872 521 887 q 623 826 591 857 q 673 772 654 795 q 713 699 692 749 q 745 618 735 648 q 776 524 754 589 q 795 464 789 486 q 845 359 817 401 q 929 290 873 317 q 1061 263 985 263 q 1226 347 1226 263 q 1222 378 1226 363 q 1204 404 1218 393 q 1180 422 1191 415 q 1145 437 1169 429 q 1107 449 1120 445 q 1058 460 1093 453 q 1009 472 1023 467 q 825 678 825 515 q 906 853 825 800 q 1109 906 987 906 q 1383 705 1364 906 l 1223 686 q 1099 781 1215 781 q 1039 772 1063 781 q 1001 743 1015 762 q 987 697 987 724 q 1006 637 987 659 q 1077 605 1025 616 q 1120 594 1082 602 q 1165 585 1158 586 q 1206 574 1172 583 q 1249 559 1240 564 q 1286 541 1259 553 q 1321 518 1313 529 q 1347 490 1329 507 q 1371 453 1364 472 q 1383 408 1378 434 q 1389 355 1389 382 q 1058 136 1389 136 q 774 209 868 136 q 637 412 681 282 q 612 491 629 437 q 589 564 594 545 q 567 625 583 583 q 540 681 551 667 q 510 720 529 694 q 471 754 491 746 q 423 770 450 762 q 363 779 396 779 q 224 715 279 779 q 168 513 168 651 q 191 382 168 439 q 258 296 214 326 q 355 266 301 266 q 461 289 410 266 q 537 334 513 312 l 562 358 l 613 220 z "},"":{"ha":1215,"x_min":0,"x_max":1215,"o":"m 1085 1128 q 1177 1090 1139 1128 q 1215 998 1215 1053 l 1215 43 q 1177 -49 1215 -11 q 1085 -87 1139 -87 l 130 -87 q 38 -49 76 -87 q 0 43 0 -11 l 0 998 q 38 1090 0 1053 q 130 1128 76 1128 l 1085 1128 m 836 279 q 1042 418 1042 279 q 1038 450 1042 434 q 1031 479 1034 467 q 1016 502 1028 491 q 998 519 1004 513 q 977 534 993 526 q 955 545 960 543 q 928 553 949 548 q 902 560 906 559 q 872 567 898 562 q 846 572 846 572 q 789 629 789 586 q 860 684 789 684 q 939 624 933 684 l 1036 635 q 868 762 1025 762 q 739 728 789 762 q 689 618 689 694 q 806 488 689 518 q 827 486 814 488 q 849 480 841 483 q 868 475 857 477 q 886 469 879 472 q 901 464 892 467 q 914 457 909 461 q 925 449 920 453 q 933 439 930 445 q 939 427 936 434 q 941 412 941 420 q 838 361 941 361 q 670 486 713 361 q 655 532 667 494 q 640 578 643 570 q 625 617 637 586 q 608 655 613 648 q 589 685 602 662 q 564 713 575 708 q 534 732 553 719 q 496 750 515 746 q 453 758 477 754 q 399 762 429 762 q 232 697 290 762 q 174 513 174 632 q 199 385 174 437 q 273 307 225 334 q 391 279 320 279 q 481 293 439 279 q 540 320 524 307 l 556 331 l 526 418 q 396 361 472 361 q 312 403 345 361 q 279 515 279 445 q 315 643 279 602 q 401 684 350 684 q 438 678 420 684 q 468 667 456 673 q 492 646 480 662 q 511 620 505 629 q 528 585 518 610 q 541 548 537 559 q 556 502 545 537 q 572 453 567 467 q 594 399 581 423 q 628 351 608 374 q 677 313 648 328 q 745 289 705 298 q 836 279 784 279 z "},"":{"ha":1736,"x_min":0,"x_max":1736,"o":"m 1671 781 q 1717 762 1698 781 q 1736 716 1736 743 q 1717 670 1736 689 q 1671 651 1698 651 l 1527 651 q 1541 521 1541 589 q 1344 45 1541 241 q 868 -152 1147 -152 q 494 -38 662 -152 q 247 260 326 76 l 65 260 q 19 279 38 260 q 0 326 0 298 q 19 372 0 353 q 65 391 38 391 l 209 391 q 195 521 195 453 q 392 997 195 800 q 868 1194 589 1194 q 1242 1080 1074 1194 q 1489 781 1411 966 l 1671 781 m 1411 521 q 1394 651 1411 586 l 586 651 q 540 670 559 651 q 521 716 521 689 q 540 762 521 743 q 586 781 559 781 l 1345 781 q 1147 986 1275 909 q 868 1063 1020 1063 q 484 905 643 1063 q 326 521 326 746 q 342 391 326 456 l 1150 391 q 1196 372 1177 391 q 1215 326 1215 353 q 1196 279 1215 298 q 1150 260 1177 260 l 391 260 q 589 56 461 133 q 868 -22 716 -22 q 1252 137 1093 -22 q 1411 521 1411 296 m 586 586 l 1150 586 q 1196 567 1177 586 q 1215 521 1215 548 q 1196 475 1215 494 q 1150 456 1177 456 l 586 456 q 540 475 559 456 q 521 521 521 494 q 540 567 521 548 q 586 586 559 586 z "},"":{"ha":1215,"x_min":125,"x_max":1090,"o":"m 941 632 q 1061 545 1031 610 q 1090 377 1090 480 q 948 -18 1090 138 q 572 -174 806 -174 q 254 -49 382 -174 q 125 231 125 76 q 263 423 125 385 q 241 505 241 483 q 283 601 241 553 q 374 648 326 648 q 429 635 396 648 q 301 1074 301 996 q 309 1130 301 1104 q 332 1175 317 1156 q 370 1204 347 1194 q 426 1215 393 1215 q 675 765 526 1215 q 684 749 681 751 q 711 823 686 754 q 757 943 735 892 q 810 1057 779 993 q 876 1156 841 1120 q 947 1191 911 1191 q 1032 1153 1001 1191 q 1063 1058 1063 1115 q 941 632 1063 974 m 846 922 l 757 667 l 849 651 q 977 1053 977 1004 q 947 1096 977 1096 q 846 922 903 1096 m 385 1085 q 510 681 385 1006 q 605 684 526 692 l 513 958 q 407 1126 450 1139 q 385 1085 385 1120 m 380 553 q 357 544 369 553 q 335 521 345 534 q 326 496 326 507 q 408 340 326 450 q 532 231 491 231 q 553 241 545 231 q 562 263 562 252 q 496 429 562 304 q 380 553 431 553 m 879 49 q 978 233 949 125 q 998 420 1006 342 q 963 521 990 499 q 799 581 920 559 q 589 602 678 602 q 556 595 567 602 q 544 583 545 589 q 543 564 543 578 q 852 458 543 456 q 868 458 863 458 q 914 401 909 458 q 841 358 892 380 q 768 323 789 339 q 682 235 716 288 q 648 127 648 182 q 663 61 648 106 q 678 -8 678 16 q 675 -18 678 -8 q 673 -27 673 -27 q 559 138 564 -22 q 526 138 553 138 q 506 62 537 100 q 423 24 475 24 q 275 113 342 24 q 266 260 209 201 q 304 208 282 236 q 335 167 326 179 q 358 141 345 155 q 381 123 372 127 q 404 119 391 119 q 425 126 412 119 q 437 144 437 133 q 374 256 437 171 q 288 342 312 342 q 225 293 247 342 q 233 155 203 244 q 370 -20 279 43 q 583 -84 461 -84 q 879 49 760 -84 m 613 391 q 637 323 632 336 q 692 374 667 355 q 613 391 613 391 z "},"":{"ha":1215,"x_min":0,"x_max":1215,"o":"m 608 806 l 724 372 l 491 372 l 608 806 m 1215 998 l 1215 43 q 1177 -49 1215 -11 q 1085 -87 1139 -87 l 130 -87 q 38 -49 76 -87 q 0 43 0 -11 l 0 998 q 38 1090 0 1053 q 130 1128 76 1128 l 1085 1128 q 1177 1090 1139 1128 q 1215 998 1215 1053 m 1039 117 l 781 925 l 434 925 l 176 117 l 423 117 l 727 363 l 792 117 l 1039 117 z "},"":{"ha":1563,"x_min":35,"x_max":1527,"o":"m 1492 562 q 1525 521 1525 556 q 1492 480 1525 488 l 1343 222 q 1345 209 1345 214 q 1313 168 1345 176 l 1172 -76 q 1175 -87 1175 -81 q 1169 -107 1175 -98 q 1154 -122 1164 -117 q 1134 -127 1145 -127 q 1104 -117 1115 -127 l 814 -117 q 781 -130 800 -130 q 749 -117 762 -130 l 461 -117 q 429 -130 448 -130 q 400 -118 412 -130 q 388 -90 388 -106 q 391 -73 388 -84 l 250 168 q 217 209 217 176 q 220 222 217 214 l 71 480 q 38 521 38 488 q 71 562 38 556 l 217 811 q 216 815 217 814 q 214 817 214 817 q 239 854 214 844 l 391 1118 q 388 1131 388 1126 q 395 1152 388 1142 q 411 1166 401 1161 q 431 1172 420 1172 q 461 1156 450 1172 l 749 1156 q 781 1172 762 1172 q 814 1156 800 1172 l 1101 1156 q 1134 1172 1115 1172 q 1154 1166 1145 1172 q 1169 1152 1164 1161 q 1175 1131 1175 1142 q 1172 1118 1175 1126 l 1324 857 q 1351 845 1340 857 q 1362 817 1362 833 q 1356 798 1362 808 l 1492 562 m 418 -8 l 418 198 l 298 198 l 418 -8 m 418 220 l 418 358 l 296 228 q 298 220 298 222 l 418 220 m 418 391 l 418 640 l 279 781 q 260 776 271 776 l 119 532 q 119 521 119 529 q 117 510 119 515 l 269 250 q 279 244 269 250 l 418 391 m 418 667 l 418 863 l 298 819 q 298 817 298 817 q 293 795 298 806 l 418 667 m 418 884 l 418 1047 l 298 844 l 418 884 m 1302 779 l 1302 781 l 1036 505 l 1210 323 l 1305 776 l 1302 779 m 792 252 l 760 220 l 822 220 l 792 252 m 789 282 l 1006 505 l 781 743 l 564 515 l 789 282 m 806 266 l 852 220 l 1188 220 l 1204 296 l 1020 488 l 806 266 m 1112 1096 l 795 760 l 1020 521 l 1286 795 q 1280 817 1280 806 l 1280 819 l 1123 1090 q 1112 1096 1120 1093 m 1088 1101 l 1077 1101 l 627 939 l 781 773 l 1088 1101 m 754 1101 l 472 1101 l 610 955 l 1012 1101 l 808 1101 q 781 1088 798 1088 q 754 1101 765 1088 m 439 1085 l 439 892 l 586 947 l 448 1093 q 442 1090 445 1093 l 439 1085 m 439 871 l 439 646 l 551 529 l 765 760 l 602 930 l 439 871 m 439 618 l 439 412 l 537 515 l 439 618 m 439 380 l 439 220 l 730 220 l 776 269 l 553 502 l 439 380 m 458 -60 l 461 -60 l 708 198 l 439 198 l 439 -46 l 442 -49 q 458 -60 450 -52 m 808 -60 l 1093 -60 l 844 198 l 741 198 l 491 -60 l 754 -60 q 781 -46 765 -46 q 808 -60 798 -46 m 1134 -27 l 1183 198 l 871 198 l 1115 -52 q 1123 -46 1120 -49 l 1134 -27 m 1169 33 l 1264 198 l 1204 198 l 1169 33 m 1264 220 q 1267 228 1264 225 l 1221 277 l 1210 220 l 1264 220 m 1443 513 q 1443 521 1443 518 q 1446 534 1443 524 l 1321 749 l 1226 304 l 1283 244 q 1294 250 1286 247 l 1443 513 z "},"":{"ha":1215,"x_min":52,"x_max":1164,"o":"m 887 933 l 1164 1215 l 1164 57 q 1092 -109 1164 -43 q 917 -174 1020 -174 l 298 -174 q 123 -109 195 -174 q 52 57 52 -43 l 52 678 q 123 859 52 784 q 298 933 195 933 l 887 933 m 418 87 l 418 84 l 1025 84 l 887 228 l 887 562 q 875 606 887 586 q 842 639 863 627 q 800 651 822 651 l 418 651 q 357 624 382 651 q 331 562 331 597 l 331 174 q 357 113 331 138 q 418 87 382 87 z "},"":{"ha":1215,"x_min":0,"x_max":1215,"o":"m 16 374 q 0 515 0 445 q 178 943 0 765 q 605 1120 355 1120 q 738 1107 670 1120 q 298 818 488 1009 q 16 374 109 627 m 1082 890 q 549 571 776 800 q 233 33 323 342 q 111 165 168 84 q 425 696 201 469 q 952 1012 648 922 q 1082 890 1025 960 m 1123 203 q 1215 -95 1172 73 q 925 -3 1066 -57 q 694 -90 817 -71 q 1204 429 876 250 q 1123 203 1188 307 m 1204 597 q 798 323 974 502 q 526 -90 621 144 q 372 -49 442 -79 q 673 446 464 233 q 1161 751 882 659 q 1204 597 1194 678 z "},"":{"ha":1563,"x_min":16,"x_max":1546,"o":"m 1050 914 l 1090 239 l 1061 239 q 781 163 909 241 q 502 239 659 239 q 168 163 350 239 l 252 863 q 502 914 372 914 q 781 798 667 914 q 1050 914 892 909 m 1544 0 q 1354 43 1446 0 q 1061 111 1204 111 q 781 0 892 111 q 502 111 670 111 q 209 43 358 111 q 22 0 114 0 l 19 0 l 133 947 q 494 1042 301 1042 q 781 963 667 1042 q 1069 1042 895 1042 q 1430 947 1261 1042 l 1544 0 m 1427 122 l 1335 882 q 1061 939 1207 939 q 781 836 892 939 q 502 939 670 939 q 228 882 355 939 l 136 122 q 259 171 214 155 q 370 199 304 187 q 502 212 437 212 q 781 133 654 212 q 1061 212 909 212 q 1233 190 1156 212 q 1427 122 1310 168 z "},"":{"ha":1736,"x_min":16,"x_max":1720,"o":"m 1465 572 q 1648 454 1576 545 q 1720 247 1720 363 q 1621 11 1720 109 q 1386 -87 1522 -87 l 350 -87 q 115 11 214 -87 q 16 247 16 109 q 69 426 16 345 q 209 548 122 507 q 201 610 201 578 q 231 724 201 673 q 313 807 260 776 q 429 838 366 838 q 578 781 513 838 q 739 1031 616 933 q 1020 1128 863 1128 q 1341 994 1207 1128 q 1476 673 1476 860 q 1465 572 1476 618 m 543 125 l 543 426 q 530 457 543 445 q 502 469 518 469 l 418 469 q 387 457 399 469 q 374 426 374 445 l 374 125 q 387 96 374 109 q 418 84 399 84 l 502 84 q 530 96 518 84 q 543 125 543 109 m 784 125 l 784 483 q 772 511 784 499 q 743 524 760 524 l 659 524 q 631 511 643 524 q 618 483 618 499 l 618 125 q 631 96 618 109 q 659 84 643 84 l 743 84 q 772 96 760 84 q 784 125 784 109 m 1028 125 l 1028 567 q 1023 587 1028 578 q 1008 602 1017 597 q 987 608 998 608 l 903 608 q 872 595 884 608 q 860 567 860 583 l 860 125 q 872 96 860 109 q 903 84 884 84 l 987 84 q 1016 96 1004 84 q 1028 125 1028 109 m 1264 125 l 1264 735 q 1252 765 1264 751 q 1223 779 1240 779 l 1145 779 q 1116 765 1128 779 q 1104 735 1104 751 l 1104 125 q 1116 96 1104 109 q 1145 84 1128 84 l 1223 84 q 1252 96 1240 84 q 1264 125 1264 109 z "},"":{"ha":1215,"x_min":0,"x_max":1215,"o":"m 271 103 l 282 130 l 366 92 l 355 65 l 271 103 m 377 54 l 391 81 l 472 46 l 461 19 l 377 54 m 846 92 l 928 130 l 939 103 l 857 65 l 846 92 m 486 8 l 499 35 l 581 -3 l 567 -30 l 486 8 m 163 149 l 176 176 l 258 138 l 247 114 l 163 149 m 738 46 l 819 81 l 833 54 l 749 19 l 738 46 m 629 -3 l 713 35 l 727 8 l 643 -30 l 629 -3 m 952 138 l 1036 176 l 1047 149 l 963 114 l 952 138 m 461 1088 l 461 1061 l 369 1061 l 369 1088 l 461 1088 m 334 1088 l 334 1061 l 241 1061 l 241 1088 l 334 1088 m 206 1088 l 206 1061 l 114 1061 l 114 1088 l 206 1088 m 589 1088 l 589 1061 l 499 1061 l 499 1088 l 589 1088 m 846 1088 l 846 1061 l 754 1061 l 754 1088 l 846 1088 m 974 1088 l 974 1061 l 882 1061 l 882 1088 l 974 1088 m 716 1088 l 716 1061 l 627 1061 l 627 1088 l 716 1088 m 1101 1088 l 1101 1061 l 1009 1061 l 1009 1088 l 1101 1088 m 144 263 l 144 171 l 114 171 l 114 263 l 144 263 m 334 849 l 334 819 l 241 819 l 241 849 l 334 849 m 144 819 l 144 757 l 114 757 l 114 849 l 206 849 l 206 819 l 144 819 m 777 273 q 741 237 777 273 q 602 201 705 201 q 426 273 499 201 q 353 448 353 345 q 426 623 353 551 q 602 694 499 694 q 777 623 705 694 q 849 448 849 551 q 777 273 849 345 m 472 502 q 505 445 472 461 q 576 431 537 429 q 648 427 616 434 q 681 399 681 420 q 591 358 681 358 q 494 399 515 358 l 469 350 q 597 317 521 317 q 692 336 648 317 q 735 401 735 355 q 701 464 735 445 q 628 480 667 483 q 555 481 589 477 q 521 505 521 486 q 602 545 521 545 q 700 510 675 545 l 703 510 l 724 553 q 605 586 646 586 q 545 581 572 586 q 495 555 518 575 q 472 502 472 534 m 144 732 l 144 640 l 114 640 l 114 732 l 144 732 m 1072 171 l 1072 263 l 1101 263 l 1101 171 l 1072 171 m 144 380 l 144 290 l 114 290 l 114 380 l 144 380 m 0 1204 l 1215 1204 l 1215 103 l 602 -163 l 0 103 l 0 1204 m 1137 155 l 1137 887 l 79 887 l 79 155 l 602 -76 l 1137 155 m 1137 966 l 1137 1126 l 79 1126 l 79 966 l 1137 966 m 144 613 l 144 524 l 114 524 l 114 613 l 144 613 m 144 496 l 144 407 l 114 407 l 114 496 l 144 496 m 461 849 l 461 819 l 369 819 l 369 849 l 461 849 m 1072 407 l 1072 496 l 1101 496 l 1101 407 l 1072 407 m 1072 524 l 1072 613 l 1101 613 l 1101 524 l 1072 524 m 589 849 l 589 819 l 499 819 l 499 849 l 589 849 m 1072 640 l 1072 732 l 1101 732 l 1101 640 l 1072 640 m 1072 288 l 1072 380 l 1101 380 l 1101 288 l 1072 288 m 716 849 l 716 819 l 627 819 l 627 849 l 716 849 m 846 849 l 846 819 l 754 819 l 754 849 l 846 849 m 1072 757 l 1072 819 l 1009 819 l 1009 849 l 1101 849 l 1101 757 l 1072 757 m 974 849 l 974 819 l 882 819 l 882 849 l 974 849 z "},"":{"ha":1389,"x_min":11,"x_max":1378,"o":"m 1305 1042 q 1356 1021 1335 1042 q 1378 971 1378 1001 l 1378 71 q 1356 20 1378 41 q 1305 0 1335 0 l 84 0 q 33 20 54 0 q 11 71 11 41 l 11 971 q 33 1021 11 1001 q 84 1042 54 1042 l 372 1042 q 407 1032 391 1042 q 433 1006 423 1023 q 442 971 442 990 l 442 863 l 947 863 l 947 971 q 967 1021 947 1001 q 1017 1042 987 1042 l 1305 1042 m 278 302 q 304 276 278 302 q 406 250 331 250 q 533 302 480 250 q 586 430 586 355 q 533 557 586 505 q 406 610 480 610 q 278 557 331 610 q 225 430 225 505 q 278 302 225 355 m 856 302 q 882 276 856 302 q 983 250 909 250 q 1111 302 1058 250 q 1164 430 1164 355 q 1111 557 1164 505 q 983 610 1058 610 q 856 557 909 610 q 803 430 803 505 q 856 302 803 355 z "},"":{"ha":1736,"x_min":0,"x_max":1736,"o":"m 1736 323 q 1644 100 1736 190 q 1416 11 1552 11 q 1264 41 1337 11 q 1137 118 1191 71 q 1027 227 1082 165 q 926 351 971 288 q 826 475 882 415 q 718 583 770 534 q 593 661 665 632 q 442 689 521 689 q 251 629 328 689 q 156 486 174 570 q 157 317 138 401 q 258 174 176 233 q 456 114 339 114 q 798 228 637 114 q 810 240 800 231 q 827 256 819 250 q 844 269 836 263 q 857 274 852 274 q 879 264 871 274 q 887 244 887 255 q 838 179 887 222 q 639 57 751 103 q 418 11 526 11 q 122 122 244 11 q 0 404 0 233 q 56 612 0 518 q 206 757 111 705 q 415 808 301 808 q 586 780 505 808 q 727 705 667 751 q 846 600 787 659 q 952 476 906 540 q 1051 353 998 412 q 1154 247 1104 293 q 1267 171 1204 201 q 1397 141 1329 141 q 1525 180 1473 141 q 1588 275 1576 220 q 1588 387 1600 331 q 1526 481 1576 442 q 1405 521 1476 521 q 1336 506 1381 521 q 1278 491 1291 491 q 1248 503 1261 491 q 1234 532 1234 515 q 1242 581 1234 548 q 1251 629 1251 613 q 1160 853 1251 765 q 933 941 1069 941 q 814 917 868 941 q 728 867 760 892 q 692 841 697 841 q 670 850 678 841 q 662 873 662 860 q 684 911 662 887 q 960 1031 787 1031 q 1111 1002 1042 1031 q 1230 924 1180 974 q 1309 804 1280 873 q 1337 656 1337 735 q 1335 600 1337 624 q 1432 613 1383 613 q 1647 529 1557 613 q 1736 323 1736 445 z "},"":{"ha":1042,"x_min":0,"x_max":1042,"o":"m 553 1199 q 897 1074 751 1199 q 1042 751 1042 949 q 1016 562 1042 654 q 941 391 990 469 q 810 266 892 312 q 624 220 727 220 q 515 245 570 220 q 437 317 461 271 q 414 225 429 285 q 395 148 399 165 q 378 90 391 130 q 357 31 366 49 q 330 -19 347 14 q 292 -81 312 -52 q 241 -152 271 -111 q 232 -157 233 -157 q 222 -149 231 -157 q 212 5 212 -19 q 229 172 212 79 q 283 407 247 266 q 326 572 320 548 q 298 711 298 624 q 399 884 298 841 q 529 860 480 920 q 553 779 553 827 q 518 625 553 727 q 483 472 483 524 q 519 387 483 420 q 608 353 556 353 q 724 396 673 353 q 802 507 776 439 q 840 642 827 575 q 852 768 852 708 q 764 987 852 909 q 532 1066 675 1066 q 260 960 369 1066 q 152 692 152 854 q 183 570 152 629 q 214 507 214 510 q 202 449 214 486 q 174 412 190 412 q 58 496 117 412 q 0 711 0 581 q 167 1063 0 928 q 553 1199 334 1199 z "},"":{"ha":1215,"x_min":0,"x_max":1215,"o":"m 1034 952 q 1215 526 1215 770 q 1036 100 1215 277 q 608 -76 857 -76 q 320 -3 453 -76 l 0 -87 l 87 225 q 5 526 5 363 q 182 952 5 776 q 608 1128 358 1128 q 1034 952 857 1128 m 608 24 q 963 172 814 24 q 1112 526 1112 320 q 960 879 1115 727 q 608 1025 814 1025 q 254 879 401 1025 q 106 526 106 732 q 184 260 106 382 l 195 241 l 144 57 l 334 106 l 353 95 q 608 24 469 24 m 882 401 q 911 382 909 388 q 901 309 920 366 q 859 264 892 288 q 800 239 825 241 q 618 277 730 228 q 363 505 486 334 q 301 659 301 589 q 353 787 301 727 q 393 803 372 803 q 423 803 415 803 q 456 779 448 803 q 502 667 502 667 q 505 640 510 651 q 477 598 494 616 q 458 578 461 581 q 461 559 456 575 q 544 453 499 488 q 665 380 589 418 q 697 382 686 369 q 746 442 732 423 q 779 450 757 458 q 882 401 800 442 z "},"":{"ha":1042,"x_min":0,"x_max":1042,"o":"m 1042 1128 l 911 825 l 1042 825 l 1042 694 l 857 694 l 819 608 l 1042 608 l 1042 477 l 762 477 l 521 -87 l 279 477 l 0 477 l 0 608 l 222 608 l 184 694 l 0 694 l 0 825 l 130 825 l 0 1128 l 174 1128 l 393 608 l 648 608 l 868 1128 l 1042 1128 m 521 304 l 594 477 l 448 477 l 521 304 z "},"":{"ha":1215,"x_min":0,"x_max":1215,"o":"m 0 1128 l 1215 1128 l 1215 -87 l 0 -87 l 0 1128 m 1009 841 l 1009 854 l 784 854 l 624 453 l 439 854 l 203 854 l 203 841 l 279 749 q 290 722 293 738 l 290 361 q 279 326 293 342 l 193 222 l 193 209 l 437 209 l 437 222 l 350 326 q 339 361 336 342 l 339 673 l 553 209 l 578 209 l 760 673 l 760 301 q 754 285 760 290 l 689 220 l 689 206 l 1009 206 l 1009 220 l 944 282 q 939 301 936 290 l 939 760 q 944 779 936 770 l 1009 841 z "},"":{"ha":1215,"x_min":0,"x_max":1215,"o":"m 1215 1128 l 1215 -87 l 0 -87 l 0 1128 l 1215 1128 m 640 434 l 852 830 l 762 830 l 637 583 q 602 510 618 545 l 570 583 l 448 830 l 353 830 l 559 439 l 559 184 l 640 184 l 640 434 z "},"":{"ha":1563,"x_min":-5,"x_max":1568,"o":"m 1554 73 q 1557 43 1560 54 q 1491 -75 1560 -19 q 1359 -133 1421 -130 q 1242 -71 1278 -138 q 320 -71 741 -87 q 203 -133 282 -136 q 72 -75 141 -130 q 3 43 3 -19 q 8 73 5 60 q 0 102 -3 92 q 24 103 3 111 q 54 141 35 122 q 84 165 43 187 q 127 190 103 179 q 145 221 127 220 q 174 206 163 222 q 247 190 217 214 l 247 244 q 202 255 228 244 q 152 289 176 266 q 122 342 127 312 q 190 472 100 434 q 205 496 193 483 q 231 515 217 510 q 269 488 258 524 q 326 467 315 488 q 349 468 334 467 q 372 469 363 469 q 350 483 361 477 q 282 515 331 513 q 282 521 282 518 q 133 570 174 524 q 100 715 90 618 q 168 852 111 811 q 205 854 184 863 q 228 825 225 846 q 229 807 228 819 q 232 793 231 795 q 235 781 233 792 q 237 772 236 770 q 243 765 239 773 q 251 760 247 757 q 263 755 255 762 q 279 754 271 749 q 298 754 288 760 q 372 808 334 787 q 252 798 342 811 q 407 914 328 873 q 613 977 513 966 q 450 1020 578 990 q 1115 920 887 1112 q 1229 757 1185 857 q 1265 754 1251 754 q 1291 754 1280 754 q 1309 758 1302 754 q 1320 764 1316 762 q 1326 776 1324 765 q 1331 789 1329 787 q 1333 806 1332 792 q 1335 825 1335 819 q 1358 853 1337 844 q 1397 849 1378 863 q 1462 719 1449 811 q 1430 570 1476 621 q 1283 521 1389 524 l 1283 513 q 1213 483 1232 513 q 1191 469 1202 477 q 1214 467 1199 469 q 1237 464 1229 464 q 1294 488 1245 488 q 1332 515 1305 521 q 1358 499 1345 513 q 1373 472 1370 486 q 1440 401 1430 448 q 1440 342 1446 372 q 1389 270 1430 296 q 1316 244 1348 244 q 1316 190 1316 209 q 1389 206 1345 212 q 1417 221 1400 222 q 1435 190 1435 220 q 1478 165 1459 179 q 1507 168 1500 176 q 1508 141 1514 160 q 1538 103 1530 119 q 1563 102 1560 111 q 1554 73 1565 92 m 1354 762 q 1435 665 1413 738 q 1428 736 1438 692 q 1397 803 1419 781 q 1379 814 1389 811 q 1364 812 1370 817 q 1359 800 1359 808 q 1354 762 1359 779 m 1340 743 q 1302 727 1329 732 q 1337 556 1359 662 q 1408 589 1386 567 q 1421 610 1416 600 q 1340 743 1416 719 m 1275 724 q 1242 724 1253 724 q 1283 551 1275 640 q 1313 553 1297 551 q 1314 651 1326 602 q 1275 724 1302 700 m 130 665 q 212 762 152 738 q 203 800 203 781 q 193 815 203 814 q 165 803 182 817 q 136 736 146 781 q 130 665 125 692 m 155 589 q 225 556 176 567 q 260 727 206 662 q 222 743 233 732 q 141 610 149 719 q 155 589 149 597 m 285 551 q 339 722 296 643 q 298 708 326 719 l 266 694 l 266 697 q 250 553 231 629 q 285 551 271 551 m 784 993 q 680 964 727 993 q 605 888 632 936 q 578 787 578 841 q 639 639 578 700 q 785 578 700 578 q 930 639 871 578 q 990 787 990 700 q 930 932 990 871 q 784 993 871 993 m 1099 518 q 990 521 1082 521 q 1006 407 1001 472 q 1023 361 1012 361 q 1036 363 1028 361 q 1081 427 1066 380 q 1099 518 1096 475 m 952 524 q 798 524 873 524 q 798 461 795 505 q 808 412 800 418 q 878 401 830 401 q 947 410 925 401 q 955 463 955 423 q 952 524 955 502 m 754 377 q 762 445 762 393 q 760 524 762 496 q 709 524 741 524 q 651 522 678 524 q 602 521 624 521 q 595 445 597 494 q 608 382 594 396 q 681 370 632 372 q 754 377 730 369 m 467 515 q 469 429 453 472 q 526 366 486 385 q 553 380 548 355 q 559 445 556 391 q 567 521 562 499 q 467 515 521 518 m 369 431 q 347 396 382 410 q 770 109 551 182 q 1000 214 898 144 q 1215 399 1101 285 q 1194 429 1188 410 q 1171 433 1183 431 q 1145 435 1158 434 q 1123 437 1131 437 q 1042 331 1096 347 q 996 353 1012 320 q 982 396 990 361 q 917 372 974 377 q 798 380 838 366 q 781 355 792 363 q 761 346 770 347 q 724 342 751 345 q 575 372 591 328 q 507 342 572 307 q 453 391 469 361 q 434 439 439 412 q 369 431 391 434 m 312 -38 q 315 -16 315 -27 q 293 49 307 19 q 260 102 279 79 q 222 130 241 125 q 106 95 174 146 q 43 -16 38 43 q 76 -54 57 -35 q 117 -85 95 -73 q 161 -106 138 -98 q 203 -117 184 -114 q 273 -95 241 -117 q 312 -38 304 -73 m 288 141 q 334 0 328 68 q 621 127 477 84 q 355 336 505 190 q 336 328 353 334 q 345 313 334 323 q 350 293 355 304 q 309 269 342 277 q 288 252 301 260 q 288 141 285 190 m 1204 -33 q 1142 1 1169 -14 q 1082 33 1115 16 q 1020 62 1050 49 q 956 88 990 76 q 890 111 922 100 q 776 68 836 87 q 765 68 770 65 q 670 103 719 81 q 363 -33 515 60 l 363 -35 l 363 -33 q 1204 -33 751 -49 m 1232 0 q 1278 141 1237 73 l 1275 141 q 1278 252 1278 198 q 1256 271 1267 258 q 1215 293 1226 277 q 1232 323 1210 309 q 1229 328 1229 326 q 1210 336 1218 331 q 928 130 1061 198 q 1232 0 1077 84 m 1519 -16 q 1457 95 1525 43 q 1340 130 1389 146 q 1287 79 1313 122 q 1248 -16 1261 35 q 1282 -90 1248 -62 q 1359 -117 1316 -117 q 1446 -85 1397 -114 q 1519 -16 1495 -57 m 1012 1012 q 849 1108 939 1090 q 670 1074 760 1126 q 784 1171 703 1150 q 936 1147 865 1191 q 1012 1012 1006 1104 m 203 111 q 250 83 233 114 q 252 27 266 52 q 231 -1 247 14 q 193 -30 214 -16 q 157 -46 171 -43 q 95 -43 122 -57 q 68 -5 68 -30 q 118 68 68 27 q 203 111 168 109 m 789 589 q 681 636 724 589 q 651 751 637 684 q 728 722 678 708 q 779 781 779 735 q 732 841 779 827 q 865 830 800 868 q 930 722 930 792 q 888 627 930 665 q 789 589 846 589 m 184 -71 q 199 -45 184 -60 q 233 -18 214 -30 q 263 -3 252 -5 q 288 -19 279 0 q 290 -52 296 -38 q 244 -98 274 -84 q 205 -94 225 -103 q 184 -71 184 -84 m 1359 111 q 1444 68 1394 109 q 1495 -5 1495 27 q 1468 -43 1495 -30 q 1405 -46 1440 -57 q 1350 -16 1381 -41 q 1308 27 1318 8 q 1313 83 1297 52 q 1359 111 1329 114 m 1299 -3 q 1350 -30 1318 -5 q 1378 -71 1381 -54 q 1358 -94 1378 -84 q 1321 -98 1337 -103 q 1272 -52 1286 -84 q 1275 -19 1267 -38 q 1299 -3 1283 0 z "},"":{"ha":1736,"x_min":0,"x_max":1747,"o":"m 1112 107 q 1130 89 1112 107 q 1147 19 1147 71 q 1112 -68 1147 -33 q 1025 -103 1077 -103 q 937 -68 974 -103 q 901 19 901 -33 q 937 107 901 71 q 1025 144 974 144 q 1112 107 1077 144 m 372 107 q 389 125 372 107 q 458 144 407 144 q 547 107 510 144 q 583 19 583 71 q 547 -68 583 -33 q 458 -103 510 -103 q 372 -68 407 -103 q 336 19 336 -33 q 372 107 336 71 m 1251 876 q 1436 873 1356 876 q 1571 860 1516 871 q 1666 841 1625 849 q 1717 810 1706 833 q 1736 772 1728 787 q 1720 722 1744 757 q 1679 665 1695 686 q 1610 595 1663 643 q 1525 519 1557 548 q 1419 429 1492 491 q 1204 241 1280 309 q 1306 377 1237 301 q 1427 503 1375 453 q 1506 606 1478 553 q 1501 690 1533 659 q 1351 739 1470 722 q 1012 754 1232 757 q 723 762 854 751 q 502 789 591 773 q 335 837 412 806 q 216 892 258 868 q 133 958 174 917 q 76 1021 92 998 q 34 1088 60 1044 q 0 1145 8 1131 q 251 970 114 1025 q 602 895 388 914 q 1251 876 817 876 z "},"":{"ha":1345,"x_min":0,"x_max":1345,"o":"m 264 929 q 349 1014 264 929 q 673 1099 434 1099 q 1081 929 911 1099 q 1251 521 1251 760 q 1081 113 1251 282 q 673 -57 911 -57 q 264 113 434 -57 q 95 521 95 282 q 264 929 95 760 m 410 738 l 407 738 l 407 665 q 431 640 407 640 l 480 640 q 505 665 505 640 l 505 738 q 538 844 505 800 q 623 898 572 887 q 722 898 673 909 q 806 844 770 887 q 841 738 841 800 l 841 665 q 865 640 841 640 l 911 640 q 936 665 936 640 l 936 738 q 859 924 936 846 q 673 1001 781 1001 q 541 966 602 1001 q 445 869 480 930 q 410 738 410 808 m 1058 184 l 1058 570 q 1043 602 1058 589 q 1009 616 1028 616 l 336 616 q 302 602 317 616 q 288 570 288 589 l 288 184 q 302 151 288 165 q 336 136 317 136 l 1009 136 q 1043 151 1028 136 q 1058 184 1058 165 m 385 556 l 385 195 q 372 184 385 184 l 347 184 q 336 195 336 184 l 336 556 q 347 570 336 570 l 372 570 q 385 556 385 570 m 768 426 q 722 342 768 369 l 722 258 q 697 233 722 233 l 648 233 q 624 258 624 233 l 624 342 q 575 426 575 369 q 604 492 575 464 q 673 521 632 521 q 741 492 713 521 q 768 426 768 464 m 197 997 q 295 1095 197 997 q 673 1194 393 1194 q 1149 997 952 1194 q 1345 521 1345 800 q 1149 45 1345 241 q 673 -152 952 -152 q 197 45 393 -152 q 0 521 0 241 q 197 997 0 800 m 232 80 q 323 -12 232 80 q 673 -103 415 -103 q 1114 80 930 -103 q 1297 521 1297 263 q 1114 962 1297 779 q 673 1145 930 1145 q 232 962 415 1145 q 49 521 49 779 q 232 80 49 263 z "},"":{"ha":1563,"x_min":0,"x_max":1563,"o":"m 1172 553 l 1172 640 l 1275 640 l 1275 640 q 1310 597 1310 632 q 1275 553 1310 559 q 1172 553 1272 553 m 1286 499 q 1324 452 1324 491 q 1286 407 1324 412 q 1172 404 1280 404 l 1172 499 q 1286 499 1280 499 m 1563 998 l 1563 43 q 1525 -49 1563 -11 q 1432 -87 1487 -87 l 130 -87 q 38 -49 76 -87 q 0 43 0 -11 l 0 998 q 38 1090 0 1053 q 130 1128 76 1128 l 1432 1128 q 1525 1090 1487 1128 q 1563 998 1563 1053 m 494 694 l 339 694 q 340 621 339 665 q 342 555 342 578 q 340 500 342 532 q 334 454 339 469 q 317 425 328 439 q 288 403 307 410 q 241 396 269 396 q 87 437 168 396 l 87 361 q 137 349 109 353 q 187 342 165 345 q 229 339 209 339 q 260 339 250 339 l 271 336 q 357 345 320 336 q 418 361 393 353 q 458 391 442 369 q 483 429 475 412 q 494 481 491 445 q 496 541 496 518 q 495 614 496 564 q 494 694 494 665 m 977 681 q 834 703 909 700 q 690 693 760 705 q 576 636 621 681 q 532 521 532 591 q 578 403 532 448 q 697 347 624 358 q 842 340 770 336 q 977 361 914 345 l 977 437 q 845 396 911 401 q 732 422 779 391 q 686 521 686 453 q 732 620 686 589 q 845 646 779 651 q 977 605 911 640 l 977 681 m 1476 439 q 1472 461 1476 450 q 1462 481 1468 472 q 1447 499 1457 491 q 1426 513 1438 507 q 1400 521 1413 518 q 1373 526 1386 524 q 1432 555 1411 532 q 1454 608 1454 578 q 1442 654 1454 635 q 1407 682 1430 673 q 1354 694 1383 692 l 1036 694 l 1028 694 l 1028 347 l 1362 347 q 1443 372 1411 347 q 1476 439 1476 396 z "},"":{"ha":1563,"x_min":0,"x_max":1563,"o":"m 313 859 q 383 928 313 859 q 651 998 453 998 q 989 859 849 998 q 1128 522 1128 719 q 989 184 1128 326 q 651 43 849 43 q 313 184 453 43 q 174 522 174 326 q 313 859 174 719 m 543 239 l 543 803 q 401 693 456 770 q 347 521 347 616 q 401 350 347 426 q 543 239 456 274 m 760 239 q 898 350 844 274 q 952 521 952 426 q 943 595 952 559 q 917 663 933 632 q 876 722 901 694 q 822 770 852 749 q 760 803 792 792 l 760 239 m 1432 1128 q 1525 1090 1487 1128 q 1563 998 1563 1053 l 1563 43 q 1525 -49 1563 -11 q 1432 -87 1487 -87 l 130 -87 q 38 -49 76 -87 q 0 43 0 -11 l 0 998 q 38 1090 0 1053 q 130 1128 76 1128 l 1432 1128 m 895 0 q 1274 153 1109 0 q 1438 515 1438 307 q 1276 892 1438 743 q 895 1042 1115 1042 l 648 1042 q 385 977 505 1042 q 195 789 266 911 q 125 515 125 667 q 279 152 125 304 q 648 0 434 0 l 895 0 z "},"":{"ha":1345,"x_min":0,"x_max":1345,"o":"m 667 632 l 578 586 q 502 640 551 640 q 412 521 412 640 q 502 401 412 401 q 586 458 562 401 l 667 418 q 491 312 610 312 q 434 320 464 312 q 369 347 404 328 q 312 412 334 366 q 290 521 290 458 q 351 680 290 629 q 488 730 412 730 q 667 632 613 730 m 1055 632 l 966 586 q 890 640 941 640 q 800 521 800 640 q 890 401 800 401 q 974 458 949 401 l 1058 418 q 882 312 998 312 q 822 320 852 312 q 758 347 792 328 q 703 411 724 366 q 681 521 681 456 q 742 680 681 629 q 876 730 803 730 q 1055 632 1001 730 m 673 1194 q 1152 998 958 1194 q 1345 521 1345 803 q 1290 247 1345 374 q 1141 34 1234 119 q 925 -102 1047 -52 q 673 -152 803 -152 q 198 45 396 -152 q 0 521 0 241 q 85 854 0 700 q 327 1101 171 1009 q 673 1194 483 1194 m 673 -30 q 1058 126 892 -30 q 1223 521 1223 282 q 1063 911 1223 751 q 673 1072 903 1072 q 281 906 439 1072 q 122 521 122 741 q 283 133 122 296 q 673 -30 445 -30 z "},"":{"ha":1389,"x_min":0,"x_max":1389,"o":"m 486 591 l 765 312 l 486 35 l 0 521 l 486 1006 l 608 884 l 537 817 l 486 868 l 138 521 l 486 174 l 627 315 l 418 521 l 486 591 m 903 1006 l 1389 521 l 903 35 l 781 157 l 852 225 l 903 174 l 1251 521 l 903 868 l 762 727 l 971 521 l 903 450 l 624 730 l 903 1006 z "},"":{"ha":1389,"x_min":24,"x_max":1370,"o":"m 221 997 q 319 1095 221 997 q 697 1194 418 1194 q 1173 997 977 1194 q 1370 521 1370 800 q 1173 45 1370 241 q 697 -152 977 -152 q 221 45 418 -152 q 24 521 24 241 q 221 997 24 800 m 564 176 l 765 380 l 556 591 l 491 524 l 635 380 l 562 309 l 353 518 l 562 727 l 591 697 l 659 762 l 564 860 l 222 518 l 564 176 m 830 182 l 1172 524 l 830 865 l 629 662 l 838 450 l 903 518 l 760 662 l 830 732 l 1042 524 l 830 315 l 800 345 l 735 279 l 830 182 z "},"":{"ha":1563,"x_min":-22,"x_max":1581,"o":"m 450 453 q 442 422 450 437 q 419 399 434 407 q 385 391 404 391 q 340 410 361 391 q 320 454 320 429 q 340 499 320 480 q 387 518 361 518 q 431 499 412 518 q 450 453 450 480 m 1169 518 q 1203 510 1188 518 q 1226 487 1218 502 q 1234 453 1234 472 q 1215 410 1234 429 q 1169 391 1196 391 q 1123 410 1142 391 q 1104 454 1104 429 q 1123 499 1104 480 q 1169 518 1142 518 m 1413 141 q 1124 61 1286 41 q 863 209 963 81 l 779 81 l 697 206 q 444 64 600 84 q 160 136 288 43 q 5 391 30 231 q 76 681 -19 551 q 0 838 52 765 l 244 838 q 492 941 342 898 q 760 985 643 985 q 779 985 768 985 q 798 985 789 985 q 1057 941 909 985 q 1302 838 1204 898 l 1563 838 q 1484 684 1511 768 q 1558 397 1579 556 q 1413 141 1538 239 m 612 231 q 657 277 612 231 q 703 452 703 323 q 612 671 703 581 q 392 762 521 762 q 171 671 263 762 q 79 452 79 581 q 171 231 79 323 q 392 138 263 138 q 612 231 521 138 m 781 480 q 901 732 792 629 q 1158 841 1009 836 q 979 894 1085 871 q 792 917 873 917 q 779 917 787 917 q 770 917 776 917 q 581 895 689 917 q 399 841 472 873 q 543 811 475 841 q 661 734 610 781 q 743 620 711 686 q 781 480 776 553 m 1454 319 q 1481 378 1454 319 q 1463 557 1508 437 q 1302 732 1419 678 q 1063 742 1185 787 q 887 581 941 697 q 878 342 833 464 q 1040 165 922 220 q 1279 156 1158 111 q 1454 319 1400 201 m 524 591 q 552 563 524 591 q 581 454 581 534 q 524 317 581 374 q 387 260 467 260 q 250 317 307 260 q 193 454 193 374 q 250 591 193 534 q 387 648 307 648 q 524 591 467 648 m 513 453 l 513 456 q 476 544 513 507 q 385 581 439 581 q 323 564 353 581 q 277 518 293 548 q 260 453 260 488 q 297 365 260 401 q 387 328 334 328 q 476 365 439 328 q 513 453 513 401 m 1364 453 q 1337 357 1364 401 q 1267 286 1310 312 q 1169 260 1223 260 q 1034 317 1090 260 q 977 454 977 374 q 1034 591 977 534 q 1171 648 1090 648 q 1306 591 1251 648 q 1364 453 1362 534 m 1260 365 q 1278 383 1260 365 q 1297 454 1297 401 q 1260 544 1297 507 q 1171 581 1223 581 q 1081 544 1118 581 q 1044 454 1044 507 q 1081 365 1044 401 q 1171 328 1118 328 q 1260 365 1223 328 z "},"":{"ha":868,"x_min":3,"x_max":857,"o":"m 746 309 q 502 236 656 252 l 559 179 l 765 -27 q 784 -110 800 -62 q 726 -170 768 -157 q 643 -152 684 -182 q 434 57 589 -98 l 228 -149 q 145 -168 193 -184 q 85 -110 98 -152 q 106 -27 73 -68 q 312 182 312 182 l 369 236 q 122 309 209 252 q 27 389 49 358 q 30 469 5 420 q 83 514 46 505 q 176 486 119 524 q 209 464 187 477 q 297 429 231 450 q 434 407 363 407 q 570 426 505 407 q 662 467 635 445 l 692 486 q 785 514 749 524 q 841 469 822 505 q 852 423 849 439 q 838 385 854 407 q 803 349 822 363 q 746 309 784 334 m 81 863 q 184 1112 81 1009 q 434 1215 288 1215 q 610 1168 529 1215 q 739 1040 692 1120 q 787 863 787 960 q 684 616 787 719 q 434 513 581 513 q 184 616 288 513 q 81 863 81 719 m 260 863 q 312 742 260 792 q 434 692 363 692 q 556 742 505 692 q 608 863 608 792 q 556 986 608 936 q 434 1036 505 1036 q 347 1013 388 1036 q 283 951 307 990 q 260 863 260 911 z "},"":{"ha":1215,"x_min":0,"x_max":1215,"o":"m 532 658 q 515 673 532 658 q 499 734 499 689 q 532 811 499 779 q 608 844 564 844 q 684 811 651 844 q 716 734 716 779 q 684 658 716 689 q 608 627 651 627 q 532 658 564 627 m 1215 998 l 1215 43 q 1177 -49 1215 -11 q 1085 -87 1139 -87 l 130 -87 q 38 -49 76 -87 q 0 43 0 -11 l 0 998 q 38 1090 0 1053 q 130 1128 76 1128 l 1085 1128 q 1177 1090 1139 1128 q 1215 998 1215 1053 m 452 891 q 420 859 452 891 q 388 735 388 827 q 452 579 388 643 q 608 515 515 515 q 764 579 700 515 q 827 734 827 643 q 764 890 827 825 q 608 955 700 955 q 452 891 515 955 m 860 488 q 827 515 849 510 q 768 499 806 521 q 608 450 708 450 q 524 463 564 450 q 464 486 483 475 l 448 499 q 388 515 410 521 q 355 488 366 510 q 347 450 339 469 q 368 420 355 431 q 412 388 380 410 q 567 342 467 353 l 532 309 q 401 179 532 307 q 404 104 366 144 q 477 100 442 65 l 608 231 q 738 100 705 133 q 811 103 773 65 q 814 179 849 141 l 686 309 l 651 342 q 803 388 746 353 q 863 438 849 418 q 860 488 876 458 z "},"":{"ha":1215,"x_min":0,"x_max":1215,"o":"m 1107 1042 q 1184 1009 1153 1042 q 1215 930 1215 977 l 1215 564 q 1038 134 1215 312 q 608 -43 860 -43 q 178 134 355 -43 q 0 564 0 312 l 0 930 q 33 1009 0 977 q 111 1042 65 1042 l 1107 1042 m 667 315 q 825 464 732 377 q 956 594 936 570 q 977 648 977 618 q 952 705 977 681 q 895 730 928 730 q 846 713 868 730 q 732 608 825 697 q 608 488 659 537 q 480 613 556 540 q 372 713 393 697 q 323 730 350 730 q 263 705 288 730 q 239 648 239 681 q 259 595 239 618 q 393 464 279 572 q 551 315 486 377 q 608 290 575 290 q 667 315 640 290 z "},"":{"ha":1736,"x_min":-3,"x_max":1736,"o":"m 1736 1077 l 1736 1044 q 1584 933 1630 1042 q 1510 764 1568 898 q 1400 507 1451 629 q 1280 229 1348 385 q 1164 -38 1213 73 l 1126 -38 l 903 486 q 784 255 884 448 q 635 -38 684 62 q 614 -39 635 -41 q 594 -38 594 -38 q 400 407 532 111 q 206 854 269 703 q 114 979 179 914 q 0 1042 49 1044 q 0 1061 0 1047 q 0 1080 0 1074 l 439 1080 l 439 1044 q 347 1015 391 1042 q 320 949 304 987 q 483 578 339 911 q 662 168 627 244 q 720 279 681 203 q 804 438 760 355 q 865 556 849 521 q 772 766 852 583 q 670 990 692 949 q 518 1042 640 1042 l 518 1080 l 903 1080 l 903 1044 q 834 1024 860 1042 q 825 974 808 1006 q 890 830 849 920 q 955 689 930 741 q 1085 963 1034 838 q 1090 1008 1099 990 q 1055 1034 1082 1025 q 982 1042 1028 1042 q 982 1061 982 1047 q 982 1080 982 1074 q 1109 1080 1028 1080 q 1246 1080 1191 1080 q 1316 1080 1302 1080 l 1316 1044 q 1158 958 1213 1039 l 998 624 q 1093 406 1006 600 q 1185 201 1180 212 l 1516 966 q 1462 1024 1503 1006 q 1389 1042 1421 1042 l 1389 1080 l 1736 1077 z "},"":{"ha":1389,"x_min":22,"x_max":1367,"o":"m 746 469 l 450 277 l 643 572 l 746 469 m 218 997 q 317 1095 218 997 q 694 1194 415 1194 q 1171 997 974 1194 q 1367 521 1367 800 q 1171 45 1367 241 q 694 -152 974 -152 q 218 45 415 -152 q 22 521 22 241 q 218 997 22 800 m 1118 719 q 1104 700 1104 713 q 1107 692 1104 694 q 1126 678 1112 678 q 1134 678 1131 678 l 1175 697 q 1188 716 1188 703 q 1185 724 1188 722 q 1166 738 1180 738 q 1158 735 1161 738 l 1118 719 m 852 960 q 852 952 852 958 q 865 933 852 939 q 873 930 868 930 q 892 944 887 930 l 909 985 q 911 993 911 987 q 898 1012 911 1006 q 890 1015 895 1015 q 871 1001 876 1015 l 852 960 m 716 1031 q 694 1053 716 1053 q 673 1031 673 1053 l 673 987 q 694 966 673 966 q 716 987 716 966 l 716 1031 m 491 1012 q 477 993 477 1006 q 480 985 477 987 l 496 944 q 515 930 502 930 q 537 952 537 930 q 537 960 537 955 l 518 1001 q 499 1015 513 1015 q 491 1012 494 1015 m 334 903 q 330 903 334 903 q 319 897 326 903 q 312 882 312 890 q 317 865 312 873 l 350 836 q 365 830 355 830 q 380 836 374 830 q 385 850 385 841 q 380 865 385 860 l 350 898 q 334 903 342 903 m 184 543 q 163 521 163 543 q 184 499 163 499 l 228 499 q 250 521 250 499 q 228 543 250 543 l 184 543 m 271 323 q 285 342 285 328 q 282 350 285 347 q 263 363 277 363 q 255 363 258 363 l 214 345 q 201 326 201 339 q 203 317 201 320 q 222 304 209 304 q 231 307 228 304 l 271 323 m 282 692 q 285 700 285 694 q 271 719 285 713 l 231 735 q 222 738 228 738 q 203 724 209 738 q 201 716 201 722 q 214 697 201 703 l 255 678 q 263 678 258 678 q 282 692 277 678 m 537 81 q 537 90 537 87 q 515 111 537 111 q 496 98 502 111 l 480 57 q 477 49 477 54 q 499 27 477 27 q 518 41 513 27 l 537 81 m 716 11 l 716 54 q 694 76 716 76 q 673 54 673 76 l 673 11 q 694 -11 673 -11 q 716 11 716 -11 m 898 30 q 911 49 911 35 q 909 57 911 54 l 892 98 q 873 111 887 111 q 865 109 868 111 q 852 90 852 103 q 852 81 852 84 l 871 41 q 890 27 876 27 q 898 30 895 27 m 1055 138 q 1059 138 1055 138 q 1070 145 1063 138 q 1077 160 1077 152 q 1072 176 1077 168 l 1039 206 q 1024 212 1034 212 q 1009 206 1015 212 q 1004 191 1004 201 q 1009 176 1004 182 l 1039 144 q 1055 138 1047 138 m 776 439 l 1090 917 l 613 602 l 298 125 l 776 439 m 1185 317 q 1188 326 1188 320 q 1175 345 1188 339 l 1134 363 q 1126 363 1131 363 q 1107 350 1112 363 q 1104 342 1104 347 q 1118 323 1104 328 l 1158 307 q 1166 304 1161 304 q 1185 317 1180 304 m 1204 499 q 1226 521 1226 499 q 1204 543 1226 543 l 1161 543 q 1139 521 1139 543 q 1161 499 1139 499 l 1204 499 z "},"":{"ha":1345,"x_min":0,"x_max":1392,"o":"m 358 624 l 149 944 q 382 1128 244 1063 q 670 1194 521 1194 q 1009 1104 852 1194 q 1272 825 1183 1004 l 716 854 q 601 842 656 857 q 498 799 545 827 q 414 726 450 770 q 358 624 377 681 m 445 521 q 476 635 445 583 q 559 718 507 686 q 673 749 610 749 q 834 682 768 749 q 901 521 901 616 q 834 359 901 426 q 673 293 768 293 q 511 359 578 293 q 445 521 445 426 m 1299 762 q 1308 300 1389 537 q 1009 -62 1226 62 q 635 -152 836 -163 l 939 317 q 1002 534 1006 415 q 922 743 998 654 l 1299 762 m 363 391 q 522 229 418 285 q 741 195 627 174 l 570 -144 q 163 83 326 -106 q 0 521 0 271 q 109 890 0 722 l 363 391 z "},"":{"ha":1389,"x_min":5,"x_max":1367,"o":"m 1367 562 q 1367 524 1367 548 q 1278 186 1367 342 q 1032 -60 1188 30 q 694 -149 876 -149 q 258 9 445 -149 q 30 410 71 168 q 28 423 30 415 q 27 437 27 431 q 71 773 5 618 q 132 878 92 827 q 206 944 171 928 q 136 716 144 825 q 304 963 182 871 q 529 1046 404 1036 q 705 1004 654 1055 q 509 833 591 966 q 450 543 426 700 q 483 434 458 486 q 464 549 461 483 q 496 662 467 616 q 571 726 529 708 q 646 738 613 743 q 618 712 635 738 q 594 670 602 686 q 578 589 578 632 q 578 586 578 589 q 598 500 578 548 q 648 426 618 453 q 876 359 746 336 q 1080 494 1006 382 q 1128 681 1128 564 q 1069 895 1128 798 q 996 982 1036 944 q 769 1112 901 1074 q 507 1126 637 1150 q 505 1126 507 1126 q 491 1123 499 1126 q 488 1123 491 1123 l 472 1118 q 336 1066 393 1101 l 336 1066 l 336 1066 l 336 1066 l 336 1066 q 340 1070 339 1069 q 345 1072 342 1072 q 570 1177 429 1150 q 692 1191 629 1191 l 722 1191 q 825 1180 773 1191 q 827 1180 825 1180 q 833 1180 830 1180 q 838 1179 833 1180 q 846 1177 844 1177 q 998 1123 925 1158 q 1017 1112 1012 1118 q 1085 1072 1053 1096 q 1118 1047 1101 1058 q 1166 1001 1145 1025 q 1232 928 1202 966 q 1234 924 1232 928 q 1240 917 1237 920 q 1242 914 1240 917 l 1245 909 q 1248 905 1248 906 q 1249 903 1248 903 q 1252 901 1251 903 q 1253 898 1253 898 q 1256 892 1256 895 l 1261 887 q 1264 882 1261 884 q 1267 876 1264 882 q 1270 873 1267 876 q 1271 871 1270 871 q 1272 868 1272 871 q 1274 865 1272 865 q 1276 863 1275 865 q 1278 860 1278 860 q 1279 854 1278 857 q 1283 849 1280 852 l 1286 846 l 1286 844 q 1289 838 1289 841 q 1291 834 1291 836 q 1293 831 1291 833 q 1294 829 1294 830 q 1297 825 1294 827 q 1297 822 1297 822 q 1302 814 1299 819 q 1316 781 1310 798 q 1317 776 1316 779 q 1321 770 1318 773 q 1321 768 1321 770 q 1322 765 1321 768 q 1324 761 1324 762 q 1325 758 1324 760 q 1328 753 1326 757 q 1329 749 1329 749 l 1329 746 q 1332 735 1332 741 q 1333 734 1332 735 q 1335 732 1335 732 q 1337 724 1335 730 q 1337 722 1337 724 q 1339 716 1337 719 q 1340 712 1340 713 q 1340 711 1340 711 l 1343 700 l 1345 697 q 1364 586 1359 643 l 1364 572 q 1367 562 1364 570 z "},"":{"ha":1345,"x_min":0,"x_max":1348,"o":"m 852 1126 q 556 1025 686 1126 q 369 780 426 925 q 330 464 312 635 q 450 163 347 293 q 852 -41 616 -41 q 1120 41 996 -41 q 673 -130 930 -130 q 640 -130 651 -130 q 186 77 372 -117 q 0 543 0 271 q 197 1019 0 822 q 673 1215 393 1215 l 675 1215 q 1120 1044 930 1215 q 852 1126 998 1126 m 1128 49 q 948 1 1044 -3 q 770 62 852 5 q 959 239 884 106 q 1034 543 1034 372 q 960 846 1034 713 q 770 1023 887 979 q 951 1084 854 1080 q 1131 1036 1047 1088 q 1345 541 1345 836 q 1128 49 1345 247 z "},"":{"ha":1389,"x_min":0,"x_max":1413,"o":"m 1310 781 q 1383 399 1413 597 l 491 399 q 555 232 491 301 q 704 141 618 163 q 882 152 789 119 q 1025 271 974 184 l 1354 271 q 1127 -19 1289 87 q 765 -125 966 -125 q 488 -84 575 -125 q 312 -153 396 -130 q 156 -172 228 -176 q 42 -117 84 -168 q 0 30 0 -65 q 35 227 0 117 q 119 423 71 336 q 488 892 274 703 q 157 618 345 833 q 395 994 209 849 q 800 1126 581 1139 q 1215 1208 1063 1242 q 1367 1020 1367 1175 q 1310 781 1367 914 m 176 274 q 110 96 127 174 q 104 -26 92 19 q 148 -96 117 -71 q 227 -125 179 -122 q 330 -111 274 -127 q 448 -60 385 -95 q 176 274 250 54 m 491 570 l 1053 570 q 1012 703 1053 643 q 907 795 971 762 q 773 827 844 827 q 576 754 659 827 q 491 570 494 681 m 990 1080 q 1294 808 1172 1009 q 1335 993 1335 911 q 1316 1069 1335 1036 q 1263 1120 1297 1101 q 1188 1139 1229 1139 q 990 1080 1115 1139 z "},"":{"ha":1389,"x_min":0,"x_max":1389,"o":"m 122 388 q 165 203 152 260 q 217 58 179 146 q 309 -87 255 -30 l 92 -87 q 27 -60 54 -87 q 0 5 0 -33 l 0 1036 q 27 1101 0 1074 q 92 1128 54 1128 l 250 1128 q 149 1009 193 1077 q 95 890 114 955 q 72 777 76 825 q 77 646 68 730 q 95 525 87 562 q 122 388 103 488 m 1297 1128 q 1362 1101 1335 1128 q 1389 1036 1389 1074 l 1389 5 q 1362 -60 1389 -33 q 1297 -87 1335 -87 l 1156 -87 q 1310 358 1324 79 l 939 277 q 781 79 930 109 q 624 109 686 57 q 557 210 586 141 q 491 467 529 279 q 454 674 464 594 q 449 785 445 754 q 467 846 453 817 q 600 939 502 920 q 822 822 746 971 l 1194 901 q 1053 1128 1139 1039 l 1297 1128 z "},"":{"ha":1215,"x_min":84,"x_max":1137,"o":"m 279 282 q 269 321 266 309 q 301 345 271 334 q 338 345 331 353 q 362 296 345 336 q 418 212 380 255 l 418 467 q 498 642 420 567 q 684 716 575 716 q 871 639 792 716 q 949 453 949 562 q 842 240 949 320 q 600 201 735 160 q 590 247 578 209 q 624 277 602 285 q 751 289 703 277 q 833 342 800 301 q 865 453 865 382 q 808 583 865 532 q 675 633 751 635 q 548 572 600 632 q 526 544 534 556 q 511 511 518 532 q 502 475 505 491 q 499 422 499 458 q 499 355 499 385 q 499 262 499 326 q 499 146 499 198 q 727 98 605 81 q 936 201 849 114 q 1039 452 1039 304 q 936 705 1039 600 q 681 808 830 808 q 429 705 532 808 q 372 640 388 665 l 369 640 q 315 621 353 613 q 277 654 277 632 l 277 1161 q 304 1188 277 1188 l 960 1188 q 982 1147 982 1188 q 960 1107 982 1107 l 353 1107 l 353 746 l 355 746 q 593 880 456 854 q 845 860 730 906 q 1040 704 960 814 q 1120 450 1120 594 q 1070 243 1120 336 q 943 96 1020 149 q 768 26 865 43 q 578 27 670 8 q 404 113 486 46 q 279 282 323 179 m 453 987 q 477 1012 453 1001 q 541 1032 502 1023 q 631 1046 581 1042 q 741 1043 681 1050 q 861 1020 800 1036 q 985 970 922 1004 q 1099 884 1047 936 q 1101 860 1109 873 q 1080 836 1093 846 q 1061 825 1066 825 q 1028 848 1058 825 q 948 899 998 871 q 833 951 898 928 q 677 971 768 974 q 491 933 586 968 q 463 949 475 925 q 453 987 450 974 m 1066 90 q 1109 79 1082 106 q 1123 35 1137 52 q 815 -133 990 -98 q 490 -117 640 -168 q 225 64 339 -65 q 87 363 111 193 q 104 387 84 377 q 145 392 125 396 q 165 374 165 388 q 264 144 193 244 q 435 -7 336 43 q 646 -68 534 -57 q 868 -38 757 -79 q 1066 90 979 3 m 581 382 q 635 445 581 391 l 586 494 q 583 513 578 502 q 601 533 589 524 q 618 543 613 543 q 678 488 624 543 l 727 537 q 760 529 738 551 q 770 494 781 507 l 722 445 l 768 399 q 766 365 781 382 q 738 347 751 347 q 678 401 732 347 q 651 374 667 391 q 618 347 627 347 q 594 361 608 347 q 581 382 581 374 z "},"":{"ha":1215,"x_min":16,"x_max":1202,"o":"m 697 773 q 697 804 697 784 q 697 834 697 825 q 697 861 697 844 q 696 887 697 879 q 692 907 694 895 q 684 926 689 920 q 671 941 678 933 q 654 952 665 949 q 631 958 643 955 q 602 960 618 960 q 590 960 597 960 q 563 952 583 960 q 525 932 543 944 q 487 892 507 920 q 456 827 467 865 l 255 846 q 354 1042 255 955 q 621 1128 453 1128 q 768 1104 705 1128 q 863 1042 830 1080 q 910 970 895 1004 q 925 906 925 936 l 925 507 q 947 437 925 472 q 990 382 968 401 l 1012 363 l 857 212 q 735 339 754 309 q 637 248 700 282 q 507 212 575 214 q 378 231 439 209 q 278 311 317 252 q 239 456 239 369 q 274 594 239 534 q 359 686 309 654 q 479 739 410 719 q 598 766 548 760 q 697 773 648 773 m 697 537 l 697 648 q 469 491 469 640 q 545 388 469 412 q 670 431 624 361 q 697 537 697 472 m 1066 95 q 998 34 1047 71 q 836 -45 949 -3 q 594 -87 722 -87 q 336 -31 464 -87 q 140 80 209 24 q 27 187 71 136 q 20 205 19 198 q 28 212 22 212 q 41 209 35 212 q 136 153 106 171 q 240 100 165 136 q 366 52 315 65 q 505 23 418 38 q 669 18 591 8 q 846 53 746 27 q 1053 127 947 79 q 1069 129 1061 130 q 1077 118 1077 127 q 1066 95 1077 109 m 1175 90 q 1118 5 1150 33 q 1100 -1 1107 -5 q 1099 16 1093 3 q 1130 98 1115 46 q 1134 165 1145 149 q 1004 174 1118 184 q 966 175 968 171 q 970 184 963 179 q 987 195 977 190 q 1012 206 998 201 q 1040 216 1025 212 q 1069 222 1055 220 q 1194 206 1172 233 q 1194 159 1199 195 q 1175 90 1188 122 z "},"":{"ha":1215,"x_min":46,"x_max":1172,"o":"m 749 317 l 464 317 l 464 -87 l 46 -87 l 46 1128 l 342 1128 l 342 846 l 1172 613 l 1172 -87 l 749 -87 l 749 317 z "},"":{"ha":1215,"x_min":0,"x_max":1226,"o":"m 1215 798 q 966 312 1207 621 q 548 -11 719 -11 q 369 187 442 -11 q 328 334 353 239 q 279 511 296 456 q 240 632 263 567 q 197 720 217 697 q 152 743 176 743 q 57 686 138 743 l 0 760 q 81 831 27 781 q 164 906 136 882 q 233 963 193 930 q 304 1009 274 996 q 358 1025 334 1023 q 532 833 499 1039 q 646 380 597 423 q 781 483 689 339 l 787 488 q 868 673 863 610 q 845 755 873 730 q 777 777 817 781 q 697 757 738 773 q 1039 1042 787 1050 q 1215 798 1226 1036 z "},"":{"ha":1215,"x_min":0,"x_max":1215,"o":"m 0 1128 l 1215 1128 l 1215 -87 l 0 -87 l 0 1128 m 857 247 l 684 746 l 857 979 l 358 979 l 532 746 l 358 247 l 608 5 l 857 247 z "},"":{"ha":1215,"x_min":0,"x_max":1215,"o":"m 0 1128 l 1215 1128 l 1215 -87 l 0 -87 l 0 1128 m 507 746 q 533 741 524 746 q 547 722 543 735 q 551 684 551 708 l 689 700 q 642 814 689 784 q 513 844 594 844 q 397 825 442 844 q 328 764 353 806 q 304 654 304 722 l 304 597 l 228 597 l 228 496 l 288 496 q 304 488 304 496 l 304 187 q 285 165 304 168 l 228 160 l 228 90 l 583 90 l 583 157 l 464 168 q 456 179 453 171 q 456 190 456 184 l 456 496 l 608 496 l 637 597 l 453 597 q 456 608 453 602 l 456 673 q 458 713 456 700 q 472 736 461 727 q 507 746 483 746 m 708 90 l 987 90 l 987 157 l 944 165 q 936 168 936 165 q 936 174 936 171 q 936 184 936 182 l 936 597 l 719 597 l 700 515 l 768 499 q 784 477 784 494 l 784 184 q 765 165 784 168 l 708 157 l 708 90 m 928 784 l 987 849 l 977 876 l 903 876 l 860 952 l 836 952 l 792 876 l 719 876 l 708 849 l 768 784 l 743 694 l 762 673 l 849 719 l 933 673 l 952 694 l 928 784 z "},"":{"ha":1389,"x_min":38,"x_max":1351,"o":"m 1194 662 q 1308 610 1267 662 q 1336 492 1348 559 q 1259 393 1324 426 q 1267 326 1267 363 q 1100 34 1267 155 q 694 -87 933 -87 q 408 -31 540 -87 q 201 118 277 24 q 125 326 125 212 q 133 391 125 361 q 53 491 65 426 q 81 609 41 556 q 195 662 122 662 q 298 618 255 662 q 667 735 453 727 l 751 1109 q 781 1128 757 1134 l 1044 1069 q 1139 1128 1077 1128 q 1217 1097 1185 1128 q 1248 1021 1248 1066 q 1217 945 1248 977 q 1139 914 1185 914 q 1065 945 1096 914 q 1034 1020 1034 977 l 795 1074 l 719 735 q 1090 621 936 727 q 1194 662 1134 662 m 350 377 q 382 302 350 334 q 458 271 415 271 q 500 279 480 271 q 534 302 521 288 q 556 336 548 317 q 564 377 564 355 q 533 454 564 423 q 458 486 502 486 q 404 471 429 486 q 365 431 380 456 q 350 377 350 407 m 933 125 q 933 160 952 141 q 895 160 914 179 q 693 103 838 103 q 491 160 548 103 q 456 160 475 179 q 456 125 437 141 q 693 49 529 49 q 933 125 857 49 m 930 271 q 985 285 960 271 q 1024 323 1009 298 q 1039 377 1039 347 q 1006 454 1039 423 q 930 486 974 486 q 856 453 887 486 q 825 377 825 420 q 856 302 825 334 q 930 271 887 271 z "},"":{"ha":1389,"x_min":68,"x_max":1321,"o":"m 71 597 q 71 597 71 597 l 71 597 m 1318 553 l 1318 412 l 467 412 q 553 217 469 290 q 755 132 637 144 q 998 145 873 119 q 1204 231 1123 171 l 1204 -54 q 1031 -123 1137 -95 q 792 -152 925 -152 q 553 -111 659 -152 q 320 76 412 -57 q 228 355 228 209 q 553 865 222 711 q 461 651 483 776 l 939 651 q 921 791 947 732 q 854 876 895 849 q 772 918 814 903 q 700 936 730 933 l 667 936 q 321 834 475 930 q 71 597 168 738 q 269 1021 103 849 q 703 1194 434 1194 q 1017 1114 876 1194 q 1240 887 1158 1034 q 1318 553 1318 746 z "},"":{"ha":1280,"x_min":0,"x_max":1280,"o":"m 1145 665 q 1203 629 1185 665 q 1204 557 1221 594 q 1145 521 1188 521 l 1115 521 l 1115 401 l 1044 401 l 1044 665 l 1145 665 m 1280 258 q 1135 42 1223 133 q 928 -100 1047 -49 q 673 -152 808 -152 q 197 45 393 -152 q 0 521 0 241 q 197 997 0 800 q 673 1194 393 1194 q 1017 1095 865 1194 q 1264 819 1169 996 l 760 524 l 1280 258 m 1177 225 l 1012 309 q 681 114 895 114 q 395 232 513 114 q 277 518 277 350 q 395 804 277 686 q 681 922 513 922 q 998 751 876 922 l 1158 846 q 948 1046 1074 974 q 673 1118 822 1118 q 251 943 426 1118 q 76 521 76 768 q 251 99 76 274 q 673 -76 426 -76 q 963 4 830 -76 q 1177 225 1096 84 z "},"":{"ha":1215,"x_min":22,"x_max":1194,"o":"m 966 559 l 1066 494 l 1066 -87 l 705 141 l 966 559 m 1194 1012 l 968 648 l 551 909 l 613 1012 l 1194 1012 m 952 624 l 274 467 l 149 548 l 149 1128 l 952 624 m 263 418 l 941 575 l 602 30 l 22 30 l 263 418 z "},"":{"ha":1389,"x_min":49,"x_max":1340,"o":"m 1326 434 q 1340 423 1340 434 l 1340 -174 l 844 -174 l 844 87 q 798 197 844 157 q 694 236 751 236 q 591 197 637 236 q 545 87 545 157 l 545 -174 l 49 -174 l 49 423 q 62 434 49 434 l 136 434 q 149 423 149 434 l 149 336 l 247 336 l 247 819 q 260 830 247 830 l 334 830 q 347 819 347 830 l 347 732 l 445 732 l 445 819 q 458 830 445 830 l 532 830 q 545 819 545 830 l 545 732 l 646 732 l 646 819 q 675 830 646 830 l 675 1134 q 651 1172 651 1145 q 673 1210 651 1199 q 716 1210 694 1221 q 738 1172 738 1199 q 711 1134 738 1145 l 711 1120 q 776 1128 746 1128 q 822 1123 792 1128 q 865 1118 852 1118 q 902 1123 879 1118 q 930 1128 925 1128 q 941 1118 941 1128 l 941 955 q 868 933 941 933 q 825 939 852 933 q 781 944 798 944 q 711 933 751 944 l 711 830 q 743 819 743 830 l 743 732 l 844 732 l 844 819 q 854 830 844 830 l 930 830 q 941 819 941 830 l 941 732 l 1042 732 l 1042 819 q 1055 830 1042 830 l 1128 830 q 1142 819 1142 830 l 1142 336 l 1240 336 l 1240 423 q 1253 434 1240 434 l 1326 434 m 545 448 l 545 621 q 532 632 545 632 l 458 632 q 445 621 445 632 l 445 448 q 458 434 445 434 l 532 434 q 545 448 545 434 m 944 448 l 944 621 q 930 632 944 632 l 857 632 q 844 621 844 632 l 844 448 q 857 434 844 434 l 930 434 q 944 448 944 434 z "},"":{"ha":1736,"x_min":0,"x_max":1742,"o":"m 1728 540 q 1742 521 1742 534 q 1728 499 1742 507 l 1487 355 q 1473 353 1478 353 q 1462 355 1468 353 q 1449 374 1449 361 l 1449 472 l 803 472 q 860 355 825 437 q 925 228 895 274 q 990 182 955 182 l 1063 182 l 1063 255 q 1088 279 1063 279 l 1329 279 q 1354 255 1354 279 l 1354 14 q 1329 -11 1354 -11 l 1088 -11 q 1063 14 1063 -11 l 1063 87 l 990 87 q 869 146 922 87 q 789 279 817 206 q 727 412 762 353 q 654 472 692 472 l 380 472 q 312 369 363 410 q 193 328 260 328 q 57 385 114 328 q 0 521 0 442 q 57 656 0 600 q 193 713 114 713 q 312 673 260 713 q 380 570 363 632 q 416 568 393 570 q 446 568 439 567 q 469 571 453 570 q 491 579 486 572 q 509 597 496 586 q 532 627 521 608 q 555 671 543 646 q 583 732 567 697 q 650 863 621 817 q 712 929 678 909 q 770 954 746 949 q 849 955 795 958 q 879 955 868 955 q 932 1025 895 998 q 1015 1053 968 1053 q 1072 1040 1044 1053 q 1118 1009 1099 1028 q 1149 963 1137 990 q 1161 906 1161 936 q 1141 834 1161 868 q 1088 781 1120 800 q 1015 762 1055 762 q 932 789 968 762 q 879 857 895 817 l 798 857 q 732 812 762 857 q 667 686 703 768 q 608 570 632 605 l 1449 570 l 1449 665 q 1461 686 1449 678 q 1487 686 1473 694 l 1728 540 z "},"":{"ha":1389,"x_min":22,"x_max":1367,"o":"m 854 693 q 869 679 854 693 q 884 623 884 665 q 854 551 884 581 q 784 521 825 521 l 594 521 l 594 722 l 784 722 q 854 693 825 722 m 1171 997 q 1269 899 1171 997 q 1367 521 1367 800 q 1171 45 1367 241 q 694 -152 974 -152 q 218 45 415 -152 q 22 521 22 241 q 218 997 22 800 q 694 1194 415 1194 q 1171 997 974 1194 m 951 454 q 985 489 951 454 q 1020 621 1020 524 q 951 788 1020 719 q 784 857 882 857 l 458 857 l 458 184 l 594 184 l 594 385 l 784 385 q 951 454 882 385 z "},"":{"ha":1736,"x_min":3,"x_max":1736,"o":"m 1150 618 q 1253 571 1207 608 q 1326 481 1299 534 q 1354 369 1354 429 q 1278 187 1354 263 q 1096 111 1202 111 l 309 111 q 92 202 182 111 q 3 418 3 293 q 77 620 3 534 q 266 722 152 705 q 431 945 312 860 q 697 1031 551 1031 q 1004 911 873 1031 q 1150 618 1134 792 m 1096 228 q 1152 239 1126 228 q 1196 269 1177 250 q 1227 313 1215 288 q 1240 369 1240 339 q 1214 449 1240 412 q 1147 502 1188 486 q 1131 431 1142 467 q 1088 393 1120 399 q 1032 410 1055 388 q 1023 467 1009 431 q 1039 575 1039 521 q 939 817 1039 716 q 697 917 838 917 q 511 861 597 917 q 385 716 426 806 q 526 635 467 694 q 543 579 553 610 q 503 540 532 548 q 445 553 475 532 q 309 610 388 610 q 174 555 231 610 q 117 419 117 499 q 174 283 117 339 q 309 228 231 228 l 1096 228 m 1633 700 q 1733 370 1733 553 q 1633 35 1733 187 q 1584 11 1614 11 q 1535 41 1552 11 q 1538 100 1519 71 q 1619 369 1619 222 q 1538 637 1619 515 q 1533 696 1516 667 q 1579 727 1549 724 q 1633 700 1609 730 m 1468 608 q 1541 370 1541 502 q 1468 130 1541 239 q 1421 106 1451 106 q 1370 136 1386 106 q 1373 195 1354 165 q 1427 369 1427 271 q 1373 545 1427 467 q 1370 602 1354 572 q 1415 633 1386 632 q 1468 608 1443 635 z "},"":{"ha":1042,"x_min":0,"x_max":1047,"o":"m 114 529 q 49 746 49 608 q 176 1053 49 944 q 502 1161 304 1161 q 675 1146 594 1164 q 829 1086 757 1128 q 924 1028 901 1044 q 1001 971 947 1012 l 863 776 l 762 841 l 836 947 q 502 1044 684 1047 q 294 987 391 1044 q 198 836 198 930 q 277 795 198 770 q 429 757 366 814 q 479 632 480 705 q 426 507 477 559 q 270 452 366 445 q 114 529 174 458 m 977 513 q 1021 431 1004 480 q 1042 326 1039 382 q 1035 210 1044 269 q 996 96 1025 152 q 922 0 966 41 q 559 -119 781 -119 q 41 76 263 -122 l 0 114 l 165 309 l 260 233 l 171 127 q 562 -3 345 -3 q 890 174 819 -3 q 895 206 895 190 q 817 250 895 271 q 665 288 724 228 q 613 410 610 336 q 670 543 613 488 q 806 591 727 597 q 977 513 909 594 z "},"":{"ha":1215,"x_min":87,"x_max":1128,"o":"m 795 751 l 678 635 l 675 868 l 795 751 m 675 155 l 678 388 l 792 271 l 675 155 m 1128 513 q 1114 267 1128 374 q 1066 85 1099 160 q 993 -41 1034 11 q 892 -121 952 -92 q 770 -161 833 -149 q 627 -174 708 -174 q 411 -144 502 -174 q 243 -41 320 -114 q 126 171 165 33 q 87 511 87 309 q 126 856 87 713 q 240 1074 165 998 q 407 1183 315 1150 q 621 1215 499 1215 q 830 1183 741 1215 q 989 1073 920 1150 q 1093 856 1058 996 q 1128 513 1128 716 m 700 513 l 914 751 l 575 1118 l 575 637 l 374 836 l 301 765 l 553 510 l 301 260 l 374 187 l 575 385 l 581 -76 l 925 271 l 700 513 z "},"":{"ha":868,"x_min":68,"x_max":800,"o":"m 532 510 l 798 231 l 396 -174 l 388 363 l 155 130 l 71 217 l 363 510 l 71 803 l 155 890 l 388 656 l 388 1215 l 784 789 l 532 510 m 643 789 l 507 925 l 507 654 l 643 789 m 507 366 l 507 95 l 643 231 l 507 366 z "},"":{"ha":1389,"x_min":-11,"x_max":1400,"o":"m 285 1147 q 439 673 439 673 l 81 673 l 233 1147 q 260 1166 241 1166 q 285 1147 279 1166 m 3 434 l 81 673 l 694 -125 l 22 374 q 3 434 -8 399 m 439 673 l 949 673 l 694 -125 l 439 673 m 1386 434 q 1367 374 1397 399 l 694 -125 l 1308 673 l 1386 434 m 1156 1147 l 1308 673 l 949 673 l 1104 1147 q 1128 1166 1109 1166 q 1156 1147 1147 1166 z "},"":{"ha":1389,"x_min":54,"x_max":1335,"o":"m 1256 342 q 1316 201 1310 277 q 1286 61 1321 125 q 1176 -45 1251 -3 q 1006 -87 1101 -87 q 850 -52 925 -87 q 735 49 776 -16 q 694 49 722 49 q 654 49 667 49 q 538 -52 613 -16 q 382 -87 464 -87 q 213 -45 288 -87 q 103 61 138 -3 q 73 201 68 125 q 133 342 79 277 q 64 559 71 445 q 102 773 57 673 q 229 954 146 873 q 434 1081 312 1034 q 694 1128 556 1128 q 955 1081 833 1128 q 1160 954 1077 1034 q 1287 773 1242 873 q 1325 559 1332 673 q 1256 342 1318 445 m 334 567 l 448 567 l 448 724 l 334 724 l 334 567 m 922 334 l 922 396 q 663 377 800 353 q 415 488 526 401 l 415 420 q 665 304 518 328 q 922 334 811 279 m 515 567 l 966 567 l 966 724 l 515 724 l 515 567 z "},"":{"ha":1215,"x_min":0,"x_max":1215,"o":"m 1215 1012 l 1215 30 q 1181 -53 1215 -19 q 1099 -87 1147 -87 l 117 -87 q 34 -53 68 -87 q 0 30 0 -19 l 0 1012 q 34 1095 0 1061 q 117 1128 68 1128 l 1099 1128 q 1181 1095 1147 1128 q 1215 1012 1215 1061 m 1115 30 l 1115 1012 q 1099 1028 1115 1028 l 1074 1028 l 773 825 l 608 960 l 442 825 l 141 1028 l 117 1028 q 100 1012 100 1028 l 100 30 q 117 14 100 14 l 1099 14 q 1115 30 1115 14 m 407 711 l 407 610 l 209 610 l 209 711 l 407 711 m 407 510 l 407 407 l 209 407 l 209 510 l 407 510 m 437 909 l 583 1028 l 263 1028 l 437 909 m 1006 711 l 1006 610 l 475 610 l 475 711 l 1006 711 m 1006 510 l 1006 407 l 475 407 l 475 510 l 1006 510 m 779 909 l 952 1028 l 632 1028 l 779 909 m 1006 307 l 1006 206 l 738 206 l 738 307 l 1006 307 z "},"":{"ha":1215,"x_min":0,"x_max":1215,"o":"m 0 1128 q 414 1090 233 1128 q 703 993 594 1053 q 883 849 811 933 q 983 682 955 765 q 1021 506 1012 600 q 1023 346 1031 412 q 1005 214 1015 279 q 996 136 996 149 l 1215 -87 l 1145 -87 l 955 106 q 902 99 939 106 q 834 88 865 92 q 758 80 803 84 q 670 81 713 76 q 576 99 627 87 q 475 138 526 111 q 372 206 423 165 q 254 326 301 263 q 174 476 206 388 q 122 642 141 564 q 68 865 103 719 q 0 1128 33 1012 m 217 1004 q 152 1025 155 1031 q 176 998 149 1020 l 201 979 q 309 879 260 939 q 378 781 358 819 q 448 654 399 743 q 838 198 640 282 q 941 157 941 155 q 909 184 944 160 q 854 222 873 206 q 608 575 754 296 q 553 674 570 646 q 498 762 537 703 q 425 856 458 822 q 336 932 391 890 q 217 1004 282 974 z "},"":{"ha":1215,"x_min":0,"x_max":1215,"o":"m 686 811 q 675 741 686 784 q 629 513 651 621 q 591 499 627 499 q 529 537 548 499 q 510 624 510 575 q 536 757 510 692 q 613 849 562 822 q 651 860 635 860 q 686 811 686 860 m 1215 998 l 1215 43 q 1177 -49 1215 -11 q 1085 -87 1139 -87 l 130 -87 q 38 -49 76 -87 q 0 43 0 -11 l 0 998 q 38 1090 0 1053 q 130 1128 76 1128 l 1085 1128 q 1177 1090 1139 1128 q 1215 998 1215 1053 m 1031 483 q 1042 491 1042 480 q 1012 548 1042 502 q 971 597 982 594 q 947 605 958 605 q 921 604 933 605 q 897 598 909 602 q 876 591 884 594 q 853 581 868 589 q 833 571 838 572 q 810 559 827 570 q 789 545 792 548 l 787 548 q 808 652 789 567 q 827 784 827 738 q 643 955 827 955 q 517 922 575 955 q 423 840 458 890 q 369 732 388 789 q 350 620 350 675 q 366 521 350 564 q 412 449 382 477 q 486 404 442 420 q 586 388 529 388 q 594 388 589 388 q 605 385 605 388 q 602 382 602 382 q 505 190 583 220 q 453 212 461 174 l 450 222 q 458 259 450 241 q 477 288 467 277 q 499 307 488 298 q 518 320 510 315 q 526 326 526 326 q 487 355 526 339 q 429 372 448 372 q 389 358 407 372 q 361 323 372 345 q 345 278 350 301 q 339 236 339 255 q 357 159 339 193 q 407 106 374 125 q 483 87 439 87 q 644 163 575 87 q 738 336 713 239 q 747 369 743 353 q 753 396 751 385 q 757 415 754 407 q 761 429 760 423 q 762 438 762 434 q 764 444 762 442 q 768 446 765 445 q 773 450 770 448 q 930 496 863 496 q 1031 483 944 496 z "},"":{"ha":1215,"x_min":87,"x_max":1215,"o":"m 1104 643 q 1168 563 1120 637 q 1215 469 1215 488 q 1196 456 1215 456 q 1036 477 1061 477 q 784 404 928 477 q 776 400 779 401 q 772 395 773 399 q 769 388 770 391 q 765 377 768 385 q 761 361 762 369 q 757 339 760 353 q 750 309 754 326 q 741 270 746 293 q 730 220 735 247 q 578 -53 689 68 q 320 -174 467 -174 q 149 -107 212 -174 q 87 65 87 -41 q 126 206 87 133 q 228 279 165 279 q 324 254 260 279 q 388 206 388 228 q 378 198 388 203 q 355 183 369 193 q 326 159 342 174 q 296 127 309 144 q 274 88 282 111 q 266 41 266 65 q 317 -19 266 -14 q 453 92 393 -22 q 513 296 496 174 q 510 307 513 307 q 483 307 507 307 q 205 403 304 307 q 106 678 106 499 q 156 920 106 800 q 317 1127 206 1039 q 575 1215 429 1215 q 738 1188 673 1215 q 837 1100 803 1161 q 871 941 871 1039 q 841 727 871 865 q 806 562 811 589 l 808 559 q 840 576 817 564 q 871 594 863 589 q 899 610 879 600 q 930 625 920 621 q 960 636 941 629 q 993 646 979 643 q 1025 651 1006 648 q 1063 654 1044 654 q 1104 643 1080 654 m 629 871 q 643 987 643 941 q 642 1016 643 1004 q 636 1040 640 1028 q 620 1058 632 1053 q 589 1063 608 1063 q 529 1047 559 1063 q 403 897 445 1001 q 361 684 361 792 q 372 594 361 635 q 414 519 382 553 q 494 486 445 486 q 505 486 496 486 q 518 486 513 486 q 530 487 524 486 q 541 490 537 488 q 548 495 545 491 q 553 507 551 499 q 629 871 589 678 z "},"":{"ha":1215,"x_min":-5,"x_max":1207,"o":"m 749 808 l 749 806 q 556 1215 681 1006 q 690 1042 640 1161 q 749 808 741 922 m 838 477 q 952 524 898 488 q 991 349 987 439 q 962 157 996 258 q 854 -22 928 57 q 502 -174 716 -174 q 149 -22 288 -174 q 19 244 41 92 q 49 524 -3 396 q 221 741 100 651 q 502 830 342 830 q 670 800 591 830 q 635 684 640 743 q 502 708 572 708 q 239 594 345 708 q 133 323 133 480 q 171 151 133 231 q 278 18 209 71 q 437 -52 347 -35 q 598 75 532 -14 q 696 278 665 163 q 739 498 727 393 q 751 708 751 602 q 749 806 751 773 q 800 502 800 656 q 505 -54 800 130 l 494 -57 q 761 52 654 -60 q 868 323 868 163 q 838 477 868 404 m 1134 1183 q 1204 951 1202 1085 q 1143 718 1207 817 q 977 618 1080 618 q 827 689 901 618 q 1099 917 1031 800 q 1118 971 1115 952 q 987 814 1077 882 q 798 724 898 746 q 765 830 765 776 q 819 966 765 911 q 920 1017 854 998 q 1042 1070 985 1036 q 1134 1183 1099 1104 z "},"":{"ha":1215,"x_min":0,"x_max":1215,"o":"m 1085 1128 q 1177 1090 1139 1128 q 1215 998 1215 1053 l 1215 43 q 1177 -49 1215 -11 q 1085 -87 1139 -87 l 130 -87 q 38 -49 76 -87 q 0 43 0 -11 l 0 998 q 38 1090 0 1053 q 130 1128 76 1128 l 1085 1128 m 762 182 q 844 353 830 255 q 825 521 857 450 q 751 494 789 502 q 770 396 770 450 q 704 227 770 296 q 537 160 637 157 l 543 160 q 727 507 727 277 q 697 697 727 605 l 697 700 q 678 793 692 746 q 637 886 665 841 q 575 955 610 930 q 697 697 654 822 q 697 637 697 678 q 689 506 697 570 q 662 369 681 442 q 601 241 643 296 q 499 163 559 187 q 365 244 418 179 q 312 396 312 309 q 378 566 312 494 q 543 637 445 637 q 624 621 586 637 q 648 694 629 659 q 543 713 597 713 q 366 658 442 713 q 258 522 290 602 q 240 347 225 442 q 320 182 255 252 q 541 87 407 87 q 762 182 675 87 m 838 581 q 943 643 903 581 q 981 789 982 705 q 936 936 979 873 q 879 864 914 884 q 803 831 844 844 q 741 800 762 819 q 705 713 705 765 q 727 648 705 678 q 845 704 789 662 q 925 800 901 746 q 914 768 925 789 q 746 624 871 694 q 838 581 789 581 z "},"":{"ha":1345,"x_min":0,"x_max":1345,"o":"m 197 997 q 295 1095 197 997 q 673 1194 393 1194 q 1149 997 952 1194 q 1345 521 1345 800 q 1149 45 1345 241 q 673 -152 952 -152 q 197 45 393 -152 q 0 521 0 241 q 197 997 0 800 m 1134 274 q 1120 304 1142 298 q 1053 328 1085 309 q 1001 365 1020 347 q 964 407 982 382 q 943 441 947 431 q 936 458 939 450 l 933 458 q 930 494 925 480 q 982 524 936 510 q 996 529 993 529 q 1042 575 1042 548 q 1015 608 1042 597 q 977 608 993 613 q 936 594 955 597 q 922 600 928 594 q 911 808 930 762 q 853 890 890 857 q 773 939 817 922 q 681 955 730 955 q 673 955 681 955 q 665 955 665 955 q 620 951 643 955 q 560 933 597 947 q 490 887 524 920 q 437 808 456 854 q 426 600 415 762 q 407 594 418 594 q 363 605 388 594 q 340 608 353 610 q 317 597 328 605 q 307 578 307 589 q 353 529 298 548 q 368 522 355 526 q 388 515 380 518 q 404 506 396 513 q 418 494 412 499 q 412 458 423 480 q 404 441 410 450 q 382 407 399 431 q 346 363 366 382 q 294 327 326 345 q 228 304 263 309 q 212 282 212 301 q 334 225 214 244 q 338 218 336 222 q 340 208 339 214 q 343 194 342 201 q 347 182 345 187 q 369 165 350 165 q 397 170 374 165 q 439 174 420 174 q 540 136 488 174 q 673 87 616 84 q 806 136 732 84 q 906 174 857 174 q 949 170 928 174 q 977 165 971 165 q 998 182 996 165 q 1004 198 1001 187 q 1008 216 1006 209 q 1012 225 1009 222 q 1134 274 1118 241 z "},"":{"ha":1389,"x_min":-3,"x_max":1394,"o":"m 1386 149 q 1202 76 1364 100 q 1199 62 1202 73 q 1192 37 1196 52 q 1185 11 1188 22 q 1153 -14 1177 -14 q 1109 -7 1142 -14 q 1047 0 1077 0 q 968 -12 996 0 q 892 -57 941 -24 q 692 -130 784 -136 q 496 -57 610 -138 q 420 -12 448 -24 q 342 0 393 0 q 279 -7 315 0 q 236 -14 244 -14 q 203 11 212 -14 q 197 35 201 19 q 190 62 193 52 q 187 76 187 73 q 111 90 144 81 q 41 118 79 98 q 0 163 3 138 q 0 165 0 163 q 24 193 0 190 q 99 216 62 201 q 161 251 136 231 q 212 296 187 271 q 251 340 236 320 q 278 382 266 361 q 294 412 290 404 q 301 426 298 420 q 301 429 301 426 q 309 477 317 458 q 290 500 304 491 q 264 514 277 510 q 233 524 252 518 q 212 532 214 529 q 141 608 133 564 q 178 646 146 632 q 231 648 209 659 q 296 632 269 632 q 323 637 312 632 q 315 802 315 703 q 336 952 315 901 q 419 1072 369 1023 q 524 1141 469 1120 q 613 1168 578 1161 q 681 1175 648 1175 q 693 1175 681 1175 q 708 1175 705 1175 q 845 1150 781 1175 q 964 1076 909 1126 q 1053 952 1020 1025 q 1074 802 1074 901 q 1066 637 1074 703 q 1090 632 1077 632 q 1150 648 1118 632 q 1207 648 1177 662 q 1248 600 1248 635 q 1177 532 1248 562 q 1158 526 1172 529 q 1080 477 1090 505 q 1088 429 1072 458 q 1088 426 1088 426 q 1099 400 1090 415 q 1133 350 1107 385 q 1187 286 1158 315 q 1264 229 1215 258 q 1364 193 1313 201 q 1385 178 1378 190 q 1386 149 1392 165 z "},"":{"ha":1215,"x_min":0,"x_max":1215,"o":"m 1085 1128 q 1177 1090 1139 1128 q 1215 998 1215 1053 l 1215 43 q 1177 -49 1215 -11 q 1085 -87 1139 -87 l 130 -87 q 38 -49 76 -87 q 0 43 0 -11 l 0 998 q 38 1090 0 1053 q 130 1128 76 1128 l 1085 1128 m 1069 274 q 1055 304 1077 298 q 1004 317 1028 307 q 963 342 979 328 q 930 372 947 355 q 905 401 914 388 q 886 430 895 415 q 873 449 876 445 q 871 458 871 453 l 868 458 q 865 494 860 480 q 917 524 871 510 q 930 529 928 529 q 977 575 977 548 q 949 608 977 597 q 911 608 928 613 q 871 594 890 597 q 857 600 863 594 q 846 808 865 762 q 751 917 814 879 q 616 955 689 955 q 608 955 616 955 q 600 955 600 955 q 555 951 578 955 q 495 933 532 947 q 425 887 458 920 q 372 808 391 854 q 361 600 350 762 q 342 594 353 594 q 298 605 323 594 q 264 604 285 613 q 241 578 244 594 q 288 529 233 548 q 307 522 288 529 q 336 509 326 515 q 353 494 347 502 q 347 458 358 480 q 339 441 345 450 q 317 407 334 431 q 281 363 301 382 q 229 327 260 345 q 163 304 198 309 q 146 282 146 301 q 269 225 149 244 q 273 216 271 222 q 277 198 274 209 q 282 182 279 187 q 304 165 285 165 q 332 170 309 165 q 374 174 355 174 q 475 136 423 174 q 608 87 551 84 q 741 136 667 84 q 841 174 792 174 q 884 170 863 174 q 911 165 906 165 q 933 182 930 165 q 939 198 936 187 q 943 216 941 209 q 947 225 944 222 q 1069 274 1053 241 z "},"":{"ha":1302,"x_min":87,"x_max":1272,"o":"m 1237 1153 q 1264 1139 1256 1158 q 1256 1109 1272 1120 q 914 675 955 909 q 849 444 887 529 q 762 319 811 358 q 662 256 713 279 q 541 186 610 233 q 412 60 472 138 q 529 16 458 35 q 651 -3 600 -3 q 990 138 849 -3 q 1131 477 1131 279 q 1096 647 1131 553 q 1009 795 1061 741 q 1055 871 1028 836 q 1135 757 1099 825 q 1194 614 1172 689 q 1215 477 1215 540 q 1050 79 1215 244 q 651 -87 884 -87 q 252 79 418 -87 q 87 477 87 244 q 252 876 87 711 q 651 1042 418 1042 q 742 1032 692 1042 q 842 1006 792 1023 q 925 968 892 990 q 1237 1153 1104 1118 m 339 114 q 860 909 589 654 q 651 958 760 958 q 312 817 453 958 q 171 477 171 675 q 220 278 171 385 q 339 114 269 171 z "},"":{"ha":1215,"x_min":11,"x_max":1204,"o":"m 35 594 m 608 952 q 667 949 640 952 l 656 765 l 716 939 q 825 892 773 925 l 746 727 l 868 865 q 949 781 914 830 l 814 659 l 979 741 q 1023 629 1006 692 l 849 570 l 1034 581 q 1036 521 1036 556 q 1034 461 1036 486 l 852 472 l 1025 412 q 979 304 1009 355 l 814 382 l 949 260 q 868 176 917 214 l 746 315 l 825 149 q 716 103 779 119 l 656 279 l 667 92 q 608 90 637 90 q 548 92 578 90 l 559 277 l 499 103 q 391 149 442 117 l 472 315 l 350 176 q 266 260 304 209 l 404 382 l 239 301 q 193 412 206 355 l 366 472 l 182 461 q 179 521 179 496 q 182 581 179 551 l 366 570 l 193 632 q 239 741 206 686 l 404 659 l 266 781 q 350 865 301 827 l 472 727 l 391 895 q 499 939 442 925 l 559 765 l 551 949 q 608 952 578 952 m 1202 868 l 1202 174 l 608 -174 l 14 174 l 14 868 l 608 1215 l 1202 868 m 1156 841 l 608 1158 l 60 841 l 60 203 l 608 -117 l 1156 203 l 1156 841 m 608 1115 l 1118 819 l 1118 225 l 608 -73 l 98 225 l 98 817 l 608 1115 m 928 844 q 861 910 928 844 q 608 977 795 977 q 288 844 420 977 q 155 521 155 711 q 288 199 155 334 q 608 65 420 65 q 928 199 795 65 q 1061 521 1061 334 q 928 844 1061 711 z "},"":{"ha":1215,"x_min":0,"x_max":1215,"o":"m 247 1009 l 751 1009 l 732 958 l 247 958 q 110 902 168 958 q 52 768 52 846 l 52 209 q 110 75 52 130 q 279 19 168 19 l 279 -33 l 247 -33 q 73 39 146 -33 q 0 212 0 111 l 0 768 q 33 888 0 833 q 122 977 65 944 q 247 1009 179 1009 m 868 1161 l 1050 1161 q 944 883 998 1025 q 857 654 890 741 q 789 473 825 567 q 734 328 754 380 q 692 222 713 277 q 656 140 670 168 q 629 83 643 111 q 604 37 616 54 q 579 3 591 19 q 548 -30 567 -14 q 336 -119 467 -114 l 336 19 q 468 95 426 33 q 510 222 510 157 l 513 225 q 499 292 513 255 q 410 521 486 328 q 288 830 339 697 l 456 830 l 591 404 l 868 1161 m 1215 776 l 1215 -33 l 635 -33 q 667 19 662 5 l 1164 19 l 1164 776 q 1031 947 1164 901 l 1050 996 q 1215 776 1215 941 z "},"":{"ha":1389,"x_min":0,"x_max":1389,"o":"m 578 935 q 571 943 578 935 q 564 975 564 952 q 578 1016 564 998 q 613 1034 591 1034 q 647 1016 635 1034 q 659 977 659 998 q 654 948 659 960 q 637 926 648 936 q 613 917 627 917 q 578 935 591 917 m 1389 543 q 1363 349 1389 456 q 1291 190 1337 241 q 1139 80 1245 141 q 963 -3 1034 19 l 960 -3 l 960 -90 q 949 -133 960 -114 q 921 -163 939 -152 q 882 -174 903 -174 q 814 -136 838 -174 q 746 -174 789 -174 q 678 -136 703 -174 q 613 -174 656 -174 q 545 -136 570 -174 q 477 -174 521 -174 q 435 -161 453 -174 q 408 -129 418 -149 q 399 -84 399 -109 q 244 -138 328 -138 q 81 -76 152 -138 q 163 -60 122 -73 q 22 38 76 -35 q 203 68 119 16 q 19 307 57 217 q 0 431 0 350 q 12 556 0 488 q 49 696 24 624 q 122 817 73 768 q 233 865 171 865 q 296 825 279 865 q 328 865 312 846 q 339 876 331 868 q 350 887 347 884 q 407 979 407 979 q 571 1118 475 1066 q 773 1169 667 1169 q 822 1166 800 1169 q 936 1215 868 1215 q 1044 1172 998 1215 q 1047 1161 1047 1166 q 1012 1118 1047 1156 q 1055 1085 1055 1104 q 1042 1066 1055 1080 q 1196 773 1164 958 q 1242 795 1215 795 q 1318 757 1278 795 q 1389 543 1389 697 m 534 1042 q 522 1027 534 1042 q 510 972 510 1012 q 534 902 510 933 q 597 871 559 871 q 661 902 635 871 q 686 974 686 933 q 675 1020 686 998 q 644 1057 665 1042 q 597 1072 624 1072 q 534 1042 559 1072 m 646 689 q 667 846 646 757 q 606 678 616 768 q 624 515 597 589 q 712 395 651 442 q 854 347 773 347 q 1017 401 941 347 q 1028 461 1028 439 q 971 521 1028 521 q 936 515 958 521 q 720 524 795 488 q 646 689 646 559 m 534 -3 q 518 38 534 22 q 479 54 502 54 q 439 38 456 54 q 423 -3 423 22 l 423 -90 q 427 -113 423 -103 q 439 -130 431 -122 q 457 -144 448 -138 q 477 -149 467 -149 q 518 -132 502 -149 q 534 -90 534 -114 l 534 -3 m 667 -3 q 661 26 667 14 q 640 46 654 38 q 613 54 627 54 q 572 38 589 54 q 556 -3 556 22 l 556 -90 q 572 -132 556 -114 q 612 -149 589 -149 q 651 -132 635 -149 q 667 -90 667 -114 l 667 -3 m 800 -3 q 785 38 800 22 q 747 54 770 54 q 708 38 724 54 q 692 -3 692 22 l 692 -90 q 708 -132 692 -114 q 747 -149 724 -149 q 785 -132 770 -149 q 800 -90 800 -114 l 800 -3 m 936 -3 q 920 38 936 22 q 880 54 903 54 q 842 38 857 54 q 827 -3 827 22 l 827 -90 q 842 -132 827 -114 q 880 -149 857 -149 q 920 -132 903 -149 q 936 -90 936 -114 l 936 -3 m 1145 439 q 1038 296 1101 358 q 888 197 974 233 q 713 160 803 160 q 401 302 524 160 q 279 640 279 445 q 296 776 279 708 q 214 472 214 640 q 264 231 214 347 q 407 35 315 114 q 477 81 431 81 q 545 41 521 81 q 613 81 570 81 q 678 41 656 81 q 746 81 703 81 q 814 41 789 81 q 882 81 838 81 q 949 38 928 81 q 1088 217 1036 111 q 1145 439 1139 323 m 1172 711 q 1103 910 1172 825 q 922 996 1034 996 q 708 898 800 996 q 819 526 597 526 q 876 533 836 526 q 945 543 917 540 q 1005 538 974 545 q 1047 505 1036 532 q 1050 426 1058 477 q 1172 711 1172 537 z "},"":{"ha":1345,"x_min":0,"x_max":1345,"o":"m 197 997 q 295 1095 197 997 q 673 1194 393 1194 q 1149 997 952 1194 q 1345 521 1345 800 q 1149 45 1345 241 q 673 -152 952 -152 q 197 45 393 -152 q 0 521 0 241 q 197 997 0 800 m 480 184 q 650 227 575 184 q 764 343 724 269 q 803 513 803 418 q 798 570 803 543 l 480 570 l 480 453 l 670 453 q 606 349 662 388 q 480 309 551 309 q 399 327 437 309 q 332 373 361 345 q 288 439 304 401 q 271 521 271 477 q 332 670 271 608 q 480 732 393 732 q 616 681 562 732 l 705 770 q 480 857 613 857 q 243 758 342 857 q 144 521 144 659 q 243 283 144 382 q 480 184 342 184 m 1107 472 l 1202 472 l 1202 570 l 1107 570 l 1107 665 l 1009 665 l 1009 570 l 911 570 l 911 472 l 1009 472 l 1009 377 l 1107 377 l 1107 472 z "},"":{"ha":1215,"x_min":0,"x_max":1215,"o":"m 1080 1128 q 1175 1088 1134 1128 q 1215 993 1215 1047 l 1215 49 q 1175 -46 1215 -5 q 1080 -87 1134 -87 l 136 -87 q 41 -46 81 -87 q 0 49 0 -5 l 0 993 q 41 1088 0 1047 q 136 1128 81 1128 l 1080 1128 m 955 358 l 955 738 q 933 760 955 760 q 876 738 930 760 q 787 716 822 716 q 751 722 765 716 q 586 760 651 760 q 418 722 510 760 q 404 713 412 716 l 404 765 q 439 836 439 789 q 412 899 439 873 q 347 925 385 925 q 283 899 309 925 q 258 836 258 873 q 293 765 258 792 l 293 171 q 309 133 293 149 q 347 117 326 117 q 399 155 388 117 l 399 157 q 401 171 401 160 l 401 293 q 407 296 404 296 q 412 298 410 296 q 594 345 515 345 q 697 321 640 345 q 789 298 754 298 q 936 336 849 298 q 955 358 955 345 z "},"":{"ha":1215,"x_min":27,"x_max":1188,"o":"m 1185 602 q 1161 404 1188 600 q 1158 399 1161 399 l 1009 279 q 998 279 1004 277 l 944 317 l 939 228 q 936 222 939 222 l 754 76 q 743 76 749 71 l 667 141 l 673 16 q 670 11 673 11 l 442 -171 q 437 -174 439 -174 q 431 -171 431 -171 l 255 16 q 209 231 250 19 q 212 239 206 236 l 260 269 q 187 339 187 336 l 130 610 q 136 621 127 616 l 209 656 q 103 741 106 735 l 30 1101 q 35 1109 27 1107 l 369 1215 q 377 1215 374 1215 l 621 1096 q 627 1088 627 1093 l 643 730 q 637 722 643 724 l 545 675 l 643 608 q 648 602 648 608 l 651 507 l 746 564 q 754 564 749 567 l 819 521 l 822 608 q 825 613 822 610 l 985 711 q 993 711 990 713 l 1183 608 q 1185 602 1185 602 m 632 589 l 358 434 l 396 171 l 643 336 l 632 589 m 610 1077 l 282 949 l 336 586 l 624 735 l 610 1077 m 119 746 l 317 591 l 266 952 l 49 1085 l 119 746 m 203 345 l 377 179 l 342 434 l 152 591 l 203 345 m 269 24 l 426 -141 l 399 43 l 231 206 l 269 24 m 442 -149 l 656 19 l 646 209 l 415 43 l 442 -149 m 665 163 l 738 100 l 738 285 l 656 347 q 654 326 656 328 l 594 285 l 659 231 q 665 163 665 228 m 922 231 l 933 412 l 754 285 l 757 100 l 922 231 m 996 301 l 1012 483 l 838 591 l 836 510 l 947 437 q 949 429 952 434 l 944 336 l 996 301 m 1145 410 l 1166 581 l 1028 483 l 1015 307 l 1145 410 z "},"":{"ha":1215,"x_min":19,"x_max":1199,"o":"m 1194 165 q 1190 104 1196 141 q 1161 22 1183 68 q 1085 -56 1139 -24 q 955 -87 1031 -87 q 694 81 795 -87 q 380 92 537 38 q 121 282 222 146 q 19 594 19 418 q 182 977 19 825 q 556 1128 345 1128 q 932 978 770 1128 q 1093 594 1093 827 q 892 179 1093 336 q 1025 81 955 81 q 1065 90 1047 81 q 1092 111 1082 98 q 1108 138 1101 125 q 1115 165 1115 152 l 1194 165 m 806 323 q 852 594 852 423 q 780 917 852 811 q 556 1023 708 1023 q 335 917 404 1023 q 266 594 266 811 q 335 274 266 380 q 556 168 404 168 q 646 182 608 168 q 610 241 627 217 q 571 293 594 266 q 519 334 548 320 q 456 347 491 347 q 404 336 426 347 l 369 401 q 559 464 442 464 q 704 427 648 464 q 806 323 760 391 z "},"":{"ha":1563,"x_min":5,"x_max":1557,"o":"m 263 955 q 87 537 87 784 q 271 90 90 263 q 307 33 307 57 q 296 11 307 24 q 274 0 288 0 q 155 98 233 0 q 8 537 14 274 q 49 770 8 670 q 176 971 90 871 q 274 1042 239 1042 q 296 1034 288 1042 q 307 1015 307 1023 q 263 955 307 998 m 648 76 l 651 73 l 648 76 m 903 73 l 903 76 l 903 73 m 911 505 q 948 515 933 499 q 977 556 963 532 q 993 586 990 581 q 1073 418 1058 502 q 1069 279 1088 334 q 1008 172 1050 225 q 944 103 966 119 q 903 76 922 87 q 966 165 930 95 q 963 282 1001 236 q 952 281 963 282 q 926 278 941 279 q 892 278 911 277 q 857 288 873 279 q 829 312 841 296 q 812 357 817 328 q 814 429 808 385 q 821 498 819 464 q 818 553 822 532 q 808 591 814 575 q 798 613 803 608 l 795 621 q 750 540 773 575 q 705 472 727 505 q 675 426 684 439 q 613 293 632 353 q 594 197 594 233 q 606 132 594 160 q 629 92 618 103 q 651 76 640 81 q 609 104 632 87 q 548 170 586 122 q 492 267 510 217 q 488 395 475 317 q 559 551 502 472 q 635 670 602 613 q 685 769 667 727 q 713 848 703 811 q 727 909 724 884 q 731 951 730 933 q 730 977 732 968 l 727 985 q 837 878 792 933 q 898 779 882 822 q 922 692 914 735 q 924 617 930 648 q 913 559 917 586 q 905 521 909 532 q 911 505 901 510 m 1386 971 q 1514 770 1473 871 q 1554 537 1554 670 q 1408 98 1549 271 q 1289 0 1329 0 q 1267 11 1275 0 q 1256 33 1256 24 q 1291 90 1256 57 q 1476 537 1473 263 q 1299 955 1476 784 q 1256 1015 1256 998 q 1267 1034 1256 1023 q 1289 1042 1275 1042 q 1386 971 1324 1042 z "},"":{"ha":1345,"x_min":0,"x_max":1345,"o":"m 197 997 q 295 1095 197 997 q 673 1194 393 1194 q 1149 997 952 1194 q 1345 521 1345 800 q 1149 45 1345 241 q 673 -152 952 -152 q 197 45 393 -152 q 0 521 0 241 q 197 997 0 800 m 1004 732 q 994 780 1009 765 q 958 787 979 795 l 309 534 q 273 507 274 524 q 301 483 271 491 l 467 431 l 852 673 q 876 675 868 684 q 873 667 879 673 l 562 385 l 548 214 q 583 231 567 214 l 665 309 l 833 184 q 892 212 882 157 l 1004 732 z "},"":{"ha":1345,"x_min":0,"x_max":1345,"o":"m 197 997 q 295 1095 197 997 q 673 1194 393 1194 q 1149 997 952 1194 q 1345 521 1345 800 q 1149 45 1345 241 q 673 -152 952 -152 q 197 45 393 -152 q 0 521 0 241 q 197 997 0 800 m 803 309 l 1034 732 l 543 732 l 312 309 l 803 309 z "},"":{"ha":1389,"x_min":22,"x_max":1367,"o":"m 817 640 q 817 597 838 618 l 789 570 q 746 570 768 545 l 716 597 q 716 643 697 621 l 743 670 q 789 670 765 692 l 817 640 m 735 694 q 705 694 722 681 q 705 722 692 708 q 735 722 722 738 q 735 694 749 708 m 665 678 q 692 678 678 694 q 692 651 708 665 q 665 651 678 637 q 665 678 648 665 m 860 716 q 803 798 817 749 q 830 901 789 846 q 990 898 901 982 q 1001 890 993 898 q 1012 879 1009 882 q 1021 868 1015 876 q 1031 857 1028 860 q 1039 845 1034 854 q 1046 831 1044 836 q 1048 818 1047 827 q 1048 802 1050 808 q 1044 785 1047 795 q 1036 768 1042 776 q 956 703 1012 719 q 860 716 901 686 m 990 836 q 964 842 979 849 q 944 821 949 836 q 949 792 939 806 q 993 787 966 770 q 990 836 1015 806 m 1171 997 q 1269 899 1171 997 q 1367 521 1367 800 q 1171 45 1367 241 q 694 -152 974 -152 q 218 45 415 -152 q 22 521 22 241 q 218 997 22 800 q 694 1194 415 1194 q 1171 997 974 1194 m 1188 404 q 1157 450 1191 431 q 1120 475 1123 469 q 1057 549 1090 529 q 971 559 1023 570 q 1001 571 985 567 q 1025 575 1017 575 l 1036 575 q 1009 640 1036 608 q 1013 661 1012 651 q 1015 677 1015 670 q 1013 690 1015 684 q 1012 700 1012 697 l 1009 703 q 1090 819 1080 741 q 1057 932 1096 882 q 955 990 1017 982 q 897 986 925 993 q 845 962 868 979 q 808 920 822 944 q 781 844 784 882 q 792 779 779 806 q 825 731 806 751 q 868 700 844 711 q 802 727 833 703 q 760 792 770 751 q 784 960 738 873 q 762 982 770 974 q 694 968 724 982 q 726 997 708 987 q 754 1006 743 1006 l 762 1009 q 754 1066 762 1044 q 713 1090 743 1090 q 667 1058 684 1090 q 667 1061 667 1061 q 669 962 656 1042 q 713 825 681 882 q 678 798 694 814 q 640 769 662 789 q 600 727 618 749 q 563 684 581 705 q 537 648 545 662 l 526 632 q 391 538 458 608 q 336 418 323 469 q 342 396 336 404 q 320 374 334 388 q 309 316 293 345 q 369 307 326 288 q 467 391 431 336 q 463 393 467 391 q 448 399 458 396 q 423 401 437 401 q 548 426 529 426 q 564 446 559 423 q 570 494 570 469 l 570 521 q 540 632 570 597 q 616 467 618 556 q 610 442 616 453 q 600 425 605 431 q 589 414 594 418 q 578 407 583 410 l 575 407 q 562 382 572 401 q 541 347 551 363 q 521 308 532 331 q 502 262 510 285 q 488 214 494 239 q 484 165 483 190 q 491 119 486 141 q 464 179 467 157 q 399 3 336 35 q 576 125 450 -24 q 741 388 703 274 q 914 564 865 464 q 1072 401 963 469 q 1188 404 1177 339 z "},"":{"ha":1042,"x_min":0,"x_max":1042,"o":"m 1042 271 q 998 -87 1015 109 q 0 -87 534 -71 l 0 -16 q 37 -9 14 -14 q 71 -4 60 -5 q 98 1 81 -3 q 121 8 114 5 q 137 16 127 11 q 151 26 146 22 q 159 38 155 30 q 164 56 163 46 q 165 79 165 65 q 165 952 179 643 q 164 972 165 963 q 160 989 163 982 q 153 1001 157 996 q 145 1012 149 1006 q 132 1020 141 1017 q 115 1025 122 1023 q 94 1031 109 1028 q 68 1036 79 1034 q 35 1043 57 1039 q 0 1050 14 1047 l 0 1118 q 985 1128 703 1096 l 963 787 l 901 787 q 891 825 898 798 q 880 864 884 852 q 869 901 876 876 q 857 937 863 925 q 844 967 852 949 q 827 994 836 985 q 807 1013 819 1004 q 781 1027 795 1023 q 751 1031 768 1031 l 380 1031 q 357 1025 361 1031 q 353 1004 353 1020 l 353 559 l 591 567 q 613 568 605 567 q 629 571 621 570 q 644 578 637 572 q 655 586 651 583 q 663 600 659 589 q 670 616 667 610 q 677 639 673 621 q 684 667 681 656 q 692 703 686 678 q 703 743 697 727 l 770 743 q 762 524 762 540 q 768 309 762 507 l 697 309 q 688 351 694 323 q 678 391 681 380 q 670 420 675 401 q 659 445 665 439 q 643 460 654 450 q 620 472 632 469 q 589 477 608 475 q 350 483 532 483 l 350 106 q 472 0 350 0 l 713 0 q 772 5 746 0 q 815 14 798 11 q 852 34 833 16 q 879 58 871 52 q 903 98 887 65 q 926 142 920 130 q 954 203 933 155 q 982 271 974 252 l 1042 271 z "},"":{"ha":1215,"x_min":0,"x_max":1215,"o":"m 1085 1128 q 1177 1090 1139 1128 q 1215 998 1215 1053 l 1215 43 q 1177 -49 1215 -11 q 1085 -87 1139 -87 l 130 -87 q 38 -49 76 -87 q 0 43 0 -11 l 0 998 q 38 1090 0 1053 q 130 1128 76 1128 l 1085 1128 m 57 594 m 263 347 l 263 694 l 174 694 l 174 347 l 263 347 m 570 347 l 570 694 l 453 694 l 434 532 q 410 694 418 643 l 293 694 l 293 347 l 372 347 l 372 578 l 404 347 l 461 347 l 494 583 l 494 347 l 570 347 m 602 347 q 643 347 616 347 q 788 366 768 347 q 806 499 808 385 q 806 572 806 545 q 800 637 806 621 q 772 678 795 665 q 730 693 749 692 q 678 694 711 694 q 667 694 670 694 l 602 694 l 602 347 m 1036 426 l 1036 524 q 1035 568 1036 553 q 1019 595 1034 583 q 977 608 1004 608 q 920 581 944 608 l 920 694 l 836 694 l 836 347 l 917 347 l 920 369 q 977 342 944 342 q 1036 426 1036 342 m 719 591 l 719 458 q 719 448 719 456 q 719 427 719 434 q 712 414 719 420 q 692 407 705 407 l 692 635 q 711 629 705 635 q 718 618 716 624 q 719 600 719 613 q 719 591 719 594 m 949 521 l 949 431 q 933 393 949 393 q 924 400 928 393 q 920 521 920 407 q 933 556 920 556 q 949 521 949 556 z "},"":{"ha":1389,"x_min":0,"x_max":1405,"o":"m 1104 1047 q 1326 823 1251 971 q 1386 507 1402 675 q 1359 366 1375 418 q 1238 133 1313 225 q 1025 -35 1164 41 q 971 -65 993 -57 q 863 -76 922 -81 q 814 -76 838 -76 q 476 39 624 -76 q 279 334 328 155 q 275 334 277 334 q 271 334 274 334 q 283 212 266 282 q 323 95 301 141 l 347 52 q 382 -3 353 43 q 263 126 307 38 q 212 285 220 214 l 206 353 q 0 456 22 423 q 206 382 111 396 l 209 404 q 271 597 214 505 q 388 841 298 732 q 442 985 407 920 q 496 1036 461 1020 q 1104 1047 830 1191 m 377 773 q 326 673 347 730 q 374 719 353 703 l 377 773 m 293 442 q 304 366 296 401 l 415 347 q 388 460 399 399 q 374 556 377 521 l 372 591 q 293 442 317 537 m 315 326 q 471 84 358 184 q 732 -38 583 -16 q 724 -35 727 -38 q 700 -20 716 -30 q 642 23 684 -11 q 564 94 600 57 q 490 186 529 130 q 431 301 450 241 q 315 326 418 304 m 1047 11 q 1257 203 1177 76 q 1337 483 1337 331 q 1184 854 1337 700 q 814 1009 1031 1009 q 467 876 613 1009 q 434 770 445 838 q 598 845 499 822 q 765 865 697 868 l 830 860 q 887 784 890 857 q 627 761 727 798 q 429 640 526 724 q 502 342 453 429 q 761 372 632 336 q 955 448 890 407 l 1017 486 q 1074 475 1069 524 q 1050 393 1085 410 q 738 304 911 328 q 526 293 648 290 q 600 175 553 228 q 690 91 646 122 q 777 38 735 60 q 846 8 819 16 l 871 0 q 1047 11 968 -16 z "},"":{"ha":1215,"x_min":0,"x_max":1218,"o":"m 958 1128 q 1088 1095 1028 1128 q 1181 1001 1147 1061 q 1215 871 1215 941 l 1215 171 q 1139 -11 1215 65 q 958 -87 1063 -87 l 258 -87 q 76 -11 152 -87 q 0 171 0 65 l 0 871 q 76 1053 0 977 q 258 1128 152 1128 l 958 1128 m 655 142 q 710 157 655 142 q 822 270 765 171 q 849 479 879 369 q 722 646 819 589 q 704 656 711 654 q 697 659 697 659 q 696 662 697 662 q 689 665 694 662 q 673 675 684 667 q 593 654 621 705 q 613 572 564 602 q 665 545 637 559 q 736 449 719 513 q 722 330 754 385 q 625 256 689 274 q 507 271 562 239 q 488 282 494 279 q 481 285 483 285 q 480 285 480 285 q 480 286 480 285 q 473 290 480 288 q 456 301 467 293 q 411 307 434 312 q 377 279 388 301 l 334 206 q 347 130 309 160 q 442 160 396 90 q 448 168 445 165 q 655 142 545 114 m 882 836 q 882 897 901 868 q 833 925 863 925 q 781 895 803 925 l 768 873 q 557 898 667 928 q 392 770 448 868 q 365 563 336 673 q 494 396 393 453 q 510 385 505 388 q 518 382 515 382 q 518 380 518 380 q 525 377 518 380 q 543 366 532 374 q 623 388 594 336 q 602 469 651 439 l 551 496 q 477 593 494 529 q 494 712 461 656 q 590 785 526 768 q 708 770 654 803 q 727 760 722 762 q 732 757 732 757 q 735 755 735 757 q 741 751 735 754 q 760 741 746 749 q 830 751 800 722 q 882 836 836 757 z "},"":{"ha":1215,"x_min":0,"x_max":1215,"o":"m 1215 1128 l 979 892 q 1134 491 1150 724 q 994 164 1123 301 q 678 3 865 27 q 461 -27 583 -11 q 217 -58 339 -43 q 0 -87 95 -73 l 236 149 q 79 551 65 315 q 220 878 90 741 q 537 1039 350 1015 q 903 1086 667 1055 q 1215 1128 1139 1118 m 998 499 q 901 779 1009 659 q 629 909 792 898 q 431 868 524 914 q 279 735 339 822 q 214 543 220 648 q 315 262 206 380 q 586 133 423 144 q 868 231 746 125 q 998 499 990 336 z "},"":{"ha":1389,"x_min":0,"x_max":1389,"o":"m 1185 1012 q 1287 910 1185 1012 q 1389 521 1389 808 q 1185 30 1389 233 q 694 -174 982 -174 q 203 30 407 -174 q 0 521 0 233 q 203 1012 0 808 q 694 1215 407 1215 q 1185 1012 982 1215 m 1302 521 q 1124 949 1302 770 q 694 1128 947 1128 q 264 951 442 1128 q 87 521 87 773 q 264 91 87 269 q 694 -87 442 -87 q 1124 91 947 -87 q 1302 521 1302 269 m 437 876 l 673 776 l 572 540 l 336 640 l 437 876 m 735 418 l 863 163 l 822 163 l 686 434 l 553 163 l 515 163 l 654 453 l 594 480 l 610 518 l 795 439 l 779 399 l 735 418 m 703 735 l 890 654 l 808 469 l 624 548 l 703 735 m 920 618 l 1069 556 l 1006 407 l 857 469 l 920 618 z "},"":{"ha":1389,"x_min":-5,"x_max":1438,"o":"m 236 114 q 269 91 263 119 q 247 57 274 62 q 214 80 220 52 q 236 114 209 109 m 656 -103 q 711 -111 689 -79 q 700 -165 732 -144 q 646 -157 670 -190 q 656 -103 627 -125 m 448 1191 q 425 1152 456 1158 q 385 1177 393 1145 q 410 1215 380 1207 q 434 1211 423 1218 q 448 1191 445 1204 m 49 610 q 61 613 49 610 q 94 601 73 616 q 118 562 114 586 q 109 517 122 537 q 71 491 95 496 q 26 500 46 486 q 1 540 5 515 q 11 586 -3 564 q 49 610 24 605 m 859 1101 q 855 1089 859 1101 q 831 1065 852 1077 q 787 1058 811 1053 q 751 1085 762 1063 q 743 1131 738 1107 q 770 1168 749 1156 q 815 1175 792 1180 q 852 1147 838 1169 q 859 1101 865 1126 m 331 939 q 330 929 331 939 q 313 909 328 920 q 279 901 298 898 q 250 920 260 903 q 243 955 239 936 q 260 985 247 974 q 296 990 277 993 q 324 972 315 987 q 331 939 334 958 m 1324 486 q 1351 479 1337 488 q 1367 456 1364 469 q 1362 426 1370 439 q 1337 410 1354 412 q 1310 415 1324 407 q 1294 439 1297 423 q 1294 460 1291 450 q 1305 476 1297 469 q 1324 486 1313 483 m 1430 637 q 1411 605 1438 613 q 1375 627 1381 600 q 1397 659 1370 654 q 1430 637 1424 665 m 1192 806 q 1194 817 1192 806 q 1213 840 1196 827 q 1249 848 1229 852 q 1282 826 1270 844 q 1290 787 1294 808 q 1270 754 1286 765 q 1232 746 1253 743 q 1199 766 1210 749 q 1192 806 1188 784 m 1196 461 q 1229 270 1251 372 q 1123 111 1207 168 q 971 65 1055 62 q 852 -61 947 -33 q 684 -24 757 -90 q 680 -27 684 -24 q 675 -33 675 -30 q 500 -69 594 -87 q 350 27 407 -52 q 309 155 312 84 q 174 236 225 168 q 127 389 122 304 q 198 534 133 475 q 189 730 141 629 q 342 846 236 830 q 534 1031 396 982 q 787 993 673 1080 q 1039 951 925 1039 q 1142 719 1153 863 q 1244 605 1226 692 q 1196 461 1261 518 m 1006 258 q 947 293 1001 285 q 890 331 892 301 q 943 510 884 377 q 998 678 1001 643 q 906 760 987 757 q 849 746 871 760 q 817 749 830 735 q 765 781 784 781 q 692 757 730 789 q 637 732 654 724 q 572 762 597 751 q 525 766 551 770 q 476 746 499 762 q 439 708 453 730 q 418 654 431 692 q 389 570 404 616 q 362 486 374 524 q 339 411 350 448 q 328 369 328 374 q 342 277 309 315 q 429 241 374 239 q 496 288 472 244 q 557 444 502 298 q 618 594 613 589 q 656 608 632 621 q 673 567 678 597 q 635 458 673 553 q 594 355 597 363 q 610 312 591 326 q 656 307 629 298 q 700 345 684 315 q 723 392 703 350 q 766 480 743 434 q 810 567 789 526 q 833 613 830 608 q 865 635 849 635 q 884 605 890 635 q 834 490 884 591 q 779 366 784 388 q 780 312 773 339 q 804 263 787 285 q 846 228 822 241 q 887 217 860 222 q 943 210 914 212 q 990 221 971 209 q 1006 258 1009 233 m 1020 8 q 1067 19 1042 24 q 1109 -8 1093 14 q 1119 -56 1123 -30 q 1093 -96 1115 -81 q 1046 -106 1072 -111 q 1005 -80 1020 -100 q 996 -33 990 -60 q 1020 8 1001 -5 z "},"":{"ha":1215,"x_min":0,"x_max":1215,"o":"m 920 751 q 937 746 930 751 q 941 732 944 741 l 941 366 q 922 347 941 355 q 781 309 841 309 q 692 331 746 309 q 591 353 637 353 q 415 307 521 353 q 407 304 412 304 l 407 184 q 404 171 407 176 l 404 168 q 355 130 393 130 q 317 146 334 130 q 301 184 301 163 l 301 760 q 266 830 266 787 q 292 891 266 865 q 354 917 317 917 q 416 891 391 917 q 442 830 442 865 q 410 760 442 784 l 410 711 q 420 716 412 711 q 583 751 515 751 q 743 716 651 751 q 779 708 760 708 q 865 730 814 708 q 920 751 917 751 m 1080 1128 q 1175 1088 1134 1128 q 1215 993 1215 1047 l 1215 49 q 1175 -46 1215 -5 q 1080 -87 1134 -87 l 136 -87 q 41 -46 81 -87 q 0 49 0 -5 l 0 993 q 41 1088 0 1047 q 136 1128 81 1128 l 1080 1128 m 1118 49 l 1118 993 q 1107 1020 1118 1009 q 1080 1031 1096 1031 l 136 1031 q 109 1020 119 1031 q 98 993 98 1009 l 98 49 q 109 23 98 35 q 136 11 119 11 l 1080 11 q 1107 22 1096 11 q 1118 49 1118 33 z "},"":{"ha":1215,"x_min":65,"x_max":1156,"o":"m 1150 521 l 1115 95 q 1067 26 1109 43 q 986 33 1025 8 q 949 109 947 57 l 977 439 l 865 434 q 909 250 909 347 q 795 -41 909 81 l 689 65 q 754 209 743 127 q 735 358 765 290 q 639 473 705 426 q 488 521 572 521 q 304 450 382 521 l 198 556 q 418 665 293 643 l 624 898 l 507 966 l 369 841 q 285 823 328 806 q 232 883 241 841 q 258 963 222 925 l 442 1128 q 537 1137 486 1166 q 917 917 917 917 q 956 852 949 895 q 933 776 963 808 l 776 594 l 1063 610 q 1127 586 1101 613 q 1150 521 1153 559 m 1072 979 q 1051 959 1072 979 q 974 939 1031 939 q 876 979 917 939 q 836 1077 836 1020 q 876 1175 836 1134 q 974 1215 917 1215 q 1043 1196 1012 1215 q 1093 1146 1074 1177 q 1112 1077 1112 1115 q 1072 979 1112 1020 m 488 -22 q 640 24 570 -22 l 746 -84 q 572 -165 667 -146 q 389 -160 477 -184 q 228 -83 301 -136 q 110 58 155 -30 q 65 250 65 146 q 155 507 65 393 l 263 401 q 217 260 220 336 q 247 122 214 184 q 343 19 279 60 q 488 -22 407 -22 z "},"":{"ha":1736,"x_min":-3,"x_max":1750,"o":"m 873 532 q 811 475 873 532 q 689 362 749 418 q 629 307 629 307 l 377 214 q 358 190 358 206 q 359 155 358 187 q 361 114 361 122 q 49 14 52 14 q 0 5 0 -3 q 5 19 0 8 q 168 179 8 22 q 492 499 328 336 q 667 671 656 662 q 688 689 678 681 q 705 701 697 697 q 720 708 713 705 q 732 713 727 711 l 735 713 l 873 534 l 873 532 m 1308 206 q 983 620 1299 214 q 656 1036 667 1025 q 642 1065 643 1055 q 651 1078 640 1074 q 673 1082 662 1082 q 711 1082 684 1082 q 1025 1085 868 1085 q 1093 1080 1077 1085 q 1128 1050 1109 1074 q 1693 377 1175 993 q 1712 315 1733 326 q 1553 248 1706 312 q 1392 182 1400 184 q 1352 172 1373 168 q 1308 206 1332 176 m 1723 201 q 1728 179 1750 195 q 1557 73 1723 176 q 1386 -33 1392 -30 q 1360 -41 1373 -38 q 1328 -42 1348 -43 q 1299 -39 1308 -41 q 1267 -33 1291 -38 q 1240 -27 1242 -27 q 1024 22 1232 -24 q 612 114 817 68 q 404 160 407 160 q 393 171 393 165 q 423 190 391 179 q 623 263 423 190 q 830 339 822 336 q 868 347 844 345 q 1047 320 887 347 l 1202 119 q 1299 81 1253 60 l 1619 222 q 1659 214 1633 220 q 1702 205 1685 209 q 1723 201 1720 201 z "},"":{"ha":1389,"x_min":0,"x_max":1389,"o":"m 1308 1128 q 1373 1112 1356 1128 q 1389 1047 1389 1096 l 1389 -5 q 1373 -72 1389 -57 q 1308 -87 1356 -87 l 79 -87 q 15 -72 30 -87 q 0 -8 0 -57 l 0 1050 q 16 1112 0 1096 q 79 1128 33 1128 l 1308 1128 m 483 618 q 515 543 521 591 q 460 511 513 521 q 327 491 407 502 q 206 461 247 480 q 121 378 149 431 q 98 266 92 326 q 172 137 106 182 q 330 96 239 92 q 496 149 420 100 q 529 152 518 165 q 534 144 532 149 q 540 136 537 138 q 601 110 553 117 q 667 117 648 103 q 673 144 681 127 q 652 228 656 182 q 650 309 648 274 q 648 385 651 345 q 648 452 648 410 q 648 513 648 494 q 647 566 648 532 q 643 614 646 600 q 633 652 640 629 q 616 688 627 675 q 590 712 605 700 q 553 735 575 724 q 214 722 380 806 q 160 673 190 708 q 119 601 130 637 q 146 548 109 564 q 209 532 165 537 q 236 530 225 526 q 255 553 247 534 q 354 639 279 618 q 483 618 429 659 m 1261 16 q 1256 37 1261 30 q 1246 43 1251 43 q 1230 43 1242 43 q 1215 43 1218 43 q 141 43 678 43 q 126 45 138 43 q 110 45 114 46 q 100 37 106 43 q 95 16 95 30 q 98 -4 92 3 q 109 -12 103 -11 q 126 -12 114 -14 q 141 -11 138 -11 l 1213 -11 q 1227 -12 1215 -11 q 1245 -14 1240 -14 q 1256 -7 1251 -14 q 1261 16 1261 0 m 1272 939 l 1272 941 q 1234 979 1272 982 q 1227 979 1232 979 q 1218 979 1223 979 q 1210 979 1213 979 q 1147 970 1156 979 q 1139 909 1139 960 l 1139 716 q 1020 761 1077 751 q 924 760 963 770 q 850 726 884 749 q 799 680 817 703 q 770 632 781 656 q 727 361 703 496 q 787 209 743 271 q 886 121 830 146 q 1002 98 941 95 q 1118 130 1063 100 q 1126 136 1120 133 q 1138 141 1131 141 q 1153 127 1145 141 q 1179 109 1164 111 q 1218 109 1194 106 q 1251 111 1242 111 q 1272 149 1272 111 l 1272 939 m 1131 309 q 1057 225 1107 247 q 959 224 1006 203 q 887 296 911 244 q 890 570 825 434 q 994 643 922 640 q 1109 583 1066 646 q 1149 434 1147 532 q 1131 309 1150 336 m 334 214 q 326 216 334 214 q 313 217 317 217 q 300 220 309 217 q 286 225 290 222 q 274 232 282 228 q 260 241 266 236 q 251 254 255 247 q 244 269 247 260 q 241 288 241 277 q 296 358 239 345 q 494 399 307 361 q 511 396 507 401 q 515 380 515 391 q 515 372 515 374 q 467 258 518 304 q 334 214 415 212 z "},"":{"ha":1389,"x_min":-22,"x_max":1392,"o":"m 570 849 q 553 783 570 849 q 433 571 537 716 q 213 355 328 426 q 38 330 98 285 q 11 507 -22 374 q 148 784 43 640 q 368 998 252 928 q 543 1025 483 1069 q 570 849 602 982 m 1386 727 q 1389 659 1389 692 q 1290 285 1389 456 q 1021 14 1191 114 q 651 -87 852 -87 q 339 -16 486 -87 q 90 176 193 54 q 350 309 233 214 q 534 537 467 404 q 667 336 570 399 q 1027 361 817 247 q 1386 727 1237 475 z "},"":{"ha":1215,"x_min":0,"x_max":1215,"o":"m 450 648 q 486 684 450 648 q 621 719 521 719 q 792 648 722 719 q 863 477 863 578 q 792 307 863 377 q 621 236 722 236 q 450 307 521 236 q 380 477 380 377 q 450 648 380 578 m 792 567 q 795 575 798 570 q 629 678 741 673 q 621 670 621 678 l 621 488 q 632 483 621 477 l 792 567 m 1055 1128 q 1135 1107 1099 1128 q 1194 1048 1172 1085 q 1215 968 1215 1012 l 1215 73 q 1168 -39 1215 8 q 1055 -87 1120 -87 l 160 -87 q 47 -39 95 -87 q 0 73 0 8 l 0 968 q 47 1081 0 1034 q 160 1128 95 1128 l 1055 1128 m 505 898 l 507 898 l 507 857 q 515 849 507 846 q 621 863 567 863 q 727 849 675 863 q 735 857 735 846 l 735 898 q 719 936 735 920 q 681 952 703 952 l 559 952 q 521 936 537 952 q 505 898 505 920 m 277 798 q 260 762 260 784 q 277 724 260 741 l 298 703 q 309 705 304 697 q 350 751 328 730 q 396 792 369 773 q 396 803 404 798 l 377 825 q 339 838 361 838 q 301 825 317 838 l 277 798 m 380 236 q 430 186 380 236 q 623 136 480 136 q 865 236 765 136 q 966 479 966 336 q 865 722 966 621 q 623 822 765 822 q 380 722 480 822 q 279 479 279 621 q 380 236 279 336 z "},"":{"ha":1215,"x_min":43,"x_max":1175,"o":"m 651 1128 q 1043 1029 914 1128 q 1172 760 1172 930 l 1172 -46 q 1158 -71 1172 -65 q 977 -71 1150 -71 q 817 -65 833 -71 q 798 -41 798 -62 l 798 27 q 594 -53 713 -19 q 382 -87 475 -87 q 233 -62 298 -87 q 134 -3 168 -38 q 79 75 100 33 q 50 146 57 117 q 43 195 43 176 q 43 220 43 198 q 43 258 43 241 q 45 301 43 274 q 49 349 46 328 q 58 395 52 369 q 73 439 65 420 q 95 475 81 458 q 127 499 109 491 q 395 564 187 524 q 787 629 602 605 l 787 732 q 784 817 787 789 q 766 875 781 844 q 719 918 751 906 q 629 930 686 930 q 404 891 521 930 q 214 803 288 852 q 186 796 203 792 q 160 819 168 800 q 133 925 149 841 q 152 979 125 963 q 651 1128 358 1128 m 787 184 l 787 475 q 609 439 703 467 q 461 382 515 412 q 446 373 453 380 q 435 361 439 366 q 427 346 431 355 q 420 330 423 336 q 416 313 418 323 q 414 297 415 304 q 412 281 412 290 q 412 264 412 271 q 412 251 412 258 q 412 239 412 244 q 418 208 412 225 q 438 168 423 190 q 488 133 453 146 q 572 119 524 119 q 787 184 681 119 z "},"":{"ha":1736,"x_min":-8,"x_max":1736,"o":"m 1736 570 l 1728 494 l 1633 486 l 1628 437 l 1723 445 l 1714 366 l 1619 361 l 1614 307 l 1706 312 l 1698 241 l 1525 231 l 1557 537 l 1430 225 l 1343 220 l 1278 540 l 1362 545 l 1397 328 l 1484 553 l 1736 570 m 1158 206 l 1194 532 l 1270 537 l 1234 212 l 1158 206 m 439 163 l 388 260 l 377 157 l 301 155 l 309 233 q 155 136 252 141 q 39 176 84 133 q 0 293 -5 220 q 56 412 5 358 q 184 472 106 467 q 224 469 206 472 q 255 461 241 467 q 278 449 269 456 q 296 433 288 442 q 308 416 304 423 q 317 401 312 410 q 323 393 323 393 l 331 477 l 437 483 q 551 418 537 491 l 559 491 l 735 502 l 727 426 l 629 420 l 624 372 l 722 377 l 716 304 l 616 296 l 610 241 l 711 250 l 705 193 l 852 510 l 917 515 l 1004 214 l 1028 448 l 968 442 l 977 518 l 1180 532 l 1172 456 l 1107 450 l 1080 201 l 922 193 l 911 233 l 803 228 l 781 184 l 439 163 m 320 353 l 247 347 q 176 391 222 393 q 141 382 157 391 q 113 361 125 374 q 92 332 100 347 q 81 301 84 317 q 99 240 79 266 q 160 217 119 214 q 239 269 203 220 l 312 271 l 320 353 m 472 374 q 458 404 475 399 q 401 407 442 410 l 393 331 q 422 332 412 331 q 445 338 431 334 q 464 351 458 342 q 472 374 469 361 m 529 182 l 545 345 q 469 271 526 296 l 529 182 m 895 304 l 873 407 l 833 298 l 895 304 m 434 507 l 423 553 l 315 548 l 293 496 l 206 491 l 361 822 l 426 827 l 510 551 l 537 833 l 610 838 l 713 667 l 730 846 l 808 852 l 798 741 q 826 791 814 773 q 879 837 838 808 q 968 868 920 865 q 1004 868 987 871 q 1032 861 1020 865 q 1055 852 1044 857 q 1074 840 1066 846 q 1089 826 1082 833 q 1100 812 1096 819 q 1107 800 1104 806 q 1112 791 1109 795 q 1115 787 1115 787 l 1123 873 l 1229 882 q 1329 854 1299 887 l 1316 887 l 1402 892 l 1438 776 l 1500 901 l 1584 906 l 1468 694 l 1454 572 l 1375 567 l 1389 689 l 1345 806 q 1259 670 1351 708 l 1329 564 l 1229 559 l 1177 659 l 1166 553 l 1090 548 l 1099 635 q 1089 621 1096 632 q 1077 604 1082 610 q 1061 586 1072 597 q 1039 567 1050 575 q 1013 551 1028 559 q 979 537 998 543 q 936 532 960 532 q 787 637 825 524 l 776 529 l 708 524 l 605 694 l 589 515 l 434 507 m 1185 730 q 1242 741 1226 732 q 1264 773 1261 751 q 1256 803 1267 795 q 1194 808 1240 811 l 1185 730 m 890 635 q 947 613 911 610 q 982 624 966 616 q 1023 662 1004 637 l 930 656 l 939 722 l 1109 732 l 1112 765 l 1028 760 q 998 781 1009 776 q 963 789 979 789 q 903 765 933 787 q 868 697 873 738 q 890 635 865 659 m 342 613 l 407 616 l 385 719 l 342 613 z "},"":{"ha":1389,"x_min":22,"x_max":1367,"o":"m 694 887 l 719 930 q 753 956 730 949 q 795 951 776 963 q 821 917 814 939 q 814 873 827 895 l 578 464 l 749 464 q 810 426 789 464 q 811 353 830 388 l 309 353 q 269 369 285 353 q 252 408 252 385 q 269 448 252 431 q 309 464 285 464 l 450 464 l 629 776 l 575 873 q 568 917 562 895 q 594 951 575 939 q 636 956 613 963 q 670 930 659 949 l 694 887 m 480 296 l 429 203 q 393 178 415 184 q 351 183 372 171 q 326 217 331 195 q 331 260 320 239 l 372 328 q 480 296 437 347 m 939 464 l 1082 464 q 1123 448 1107 464 q 1139 408 1139 431 q 1123 369 1139 385 q 1082 353 1107 353 l 1004 353 l 1058 260 q 1062 217 1069 239 q 1036 183 1055 195 q 994 178 1017 171 q 960 203 971 184 q 846 404 914 288 q 757 559 779 521 q 736 671 727 621 q 776 746 746 722 q 939 464 808 689 m 218 997 q 317 1095 218 997 q 694 1194 415 1194 q 1171 997 974 1194 q 1367 521 1367 800 q 1171 45 1367 241 q 694 -152 974 -152 q 218 45 415 -152 q 22 521 22 241 q 218 997 22 800 m 1280 521 q 1108 936 1280 765 q 694 1107 936 1107 q 279 935 450 1107 q 109 521 109 762 q 281 106 109 277 q 694 -65 453 -65 q 1109 107 939 -65 q 1280 521 1280 279 z "},"":{"ha":1215,"x_min":0,"x_max":1215,"o":"m 1085 1128 q 1177 1090 1139 1128 q 1215 998 1215 1053 l 1215 43 q 1177 -49 1215 -11 q 1085 -87 1139 -87 l 130 -87 q 38 -49 76 -87 q 0 43 0 -11 l 0 998 q 38 1090 0 1053 q 130 1128 76 1128 l 1085 1128 m 345 174 l 396 263 q 290 293 355 315 l 250 228 q 245 184 239 206 q 271 152 252 163 q 312 146 290 141 q 345 174 334 152 m 722 317 q 720 389 741 353 q 659 426 700 426 l 491 426 l 724 830 q 730 871 735 849 q 704 903 724 892 q 662 909 684 914 q 629 884 640 903 l 605 844 l 581 884 q 548 909 570 903 q 507 903 526 914 q 483 871 488 892 q 488 830 477 849 l 543 735 l 366 426 l 228 426 q 190 411 206 426 q 174 373 174 396 q 190 334 174 350 q 228 317 206 317 l 722 317 m 987 317 q 1025 334 1009 317 q 1042 373 1042 350 q 1025 411 1042 396 q 987 426 1009 426 l 846 426 q 686 703 803 502 q 647 632 656 681 q 667 521 637 583 q 761 358 692 477 q 868 174 830 239 q 901 146 879 152 q 941 152 922 141 q 967 184 960 163 q 963 228 974 206 l 909 317 l 987 317 z "},"":{"ha":1736,"x_min":0,"x_max":1736,"o":"m 114 567 q 178 559 160 567 q 206 526 195 551 l 206 589 q 157 632 206 632 q 140 631 146 632 q 127 625 133 629 q 121 614 122 621 q 117 597 119 608 l 14 597 q 30 662 14 646 q 155 694 54 694 q 301 643 274 694 q 312 578 312 618 l 312 372 l 206 372 l 212 423 l 209 423 q 190 391 201 401 q 160 374 179 380 q 111 369 141 369 q 24 392 49 369 q 0 469 0 415 q 27 544 0 521 q 114 567 54 567 m 160 437 q 197 444 187 437 q 206 472 206 450 q 195 498 206 491 q 152 505 184 505 q 106 472 106 505 q 117 444 106 450 q 160 437 127 437 m 372 694 l 475 694 l 472 637 l 475 637 q 511 684 491 673 q 575 694 532 694 q 662 670 632 694 q 694 540 694 640 q 662 396 694 431 q 572 369 637 369 q 511 381 532 369 q 480 426 491 393 l 477 426 l 477 236 l 372 236 l 372 694 m 591 529 q 581 602 591 586 q 534 618 570 618 q 488 604 499 618 q 477 540 477 589 q 488 465 477 483 q 537 448 499 448 q 581 464 570 448 q 591 529 591 480 m 749 694 l 852 694 l 849 637 q 888 684 868 673 q 952 694 909 694 q 1036 670 1009 694 q 1072 540 1072 640 q 1039 396 1072 431 q 949 369 1015 369 q 886 381 906 369 q 857 426 865 393 l 854 426 l 854 236 l 749 236 l 749 694 m 968 529 q 958 602 968 586 q 911 618 947 618 q 865 604 876 618 q 854 540 854 589 q 860 481 854 499 q 876 456 865 464 q 911 448 887 448 q 958 464 947 448 q 968 529 968 480 m 1112 540 q 1147 665 1112 635 q 1270 694 1180 694 q 1389 662 1356 694 q 1421 543 1421 629 l 1421 513 l 1215 513 q 1215 499 1215 507 q 1221 464 1215 477 q 1237 445 1226 450 q 1270 439 1248 439 q 1309 448 1299 439 q 1318 477 1318 456 l 1421 477 l 1421 472 q 1402 404 1421 429 q 1280 369 1375 369 q 1145 401 1177 369 q 1112 540 1112 431 m 1321 570 q 1321 581 1321 575 q 1310 613 1321 605 q 1267 621 1299 621 q 1229 613 1237 621 q 1218 581 1221 605 l 1218 570 l 1321 570 m 1470 694 l 1576 694 l 1571 640 l 1573 640 q 1652 694 1598 694 q 1717 669 1698 694 q 1736 578 1736 643 q 1736 551 1736 564 l 1641 551 q 1641 562 1641 556 q 1636 605 1641 594 q 1614 616 1630 616 q 1579 591 1587 616 q 1576 556 1576 581 l 1576 372 l 1470 372 l 1470 694 z "},"":{"ha":1563,"x_min":0,"x_max":1565,"o":"m 1405 377 q 1272 269 1348 317 l 1470 -30 l 1194 -30 l 1069 163 q 922 114 1001 136 l 1012 -30 l 643 -30 l 705 71 q 518 62 608 60 l 458 -30 l 184 -30 l 277 109 q 92 334 90 184 q 206 559 92 445 q 643 811 366 724 q 475 727 564 784 q 260 570 342 659 q 160 332 144 445 q 312 160 176 220 l 827 936 l 1237 320 q 1332 404 1289 361 q 1451 800 1530 616 q 1063 1031 1373 985 q 464 993 773 1077 q 0 836 236 955 q 544 1034 244 971 q 1104 1058 844 1096 q 1355 983 1251 1036 q 1511 856 1459 930 q 1563 692 1563 781 q 1405 377 1560 537 m 895 157 q 1042 212 968 179 l 827 543 l 551 111 q 738 125 640 109 l 827 269 l 895 157 z "},"":{"ha":1736,"x_min":0,"x_max":1736,"o":"m 1736 673 l 1736 526 l 868 -16 l 0 526 l 0 673 l 868 130 l 1736 673 m 1210 477 q 834 699 1063 670 q 420 575 605 727 q 401 559 407 564 l 399 559 q 601 741 477 673 q 868 808 724 808 q 1053 777 963 808 q 1214 690 1142 746 q 1337 559 1286 635 l 1210 477 m 610 426 q 868 559 705 559 q 1126 426 1031 559 l 1001 347 q 768 477 909 477 q 610 426 684 477 m 282 779 q 187 689 244 749 q 479 959 298 860 q 868 1058 659 1058 q 1257 959 1077 1058 q 1549 689 1438 860 l 1416 608 l 1413 610 q 1082 883 1280 795 q 670 944 884 971 q 282 779 456 917 m 1549 689 z "},"":{"ha":1389,"x_min":-14,"x_max":1402,"o":"m 1229 1128 q 1354 1073 1308 1128 q 1386 939 1400 1017 l 1232 103 q 1152 -31 1218 24 q 1006 -87 1085 -87 l 160 -87 q 35 -31 81 -87 q 3 103 -11 24 l 157 939 q 237 1073 171 1017 q 382 1128 304 1128 l 1229 1128 m 1072 187 l 1088 209 l 830 532 l 819 551 q 856 578 838 564 q 884 600 873 591 q 905 614 895 608 q 914 621 914 621 q 928 659 930 635 q 906 705 925 684 q 863 734 887 727 q 825 727 838 741 q 732 640 784 689 l 719 651 l 439 958 l 415 944 l 363 865 l 551 594 l 608 515 q 518 420 551 456 l 361 505 l 317 461 l 458 331 l 570 165 l 618 201 l 559 374 q 673 448 605 404 l 985 149 l 1072 187 z "},"":{"ha":1736,"x_min":-8,"x_max":1750,"o":"m 488 665 q 495 616 488 637 q 510 579 502 594 q 518 559 518 564 q 507 543 518 548 l 472 518 q 458 513 467 513 q 450 513 453 513 q 433 530 448 513 q 401 581 418 548 q 357 541 385 559 q 296 513 328 524 q 236 502 263 502 q 233 502 233 502 q 126 534 182 499 q 76 654 71 570 q 130 776 71 730 q 266 817 190 822 q 393 800 323 817 l 393 844 q 368 933 401 898 q 274 960 334 968 q 149 933 217 960 q 119 928 133 928 q 106 956 106 930 q 111 993 106 982 q 179 1024 125 1006 q 290 1042 233 1042 q 309 1042 298 1042 q 442 996 382 1042 q 491 868 491 941 q 488 852 491 860 l 488 665 m 255 578 q 347 604 315 578 q 388 659 380 629 q 393 732 393 681 q 288 746 339 746 q 209 728 247 749 q 174 659 171 708 q 194 600 171 624 q 255 578 217 575 m 719 515 q 684 543 692 513 l 548 990 q 545 1012 545 1001 q 543 1015 543 1012 q 553 1025 543 1025 l 616 1025 q 648 998 643 1028 l 746 616 l 836 998 q 871 1025 841 1028 l 917 1025 q 952 998 947 1028 l 1042 610 l 1142 998 q 1177 1025 1147 1028 l 1229 1025 q 1234 1025 1232 1025 q 1241 1020 1237 1025 q 1245 1004 1245 1015 q 1101 543 1242 998 q 1066 513 1096 510 l 1017 513 q 982 543 987 510 l 892 914 l 803 543 q 768 515 798 510 l 719 515 m 1459 499 q 1305 532 1370 499 q 1283 564 1283 543 l 1283 594 q 1308 610 1283 618 q 1386 583 1359 589 q 1541 597 1481 564 q 1569 642 1565 610 q 1554 692 1573 673 q 1544 700 1549 697 q 1530 707 1538 703 q 1518 713 1522 711 q 1500 720 1514 716 q 1478 727 1487 724 q 1449 736 1470 730 q 1411 749 1427 743 q 1371 762 1392 751 q 1321 808 1351 773 q 1291 890 1291 844 q 1341 996 1289 949 q 1478 1042 1394 1042 q 1529 1038 1500 1042 q 1588 1024 1557 1034 q 1630 998 1619 1015 q 1636 979 1636 990 l 1636 952 q 1622 933 1636 933 q 1598 943 1617 936 q 1550 956 1579 949 q 1489 963 1522 963 q 1463 962 1478 963 q 1428 955 1449 960 q 1396 935 1408 949 q 1383 895 1383 920 q 1465 822 1383 844 q 1503 811 1476 819 q 1537 802 1530 803 q 1561 793 1544 800 q 1584 784 1579 787 q 1602 774 1590 781 q 1621 760 1614 768 q 1636 743 1628 751 q 1649 591 1690 675 q 1459 499 1600 496 m 1571 214 q 1241 56 1432 111 q 868 0 1050 0 q 860 0 863 0 q 407 96 656 0 q 8 328 157 193 q 3 350 -5 339 q 27 353 11 361 q 444 191 193 258 q 884 125 694 125 l 887 125 q 1221 164 1028 125 q 1541 258 1413 203 q 1580 250 1568 269 q 1571 214 1592 231 m 1598 87 q 1649 305 1674 274 q 1427 312 1625 336 q 1412 319 1413 309 q 1421 339 1411 328 q 1544 384 1473 372 q 1666 388 1614 396 q 1731 366 1717 380 q 1720 237 1750 342 q 1622 76 1690 133 q 1602 72 1611 68 q 1598 87 1592 76 z "},"":{"ha":1215,"x_min":0,"x_max":1215,"o":"m 1128 1128 q 1190 1103 1164 1128 q 1215 1042 1215 1077 l 1215 0 q 1190 -61 1215 -35 q 1128 -87 1164 -87 l 87 -87 q 26 -61 52 -87 q 0 0 0 -35 l 0 1042 q 26 1103 0 1077 q 87 1128 52 1128 l 1128 1128 m 955 431 l 955 526 q 901 694 955 640 q 673 749 846 749 l 627 749 q 437 643 453 749 l 434 643 l 434 846 l 260 846 l 260 217 l 434 217 l 434 312 l 437 312 q 627 206 472 206 l 673 206 q 901 260 846 206 q 955 431 955 315 m 781 510 l 781 448 q 762 376 781 396 q 678 355 743 355 l 553 355 q 488 362 513 355 q 449 391 464 369 q 434 450 434 412 l 434 505 q 463 579 434 559 q 553 600 491 600 l 678 600 q 762 579 743 600 q 781 510 781 559 z "},"":{"ha":1389,"x_min":22,"x_max":1367,"o":"m 1171 997 q 1269 899 1171 997 q 1367 521 1367 800 q 1171 45 1367 241 q 694 -152 974 -152 q 218 45 415 -152 q 22 521 22 241 q 218 997 22 800 q 694 1194 415 1194 q 1171 997 974 1194 m 982 616 q 836 787 1001 730 l 865 909 l 792 925 l 762 808 q 703 822 741 814 l 732 941 l 659 960 l 629 838 q 581 849 597 844 l 480 873 l 461 795 q 464 795 461 795 q 473 793 467 795 q 487 791 480 792 q 500 787 494 789 q 510 784 507 784 q 513 784 513 784 q 548 741 551 773 l 513 602 q 521 600 518 600 q 518 600 521 600 q 513 602 515 600 l 464 407 q 431 391 456 385 q 377 404 377 404 l 342 320 l 437 296 q 450 292 442 293 q 464 289 458 290 q 476 285 469 288 q 488 282 483 282 l 458 160 l 532 141 l 564 260 q 621 247 591 255 l 591 125 l 665 109 l 697 231 q 859 228 789 206 q 958 328 928 250 q 890 507 998 450 q 982 616 968 526 m 814 380 q 803 355 811 366 q 783 339 795 345 q 757 330 770 334 q 726 326 743 326 q 694 327 708 326 q 662 332 681 328 q 633 339 643 336 q 606 346 624 342 q 586 350 589 350 l 627 513 q 654 507 629 513 q 692 498 678 502 q 730 486 705 494 q 768 468 754 477 q 796 446 781 458 q 815 416 811 434 q 814 380 819 399 m 838 618 q 827 597 833 605 q 814 582 822 589 q 795 572 806 575 q 773 568 784 570 q 749 568 762 567 q 726 570 735 570 q 703 574 716 570 q 681 579 689 578 q 661 583 673 581 q 646 589 648 586 l 684 735 q 703 731 686 735 q 728 724 719 727 q 755 716 738 722 q 783 705 773 711 q 808 690 792 700 q 829 671 825 681 q 840 647 833 662 q 838 618 846 632 z "}}}
